<mxfile host="app.diagrams.net" modified="2023-05-28T14:06:30.026Z" agent="Mozilla/5.0 (Windows NT 10.0; Win64; x64) AppleWebKit/537.36 (KHTML, like Gecko) Chrome/113.0.0.0 Safari/537.36" etag="4wPKE8dez-vWhUvPsFRi" version="21.3.4" type="device" pages="7">
  <diagram id="yaNM2JiEOh75Z2uj5kkm" name="graf">
    <mxGraphModel dx="2438" dy="1976" grid="1" gridSize="10" guides="1" tooltips="1" connect="1" arrows="1" fold="1" page="1" pageScale="1" pageWidth="850" pageHeight="1100" math="0" shadow="0">
      <root>
        <mxCell id="0" />
        <mxCell id="1" parent="0" />
        <mxCell id="HLRS25cLLxFTYXJllBcJ-1" value="A" style="ellipse;whiteSpace=wrap;html=1;aspect=fixed;" parent="1" vertex="1">
          <mxGeometry x="405" y="300" width="40" height="40" as="geometry" />
        </mxCell>
        <mxCell id="HLRS25cLLxFTYXJllBcJ-2" value="B" style="ellipse;whiteSpace=wrap;html=1;aspect=fixed;" parent="1" vertex="1">
          <mxGeometry x="900" y="310" width="40" height="40" as="geometry" />
        </mxCell>
        <mxCell id="HLRS25cLLxFTYXJllBcJ-3" value="C" style="ellipse;whiteSpace=wrap;html=1;aspect=fixed;" parent="1" vertex="1">
          <mxGeometry x="800" y="580" width="40" height="40" as="geometry" />
        </mxCell>
        <mxCell id="HLRS25cLLxFTYXJllBcJ-4" value="D" style="ellipse;whiteSpace=wrap;html=1;aspect=fixed;" parent="1" vertex="1">
          <mxGeometry x="420" y="710" width="40" height="40" as="geometry" />
        </mxCell>
        <mxCell id="HLRS25cLLxFTYXJllBcJ-5" value="E" style="ellipse;whiteSpace=wrap;html=1;aspect=fixed;" parent="1" vertex="1">
          <mxGeometry x="790" y="-80" width="40" height="40" as="geometry" />
        </mxCell>
        <mxCell id="HLRS25cLLxFTYXJllBcJ-6" value="F" style="ellipse;whiteSpace=wrap;html=1;aspect=fixed;" parent="1" vertex="1">
          <mxGeometry x="520" y="-30" width="40" height="40" as="geometry" />
        </mxCell>
        <mxCell id="HLRS25cLLxFTYXJllBcJ-7" value="G" style="ellipse;whiteSpace=wrap;html=1;aspect=fixed;" parent="1" vertex="1">
          <mxGeometry x="200" y="-100" width="40" height="40" as="geometry" />
        </mxCell>
        <mxCell id="HLRS25cLLxFTYXJllBcJ-8" value="H" style="ellipse;whiteSpace=wrap;html=1;aspect=fixed;" parent="1" vertex="1">
          <mxGeometry x="-80" y="560" width="40" height="40" as="geometry" />
        </mxCell>
        <mxCell id="HLRS25cLLxFTYXJllBcJ-11" value="I" style="ellipse;whiteSpace=wrap;html=1;aspect=fixed;" parent="1" vertex="1">
          <mxGeometry x="30" y="350" width="40" height="40" as="geometry" />
        </mxCell>
        <mxCell id="HLRS25cLLxFTYXJllBcJ-12" value="J" style="ellipse;whiteSpace=wrap;html=1;aspect=fixed;" parent="1" vertex="1">
          <mxGeometry x="-110" y="140" width="40" height="40" as="geometry" />
        </mxCell>
        <mxCell id="HLRS25cLLxFTYXJllBcJ-14" value="" style="endArrow=none;html=1;rounded=0;entryX=1;entryY=0.5;entryDx=0;entryDy=0;exitX=0;exitY=0.5;exitDx=0;exitDy=0;" parent="1" source="HLRS25cLLxFTYXJllBcJ-2" target="HLRS25cLLxFTYXJllBcJ-1" edge="1">
          <mxGeometry width="50" height="50" relative="1" as="geometry">
            <mxPoint x="470" y="320" as="sourcePoint" />
            <mxPoint x="520" y="270" as="targetPoint" />
          </mxGeometry>
        </mxCell>
        <mxCell id="HLRS25cLLxFTYXJllBcJ-60" value="&lt;font style=&quot;font-size: 18px;&quot;&gt;1&lt;/font&gt;" style="edgeLabel;html=1;align=center;verticalAlign=middle;resizable=0;points=[];" parent="HLRS25cLLxFTYXJllBcJ-14" vertex="1" connectable="0">
          <mxGeometry x="0.7059" y="-4" relative="1" as="geometry">
            <mxPoint as="offset" />
          </mxGeometry>
        </mxCell>
        <mxCell id="HLRS25cLLxFTYXJllBcJ-15" value="" style="endArrow=none;html=1;rounded=0;exitX=0.5;exitY=0;exitDx=0;exitDy=0;entryX=0.5;entryY=1;entryDx=0;entryDy=0;" parent="1" source="HLRS25cLLxFTYXJllBcJ-4" target="HLRS25cLLxFTYXJllBcJ-1" edge="1">
          <mxGeometry width="50" height="50" relative="1" as="geometry">
            <mxPoint x="600" y="150" as="sourcePoint" />
            <mxPoint x="380" y="190" as="targetPoint" />
          </mxGeometry>
        </mxCell>
        <mxCell id="HLRS25cLLxFTYXJllBcJ-61" value="&lt;font style=&quot;font-size: 18px;&quot;&gt;3&lt;/font&gt;" style="edgeLabel;html=1;align=center;verticalAlign=middle;resizable=0;points=[];" parent="HLRS25cLLxFTYXJllBcJ-15" vertex="1" connectable="0">
          <mxGeometry x="0.7988" y="-1" relative="1" as="geometry">
            <mxPoint y="-1" as="offset" />
          </mxGeometry>
        </mxCell>
        <mxCell id="HLRS25cLLxFTYXJllBcJ-16" value="" style="endArrow=none;html=1;rounded=0;entryX=0.5;entryY=0;entryDx=0;entryDy=0;exitX=0;exitY=1;exitDx=0;exitDy=0;" parent="1" source="HLRS25cLLxFTYXJllBcJ-5" target="HLRS25cLLxFTYXJllBcJ-1" edge="1">
          <mxGeometry width="50" height="50" relative="1" as="geometry">
            <mxPoint x="710" y="60" as="sourcePoint" />
            <mxPoint x="360" y="200" as="targetPoint" />
          </mxGeometry>
        </mxCell>
        <mxCell id="HLRS25cLLxFTYXJllBcJ-62" value="&lt;font style=&quot;font-size: 18px;&quot;&gt;2&lt;/font&gt;" style="edgeLabel;html=1;align=center;verticalAlign=middle;resizable=0;points=[];" parent="HLRS25cLLxFTYXJllBcJ-16" vertex="1" connectable="0">
          <mxGeometry x="0.3793" relative="1" as="geometry">
            <mxPoint y="-1" as="offset" />
          </mxGeometry>
        </mxCell>
        <mxCell id="HLRS25cLLxFTYXJllBcJ-17" value="" style="endArrow=none;html=1;rounded=0;exitX=0.5;exitY=1;exitDx=0;exitDy=0;entryX=0.5;entryY=0;entryDx=0;entryDy=0;" parent="1" source="HLRS25cLLxFTYXJllBcJ-6" target="HLRS25cLLxFTYXJllBcJ-1" edge="1">
          <mxGeometry width="50" height="50" relative="1" as="geometry">
            <mxPoint x="610" y="540" as="sourcePoint" />
            <mxPoint x="450" y="120" as="targetPoint" />
          </mxGeometry>
        </mxCell>
        <mxCell id="HLRS25cLLxFTYXJllBcJ-63" value="&lt;font style=&quot;font-size: 18px;&quot;&gt;3&lt;/font&gt;" style="edgeLabel;html=1;align=center;verticalAlign=middle;resizable=0;points=[];" parent="HLRS25cLLxFTYXJllBcJ-17" vertex="1" connectable="0">
          <mxGeometry x="-0.7607" y="1" relative="1" as="geometry">
            <mxPoint as="offset" />
          </mxGeometry>
        </mxCell>
        <mxCell id="HLRS25cLLxFTYXJllBcJ-18" value="" style="endArrow=none;html=1;rounded=0;entryX=0.5;entryY=0;entryDx=0;entryDy=0;exitX=0.5;exitY=1;exitDx=0;exitDy=0;" parent="1" source="HLRS25cLLxFTYXJllBcJ-7" target="HLRS25cLLxFTYXJllBcJ-1" edge="1">
          <mxGeometry width="50" height="50" relative="1" as="geometry">
            <mxPoint x="210" y="20" as="sourcePoint" />
            <mxPoint x="320" y="260" as="targetPoint" />
          </mxGeometry>
        </mxCell>
        <mxCell id="HLRS25cLLxFTYXJllBcJ-64" value="&lt;font style=&quot;font-size: 18px;&quot;&gt;4&lt;/font&gt;" style="edgeLabel;html=1;align=center;verticalAlign=middle;resizable=0;points=[];" parent="HLRS25cLLxFTYXJllBcJ-18" vertex="1" connectable="0">
          <mxGeometry x="-0.6894" y="2" relative="1" as="geometry">
            <mxPoint x="1" as="offset" />
          </mxGeometry>
        </mxCell>
        <mxCell id="HLRS25cLLxFTYXJllBcJ-19" value="" style="endArrow=none;html=1;rounded=0;exitX=1;exitY=0.5;exitDx=0;exitDy=0;entryX=0;entryY=1;entryDx=0;entryDy=0;" parent="1" source="HLRS25cLLxFTYXJllBcJ-8" target="HLRS25cLLxFTYXJllBcJ-1" edge="1">
          <mxGeometry width="50" height="50" relative="1" as="geometry">
            <mxPoint x="254" y="526" as="sourcePoint" />
            <mxPoint x="420" y="170" as="targetPoint" />
          </mxGeometry>
        </mxCell>
        <mxCell id="HLRS25cLLxFTYXJllBcJ-65" value="&lt;font style=&quot;font-size: 18px;&quot;&gt;4&lt;/font&gt;" style="edgeLabel;html=1;align=center;verticalAlign=middle;resizable=0;points=[];" parent="HLRS25cLLxFTYXJllBcJ-19" vertex="1" connectable="0">
          <mxGeometry x="-0.4362" y="2" relative="1" as="geometry">
            <mxPoint x="1" y="-1" as="offset" />
          </mxGeometry>
        </mxCell>
        <mxCell id="HLRS25cLLxFTYXJllBcJ-20" value="" style="endArrow=none;html=1;rounded=0;entryX=0;entryY=0.5;entryDx=0;entryDy=0;exitX=1;exitY=0.5;exitDx=0;exitDy=0;" parent="1" source="HLRS25cLLxFTYXJllBcJ-11" target="HLRS25cLLxFTYXJllBcJ-1" edge="1">
          <mxGeometry width="50" height="50" relative="1" as="geometry">
            <mxPoint x="170" y="370" as="sourcePoint" />
            <mxPoint x="406" y="164" as="targetPoint" />
          </mxGeometry>
        </mxCell>
        <mxCell id="HLRS25cLLxFTYXJllBcJ-66" value="&lt;font style=&quot;font-size: 18px;&quot;&gt;1&lt;/font&gt;" style="edgeLabel;html=1;align=center;verticalAlign=middle;resizable=0;points=[];" parent="HLRS25cLLxFTYXJllBcJ-20" vertex="1" connectable="0">
          <mxGeometry x="0.6297" y="-1" relative="1" as="geometry">
            <mxPoint as="offset" />
          </mxGeometry>
        </mxCell>
        <mxCell id="HLRS25cLLxFTYXJllBcJ-21" value="" style="endArrow=none;html=1;rounded=0;exitX=1;exitY=0.5;exitDx=0;exitDy=0;entryX=0;entryY=0.5;entryDx=0;entryDy=0;" parent="1" source="HLRS25cLLxFTYXJllBcJ-12" target="HLRS25cLLxFTYXJllBcJ-1" edge="1">
          <mxGeometry width="50" height="50" relative="1" as="geometry">
            <mxPoint x="254" y="276" as="sourcePoint" />
            <mxPoint x="400" y="150" as="targetPoint" />
          </mxGeometry>
        </mxCell>
        <mxCell id="HLRS25cLLxFTYXJllBcJ-67" value="&lt;span style=&quot;font-size: 18px;&quot;&gt;2&lt;/span&gt;" style="edgeLabel;html=1;align=center;verticalAlign=middle;resizable=0;points=[];" parent="HLRS25cLLxFTYXJllBcJ-21" vertex="1" connectable="0">
          <mxGeometry x="0.7631" y="4" relative="1" as="geometry">
            <mxPoint as="offset" />
          </mxGeometry>
        </mxCell>
        <mxCell id="HLRS25cLLxFTYXJllBcJ-23" value="" style="endArrow=none;html=1;rounded=0;entryX=0.5;entryY=1;entryDx=0;entryDy=0;exitX=0.5;exitY=0;exitDx=0;exitDy=0;" parent="1" source="HLRS25cLLxFTYXJllBcJ-3" target="HLRS25cLLxFTYXJllBcJ-2" edge="1">
          <mxGeometry width="50" height="50" relative="1" as="geometry">
            <mxPoint x="610" y="410" as="sourcePoint" />
            <mxPoint x="434" y="164" as="targetPoint" />
          </mxGeometry>
        </mxCell>
        <mxCell id="HLRS25cLLxFTYXJllBcJ-68" value="&lt;font style=&quot;font-size: 18px;&quot;&gt;1&lt;/font&gt;" style="edgeLabel;html=1;align=center;verticalAlign=middle;resizable=0;points=[];" parent="HLRS25cLLxFTYXJllBcJ-23" vertex="1" connectable="0">
          <mxGeometry x="0.1985" y="2" relative="1" as="geometry">
            <mxPoint as="offset" />
          </mxGeometry>
        </mxCell>
        <mxCell id="HLRS25cLLxFTYXJllBcJ-24" value="" style="endArrow=none;html=1;rounded=0;entryX=0;entryY=1;entryDx=0;entryDy=0;exitX=1;exitY=0;exitDx=0;exitDy=0;" parent="1" source="HLRS25cLLxFTYXJllBcJ-4" target="HLRS25cLLxFTYXJllBcJ-2" edge="1">
          <mxGeometry width="50" height="50" relative="1" as="geometry">
            <mxPoint x="620" y="270" as="sourcePoint" />
            <mxPoint x="620" y="170" as="targetPoint" />
          </mxGeometry>
        </mxCell>
        <mxCell id="HLRS25cLLxFTYXJllBcJ-69" value="&lt;font style=&quot;font-size: 18px;&quot;&gt;3&lt;/font&gt;" style="edgeLabel;html=1;align=center;verticalAlign=middle;resizable=0;points=[];" parent="HLRS25cLLxFTYXJllBcJ-24" vertex="1" connectable="0">
          <mxGeometry x="0.8005" y="2" relative="1" as="geometry">
            <mxPoint x="-1" as="offset" />
          </mxGeometry>
        </mxCell>
        <mxCell id="HLRS25cLLxFTYXJllBcJ-25" value="" style="endArrow=none;html=1;rounded=0;entryX=0.5;entryY=0;entryDx=0;entryDy=0;exitX=0.5;exitY=1;exitDx=0;exitDy=0;" parent="1" source="HLRS25cLLxFTYXJllBcJ-5" target="HLRS25cLLxFTYXJllBcJ-2" edge="1">
          <mxGeometry width="50" height="50" relative="1" as="geometry">
            <mxPoint x="534" y="276" as="sourcePoint" />
            <mxPoint x="606" y="164" as="targetPoint" />
          </mxGeometry>
        </mxCell>
        <mxCell id="HLRS25cLLxFTYXJllBcJ-76" value="&lt;font style=&quot;font-size: 18px;&quot;&gt;2&lt;/font&gt;" style="edgeLabel;html=1;align=center;verticalAlign=middle;resizable=0;points=[];" parent="HLRS25cLLxFTYXJllBcJ-25" vertex="1" connectable="0">
          <mxGeometry x="0.1723" y="-3" relative="1" as="geometry">
            <mxPoint as="offset" />
          </mxGeometry>
        </mxCell>
        <mxCell id="HLRS25cLLxFTYXJllBcJ-26" value="" style="endArrow=none;html=1;rounded=0;entryX=1;entryY=1;entryDx=0;entryDy=0;exitX=0;exitY=0;exitDx=0;exitDy=0;" parent="1" source="HLRS25cLLxFTYXJllBcJ-2" target="HLRS25cLLxFTYXJllBcJ-6" edge="1">
          <mxGeometry width="50" height="50" relative="1" as="geometry">
            <mxPoint x="880" y="270" as="sourcePoint" />
            <mxPoint x="606" y="164" as="targetPoint" />
          </mxGeometry>
        </mxCell>
        <mxCell id="HLRS25cLLxFTYXJllBcJ-77" value="&lt;font style=&quot;font-size: 18px;&quot;&gt;3&lt;/font&gt;" style="edgeLabel;html=1;align=center;verticalAlign=middle;resizable=0;points=[];" parent="HLRS25cLLxFTYXJllBcJ-26" vertex="1" connectable="0">
          <mxGeometry x="-0.2002" relative="1" as="geometry">
            <mxPoint y="-1" as="offset" />
          </mxGeometry>
        </mxCell>
        <mxCell id="HLRS25cLLxFTYXJllBcJ-27" value="" style="endArrow=none;html=1;rounded=0;entryX=0;entryY=0;entryDx=0;entryDy=0;exitX=1;exitY=1;exitDx=0;exitDy=0;" parent="1" source="HLRS25cLLxFTYXJllBcJ-7" target="HLRS25cLLxFTYXJllBcJ-2" edge="1">
          <mxGeometry width="50" height="50" relative="1" as="geometry">
            <mxPoint x="434" y="296" as="sourcePoint" />
            <mxPoint x="606" y="164" as="targetPoint" />
          </mxGeometry>
        </mxCell>
        <mxCell id="HLRS25cLLxFTYXJllBcJ-78" value="&lt;font style=&quot;font-size: 18px;&quot;&gt;4&lt;/font&gt;" style="edgeLabel;html=1;align=center;verticalAlign=middle;resizable=0;points=[];" parent="HLRS25cLLxFTYXJllBcJ-27" vertex="1" connectable="0">
          <mxGeometry x="0.1888" y="1" relative="1" as="geometry">
            <mxPoint x="-1" y="-1" as="offset" />
          </mxGeometry>
        </mxCell>
        <mxCell id="HLRS25cLLxFTYXJllBcJ-29" value="" style="endArrow=none;html=1;rounded=0;exitX=1;exitY=0.5;exitDx=0;exitDy=0;entryX=0;entryY=1;entryDx=0;entryDy=0;" parent="1" source="HLRS25cLLxFTYXJllBcJ-8" target="HLRS25cLLxFTYXJllBcJ-2" edge="1">
          <mxGeometry width="50" height="50" relative="1" as="geometry">
            <mxPoint x="434" y="296" as="sourcePoint" />
            <mxPoint x="560" y="260" as="targetPoint" />
          </mxGeometry>
        </mxCell>
        <mxCell id="HLRS25cLLxFTYXJllBcJ-79" value="&lt;font style=&quot;font-size: 18px;&quot;&gt;4&lt;/font&gt;" style="edgeLabel;html=1;align=center;verticalAlign=middle;resizable=0;points=[];" parent="HLRS25cLLxFTYXJllBcJ-29" vertex="1" connectable="0">
          <mxGeometry x="0.7071" relative="1" as="geometry">
            <mxPoint as="offset" />
          </mxGeometry>
        </mxCell>
        <mxCell id="HLRS25cLLxFTYXJllBcJ-30" value="" style="endArrow=none;html=1;rounded=0;exitX=1;exitY=0.5;exitDx=0;exitDy=0;entryX=0;entryY=0.5;entryDx=0;entryDy=0;" parent="1" source="HLRS25cLLxFTYXJllBcJ-12" target="HLRS25cLLxFTYXJllBcJ-2" edge="1">
          <mxGeometry width="50" height="50" relative="1" as="geometry">
            <mxPoint x="280" y="290" as="sourcePoint" />
            <mxPoint x="540" y="120" as="targetPoint" />
          </mxGeometry>
        </mxCell>
        <mxCell id="HLRS25cLLxFTYXJllBcJ-80" value="&lt;font style=&quot;font-size: 18px;&quot;&gt;2&lt;/font&gt;" style="edgeLabel;html=1;align=center;verticalAlign=middle;resizable=0;points=[];" parent="HLRS25cLLxFTYXJllBcJ-30" vertex="1" connectable="0">
          <mxGeometry x="0.6429" y="3" relative="1" as="geometry">
            <mxPoint x="1" as="offset" />
          </mxGeometry>
        </mxCell>
        <mxCell id="HLRS25cLLxFTYXJllBcJ-32" value="" style="endArrow=none;html=1;rounded=0;exitX=1;exitY=0.5;exitDx=0;exitDy=0;entryX=0;entryY=0.5;entryDx=0;entryDy=0;" parent="1" source="HLRS25cLLxFTYXJllBcJ-4" target="HLRS25cLLxFTYXJllBcJ-3" edge="1">
          <mxGeometry width="50" height="50" relative="1" as="geometry">
            <mxPoint x="420" y="170" as="sourcePoint" />
            <mxPoint x="540" y="300" as="targetPoint" />
          </mxGeometry>
        </mxCell>
        <mxCell id="HLRS25cLLxFTYXJllBcJ-59" value="&lt;font style=&quot;font-size: 18px;&quot;&gt;3&lt;/font&gt;" style="edgeLabel;html=1;align=center;verticalAlign=middle;resizable=0;points=[];" parent="HLRS25cLLxFTYXJllBcJ-32" vertex="1" connectable="0">
          <mxGeometry x="0.1795" relative="1" as="geometry">
            <mxPoint x="-38" y="5" as="offset" />
          </mxGeometry>
        </mxCell>
        <mxCell id="HLRS25cLLxFTYXJllBcJ-35" value="" style="endArrow=none;html=1;rounded=0;entryX=0;entryY=0;entryDx=0;entryDy=0;exitX=0.5;exitY=1;exitDx=0;exitDy=0;" parent="1" source="HLRS25cLLxFTYXJllBcJ-5" target="HLRS25cLLxFTYXJllBcJ-3" edge="1">
          <mxGeometry width="50" height="50" relative="1" as="geometry">
            <mxPoint x="750" y="550" as="sourcePoint" />
            <mxPoint x="840" y="360" as="targetPoint" />
          </mxGeometry>
        </mxCell>
        <mxCell id="HLRS25cLLxFTYXJllBcJ-70" value="&lt;font style=&quot;font-size: 18px;&quot;&gt;2&lt;/font&gt;" style="edgeLabel;html=1;align=center;verticalAlign=middle;resizable=0;points=[];" parent="HLRS25cLLxFTYXJllBcJ-35" vertex="1" connectable="0">
          <mxGeometry x="0.7079" relative="1" as="geometry">
            <mxPoint y="-1" as="offset" />
          </mxGeometry>
        </mxCell>
        <mxCell id="HLRS25cLLxFTYXJllBcJ-36" value="" style="endArrow=none;html=1;rounded=0;exitX=1;exitY=1;exitDx=0;exitDy=0;entryX=0;entryY=0;entryDx=0;entryDy=0;" parent="1" source="HLRS25cLLxFTYXJllBcJ-6" target="HLRS25cLLxFTYXJllBcJ-3" edge="1">
          <mxGeometry width="50" height="50" relative="1" as="geometry">
            <mxPoint x="780" y="90" as="sourcePoint" />
            <mxPoint x="700" y="520" as="targetPoint" />
          </mxGeometry>
        </mxCell>
        <mxCell id="HLRS25cLLxFTYXJllBcJ-71" value="&lt;font style=&quot;font-size: 18px;&quot;&gt;3&lt;/font&gt;" style="edgeLabel;html=1;align=center;verticalAlign=middle;resizable=0;points=[];" parent="HLRS25cLLxFTYXJllBcJ-36" vertex="1" connectable="0">
          <mxGeometry x="0.6998" y="1" relative="1" as="geometry">
            <mxPoint as="offset" />
          </mxGeometry>
        </mxCell>
        <mxCell id="HLRS25cLLxFTYXJllBcJ-37" value="" style="endArrow=none;html=1;rounded=0;exitX=1;exitY=1;exitDx=0;exitDy=0;entryX=0;entryY=0;entryDx=0;entryDy=0;" parent="1" source="HLRS25cLLxFTYXJllBcJ-7" target="HLRS25cLLxFTYXJllBcJ-3" edge="1">
          <mxGeometry width="50" height="50" relative="1" as="geometry">
            <mxPoint x="524" y="84" as="sourcePoint" />
            <mxPoint x="660" y="480" as="targetPoint" />
          </mxGeometry>
        </mxCell>
        <mxCell id="HLRS25cLLxFTYXJllBcJ-72" value="&lt;font style=&quot;font-size: 18px;&quot;&gt;4&lt;/font&gt;" style="edgeLabel;html=1;align=center;verticalAlign=middle;resizable=0;points=[];" parent="HLRS25cLLxFTYXJllBcJ-37" vertex="1" connectable="0">
          <mxGeometry x="0.5453" y="1" relative="1" as="geometry">
            <mxPoint as="offset" />
          </mxGeometry>
        </mxCell>
        <mxCell id="HLRS25cLLxFTYXJllBcJ-38" value="" style="endArrow=none;html=1;rounded=0;exitX=1;exitY=0.5;exitDx=0;exitDy=0;entryX=0;entryY=0.5;entryDx=0;entryDy=0;" parent="1" source="HLRS25cLLxFTYXJllBcJ-8" target="HLRS25cLLxFTYXJllBcJ-3" edge="1">
          <mxGeometry width="50" height="50" relative="1" as="geometry">
            <mxPoint x="284" y="104" as="sourcePoint" />
            <mxPoint x="700" y="640" as="targetPoint" />
          </mxGeometry>
        </mxCell>
        <mxCell id="HLRS25cLLxFTYXJllBcJ-73" value="&lt;font style=&quot;font-size: 18px;&quot;&gt;4&lt;/font&gt;" style="edgeLabel;html=1;align=center;verticalAlign=middle;resizable=0;points=[];" parent="HLRS25cLLxFTYXJllBcJ-38" vertex="1" connectable="0">
          <mxGeometry x="0.67" y="2" relative="1" as="geometry">
            <mxPoint as="offset" />
          </mxGeometry>
        </mxCell>
        <mxCell id="HLRS25cLLxFTYXJllBcJ-39" value="" style="endArrow=none;html=1;rounded=0;exitX=1;exitY=1;exitDx=0;exitDy=0;entryX=0;entryY=0.5;entryDx=0;entryDy=0;" parent="1" source="HLRS25cLLxFTYXJllBcJ-11" target="HLRS25cLLxFTYXJllBcJ-3" edge="1">
          <mxGeometry width="50" height="50" relative="1" as="geometry">
            <mxPoint x="420" y="380" as="sourcePoint" />
            <mxPoint x="650" y="650" as="targetPoint" />
          </mxGeometry>
        </mxCell>
        <mxCell id="HLRS25cLLxFTYXJllBcJ-74" value="&lt;font style=&quot;font-size: 18px;&quot;&gt;1&lt;/font&gt;" style="edgeLabel;html=1;align=center;verticalAlign=middle;resizable=0;points=[];" parent="HLRS25cLLxFTYXJllBcJ-39" vertex="1" connectable="0">
          <mxGeometry x="0.6417" relative="1" as="geometry">
            <mxPoint as="offset" />
          </mxGeometry>
        </mxCell>
        <mxCell id="HLRS25cLLxFTYXJllBcJ-40" value="" style="endArrow=none;html=1;rounded=0;entryX=0;entryY=0.5;entryDx=0;entryDy=0;exitX=1;exitY=1;exitDx=0;exitDy=0;" parent="1" source="HLRS25cLLxFTYXJllBcJ-12" target="HLRS25cLLxFTYXJllBcJ-3" edge="1">
          <mxGeometry width="50" height="50" relative="1" as="geometry">
            <mxPoint x="40" y="220" as="sourcePoint" />
            <mxPoint x="690" y="520" as="targetPoint" />
          </mxGeometry>
        </mxCell>
        <mxCell id="HLRS25cLLxFTYXJllBcJ-75" value="&lt;font style=&quot;font-size: 18px;&quot;&gt;3&lt;/font&gt;" style="edgeLabel;html=1;align=center;verticalAlign=middle;resizable=0;points=[];" parent="HLRS25cLLxFTYXJllBcJ-40" vertex="1" connectable="0">
          <mxGeometry x="0.4904" y="3" relative="1" as="geometry">
            <mxPoint x="1" as="offset" />
          </mxGeometry>
        </mxCell>
        <mxCell id="HLRS25cLLxFTYXJllBcJ-41" value="" style="endArrow=none;html=1;rounded=0;exitX=1;exitY=0;exitDx=0;exitDy=0;entryX=0;entryY=1;entryDx=0;entryDy=0;" parent="1" source="HLRS25cLLxFTYXJllBcJ-4" target="HLRS25cLLxFTYXJllBcJ-5" edge="1">
          <mxGeometry width="50" height="50" relative="1" as="geometry">
            <mxPoint x="440" y="610" as="sourcePoint" />
            <mxPoint x="730" y="570" as="targetPoint" />
          </mxGeometry>
        </mxCell>
        <mxCell id="HLRS25cLLxFTYXJllBcJ-81" value="&lt;font style=&quot;font-size: 18px;&quot;&gt;1&lt;/font&gt;" style="edgeLabel;html=1;align=center;verticalAlign=middle;resizable=0;points=[];" parent="HLRS25cLLxFTYXJllBcJ-41" vertex="1" connectable="0">
          <mxGeometry x="-0.6063" relative="1" as="geometry">
            <mxPoint x="1" as="offset" />
          </mxGeometry>
        </mxCell>
        <mxCell id="HLRS25cLLxFTYXJllBcJ-42" value="" style="endArrow=none;html=1;rounded=0;entryX=0.5;entryY=1;entryDx=0;entryDy=0;exitX=0;exitY=0;exitDx=0;exitDy=0;" parent="1" source="HLRS25cLLxFTYXJllBcJ-4" target="HLRS25cLLxFTYXJllBcJ-7" edge="1">
          <mxGeometry width="50" height="50" relative="1" as="geometry">
            <mxPoint x="300" y="590" as="sourcePoint" />
            <mxPoint x="766" y="84" as="targetPoint" />
          </mxGeometry>
        </mxCell>
        <mxCell id="HLRS25cLLxFTYXJllBcJ-84" value="&lt;font style=&quot;font-size: 18px;&quot;&gt;2&lt;/font&gt;" style="edgeLabel;html=1;align=center;verticalAlign=middle;resizable=0;points=[];" parent="HLRS25cLLxFTYXJllBcJ-42" vertex="1" connectable="0">
          <mxGeometry x="-0.5269" relative="1" as="geometry">
            <mxPoint as="offset" />
          </mxGeometry>
        </mxCell>
        <mxCell id="HLRS25cLLxFTYXJllBcJ-43" value="" style="endArrow=none;html=1;rounded=0;entryX=1;entryY=1;entryDx=0;entryDy=0;exitX=0;exitY=0.5;exitDx=0;exitDy=0;" parent="1" source="HLRS25cLLxFTYXJllBcJ-4" target="HLRS25cLLxFTYXJllBcJ-8" edge="1">
          <mxGeometry width="50" height="50" relative="1" as="geometry">
            <mxPoint x="320" y="630" as="sourcePoint" />
            <mxPoint x="270" y="110" as="targetPoint" />
          </mxGeometry>
        </mxCell>
        <mxCell id="HLRS25cLLxFTYXJllBcJ-85" value="&lt;font style=&quot;font-size: 18px;&quot;&gt;2&lt;/font&gt;" style="edgeLabel;html=1;align=center;verticalAlign=middle;resizable=0;points=[];" parent="HLRS25cLLxFTYXJllBcJ-43" vertex="1" connectable="0">
          <mxGeometry x="-0.1074" y="-2" relative="1" as="geometry">
            <mxPoint as="offset" />
          </mxGeometry>
        </mxCell>
        <mxCell id="HLRS25cLLxFTYXJllBcJ-44" value="" style="endArrow=none;html=1;rounded=0;entryX=0.5;entryY=1;entryDx=0;entryDy=0;exitX=0;exitY=0.5;exitDx=0;exitDy=0;" parent="1" source="HLRS25cLLxFTYXJllBcJ-4" target="HLRS25cLLxFTYXJllBcJ-11" edge="1">
          <mxGeometry width="50" height="50" relative="1" as="geometry">
            <mxPoint x="400" y="610" as="sourcePoint" />
            <mxPoint x="164" y="584" as="targetPoint" />
          </mxGeometry>
        </mxCell>
        <mxCell id="HLRS25cLLxFTYXJllBcJ-86" value="&lt;font style=&quot;font-size: 18px;&quot;&gt;3&lt;/font&gt;" style="edgeLabel;html=1;align=center;verticalAlign=middle;resizable=0;points=[];" parent="HLRS25cLLxFTYXJllBcJ-44" vertex="1" connectable="0">
          <mxGeometry x="0.1261" y="3" relative="1" as="geometry">
            <mxPoint as="offset" />
          </mxGeometry>
        </mxCell>
        <mxCell id="HLRS25cLLxFTYXJllBcJ-45" value="" style="endArrow=none;html=1;rounded=0;entryX=1;entryY=1;entryDx=0;entryDy=0;exitX=0;exitY=0;exitDx=0;exitDy=0;" parent="1" source="HLRS25cLLxFTYXJllBcJ-4" target="HLRS25cLLxFTYXJllBcJ-12" edge="1">
          <mxGeometry width="50" height="50" relative="1" as="geometry">
            <mxPoint x="380" y="650" as="sourcePoint" />
            <mxPoint x="60" y="410" as="targetPoint" />
          </mxGeometry>
        </mxCell>
        <mxCell id="HLRS25cLLxFTYXJllBcJ-87" value="&lt;font style=&quot;font-size: 18px;&quot;&gt;1&lt;/font&gt;" style="edgeLabel;html=1;align=center;verticalAlign=middle;resizable=0;points=[];" parent="HLRS25cLLxFTYXJllBcJ-45" vertex="1" connectable="0">
          <mxGeometry x="-0.7178" y="-6" relative="1" as="geometry">
            <mxPoint y="1" as="offset" />
          </mxGeometry>
        </mxCell>
        <mxCell id="HLRS25cLLxFTYXJllBcJ-46" value="" style="endArrow=none;html=1;rounded=0;entryX=1;entryY=0.5;entryDx=0;entryDy=0;exitX=0;exitY=0.5;exitDx=0;exitDy=0;" parent="1" source="HLRS25cLLxFTYXJllBcJ-5" target="HLRS25cLLxFTYXJllBcJ-6" edge="1">
          <mxGeometry width="50" height="50" relative="1" as="geometry">
            <mxPoint x="720" y="50" as="sourcePoint" />
            <mxPoint x="420" y="340" as="targetPoint" />
          </mxGeometry>
        </mxCell>
        <mxCell id="HLRS25cLLxFTYXJllBcJ-88" value="&lt;font style=&quot;font-size: 18px;&quot;&gt;1&lt;/font&gt;" style="edgeLabel;html=1;align=center;verticalAlign=middle;resizable=0;points=[];" parent="HLRS25cLLxFTYXJllBcJ-46" vertex="1" connectable="0">
          <mxGeometry x="-0.1528" relative="1" as="geometry">
            <mxPoint as="offset" />
          </mxGeometry>
        </mxCell>
        <mxCell id="HLRS25cLLxFTYXJllBcJ-47" value="" style="endArrow=none;html=1;rounded=0;entryX=0;entryY=0;entryDx=0;entryDy=0;exitX=1;exitY=0.5;exitDx=0;exitDy=0;" parent="1" source="HLRS25cLLxFTYXJllBcJ-7" target="HLRS25cLLxFTYXJllBcJ-5" edge="1">
          <mxGeometry width="50" height="50" relative="1" as="geometry">
            <mxPoint x="760" y="70" as="sourcePoint" />
            <mxPoint x="530" y="70" as="targetPoint" />
          </mxGeometry>
        </mxCell>
        <mxCell id="HLRS25cLLxFTYXJllBcJ-89" value="&lt;font style=&quot;font-size: 18px;&quot;&gt;2&lt;/font&gt;" style="edgeLabel;html=1;align=center;verticalAlign=middle;resizable=0;points=[];" parent="HLRS25cLLxFTYXJllBcJ-47" vertex="1" connectable="0">
          <mxGeometry x="0.1525" y="2" relative="1" as="geometry">
            <mxPoint as="offset" />
          </mxGeometry>
        </mxCell>
        <mxCell id="HLRS25cLLxFTYXJllBcJ-48" value="" style="endArrow=none;html=1;rounded=0;exitX=0;exitY=0.5;exitDx=0;exitDy=0;entryX=1;entryY=0;entryDx=0;entryDy=0;" parent="1" source="HLRS25cLLxFTYXJllBcJ-5" target="HLRS25cLLxFTYXJllBcJ-8" edge="1">
          <mxGeometry width="50" height="50" relative="1" as="geometry">
            <mxPoint x="434" y="596" as="sourcePoint" />
            <mxPoint x="766" y="84" as="targetPoint" />
          </mxGeometry>
        </mxCell>
        <mxCell id="HLRS25cLLxFTYXJllBcJ-90" value="&lt;font style=&quot;font-size: 18px;&quot;&gt;2&lt;/font&gt;" style="edgeLabel;html=1;align=center;verticalAlign=middle;resizable=0;points=[];" parent="HLRS25cLLxFTYXJllBcJ-48" vertex="1" connectable="0">
          <mxGeometry x="-0.363" y="2" relative="1" as="geometry">
            <mxPoint as="offset" />
          </mxGeometry>
        </mxCell>
        <mxCell id="HLRS25cLLxFTYXJllBcJ-49" value="" style="endArrow=none;html=1;rounded=0;exitX=0;exitY=0.5;exitDx=0;exitDy=0;entryX=1;entryY=0;entryDx=0;entryDy=0;" parent="1" source="HLRS25cLLxFTYXJllBcJ-5" target="HLRS25cLLxFTYXJllBcJ-11" edge="1">
          <mxGeometry width="50" height="50" relative="1" as="geometry">
            <mxPoint x="766" y="84" as="sourcePoint" />
            <mxPoint x="100" y="330" as="targetPoint" />
          </mxGeometry>
        </mxCell>
        <mxCell id="HLRS25cLLxFTYXJllBcJ-91" value="&lt;font style=&quot;font-size: 18px;&quot;&gt;2&lt;/font&gt;" style="edgeLabel;html=1;align=center;verticalAlign=middle;resizable=0;points=[];" parent="HLRS25cLLxFTYXJllBcJ-49" vertex="1" connectable="0">
          <mxGeometry x="0.0839" y="-2" relative="1" as="geometry">
            <mxPoint as="offset" />
          </mxGeometry>
        </mxCell>
        <mxCell id="HLRS25cLLxFTYXJllBcJ-50" value="" style="endArrow=none;html=1;rounded=0;exitX=0;exitY=0;exitDx=0;exitDy=0;entryX=1;entryY=1;entryDx=0;entryDy=0;" parent="1" source="HLRS25cLLxFTYXJllBcJ-6" target="HLRS25cLLxFTYXJllBcJ-7" edge="1">
          <mxGeometry width="50" height="50" relative="1" as="geometry">
            <mxPoint x="820" y="340" as="sourcePoint" />
            <mxPoint x="340" y="-100" as="targetPoint" />
          </mxGeometry>
        </mxCell>
        <mxCell id="HLRS25cLLxFTYXJllBcJ-95" value="&lt;font style=&quot;font-size: 18px;&quot;&gt;1&lt;/font&gt;" style="edgeLabel;html=1;align=center;verticalAlign=middle;resizable=0;points=[];" parent="HLRS25cLLxFTYXJllBcJ-50" vertex="1" connectable="0">
          <mxGeometry x="-0.1132" y="4" relative="1" as="geometry">
            <mxPoint x="-1" as="offset" />
          </mxGeometry>
        </mxCell>
        <mxCell id="HLRS25cLLxFTYXJllBcJ-51" value="" style="endArrow=none;html=1;rounded=0;entryX=0;entryY=1;entryDx=0;entryDy=0;exitX=0.5;exitY=0;exitDx=0;exitDy=0;" parent="1" source="HLRS25cLLxFTYXJllBcJ-8" target="HLRS25cLLxFTYXJllBcJ-6" edge="1">
          <mxGeometry width="50" height="50" relative="1" as="geometry">
            <mxPoint x="10" y="490" as="sourcePoint" />
            <mxPoint x="280" y="10" as="targetPoint" />
          </mxGeometry>
        </mxCell>
        <mxCell id="HLRS25cLLxFTYXJllBcJ-92" value="&lt;font style=&quot;font-size: 18px;&quot;&gt;1&lt;/font&gt;" style="edgeLabel;html=1;align=center;verticalAlign=middle;resizable=0;points=[];" parent="HLRS25cLLxFTYXJllBcJ-51" vertex="1" connectable="0">
          <mxGeometry x="0.6803" relative="1" as="geometry">
            <mxPoint as="offset" />
          </mxGeometry>
        </mxCell>
        <mxCell id="HLRS25cLLxFTYXJllBcJ-52" value="" style="endArrow=none;html=1;rounded=0;entryX=0;entryY=0.5;entryDx=0;entryDy=0;exitX=0.5;exitY=0;exitDx=0;exitDy=0;" parent="1" source="HLRS25cLLxFTYXJllBcJ-11" target="HLRS25cLLxFTYXJllBcJ-6" edge="1">
          <mxGeometry width="50" height="50" relative="1" as="geometry">
            <mxPoint x="70" y="530" as="sourcePoint" />
            <mxPoint x="496" y="94" as="targetPoint" />
          </mxGeometry>
        </mxCell>
        <mxCell id="HLRS25cLLxFTYXJllBcJ-93" value="&lt;font style=&quot;font-size: 18px;&quot;&gt;3&lt;/font&gt;" style="edgeLabel;html=1;align=center;verticalAlign=middle;resizable=0;points=[];" parent="HLRS25cLLxFTYXJllBcJ-52" vertex="1" connectable="0">
          <mxGeometry x="0.1049" y="1" relative="1" as="geometry">
            <mxPoint as="offset" />
          </mxGeometry>
        </mxCell>
        <mxCell id="HLRS25cLLxFTYXJllBcJ-53" value="" style="endArrow=none;html=1;rounded=0;entryX=1;entryY=0;entryDx=0;entryDy=0;exitX=0;exitY=0.5;exitDx=0;exitDy=0;" parent="1" source="HLRS25cLLxFTYXJllBcJ-6" target="HLRS25cLLxFTYXJllBcJ-12" edge="1">
          <mxGeometry width="50" height="50" relative="1" as="geometry">
            <mxPoint x="60" y="370" as="sourcePoint" />
            <mxPoint x="490" y="80" as="targetPoint" />
          </mxGeometry>
        </mxCell>
        <mxCell id="HLRS25cLLxFTYXJllBcJ-94" value="&lt;font style=&quot;font-size: 18px;&quot;&gt;1&lt;/font&gt;" style="edgeLabel;html=1;align=center;verticalAlign=middle;resizable=0;points=[];" parent="HLRS25cLLxFTYXJllBcJ-53" vertex="1" connectable="0">
          <mxGeometry x="-0.7553" y="-5" relative="1" as="geometry">
            <mxPoint as="offset" />
          </mxGeometry>
        </mxCell>
        <mxCell id="HLRS25cLLxFTYXJllBcJ-54" value="" style="endArrow=none;html=1;rounded=0;entryX=0;entryY=1;entryDx=0;entryDy=0;exitX=0.5;exitY=0;exitDx=0;exitDy=0;" parent="1" source="HLRS25cLLxFTYXJllBcJ-11" target="HLRS25cLLxFTYXJllBcJ-7" edge="1">
          <mxGeometry width="50" height="50" relative="1" as="geometry">
            <mxPoint x="406" y="596" as="sourcePoint" />
            <mxPoint x="280" y="10" as="targetPoint" />
          </mxGeometry>
        </mxCell>
        <mxCell id="HLRS25cLLxFTYXJllBcJ-96" value="&lt;font style=&quot;font-size: 18px;&quot;&gt;3&lt;/font&gt;" style="edgeLabel;html=1;align=center;verticalAlign=middle;resizable=0;points=[];" parent="HLRS25cLLxFTYXJllBcJ-54" vertex="1" connectable="0">
          <mxGeometry x="0.5893" y="1" relative="1" as="geometry">
            <mxPoint x="1" y="-1" as="offset" />
          </mxGeometry>
        </mxCell>
        <mxCell id="HLRS25cLLxFTYXJllBcJ-55" value="" style="endArrow=none;html=1;rounded=0;exitX=0.5;exitY=0;exitDx=0;exitDy=0;entryX=0;entryY=0.5;entryDx=0;entryDy=0;" parent="1" source="HLRS25cLLxFTYXJllBcJ-12" target="HLRS25cLLxFTYXJllBcJ-7" edge="1">
          <mxGeometry width="50" height="50" relative="1" as="geometry">
            <mxPoint x="60" y="370" as="sourcePoint" />
            <mxPoint x="120" y="4" as="targetPoint" />
          </mxGeometry>
        </mxCell>
        <mxCell id="HLRS25cLLxFTYXJllBcJ-97" value="&lt;font style=&quot;font-size: 18px;&quot;&gt;2&lt;/font&gt;" style="edgeLabel;html=1;align=center;verticalAlign=middle;resizable=0;points=[];" parent="HLRS25cLLxFTYXJllBcJ-55" vertex="1" connectable="0">
          <mxGeometry x="-0.1745" y="-6" relative="1" as="geometry">
            <mxPoint as="offset" />
          </mxGeometry>
        </mxCell>
        <mxCell id="HLRS25cLLxFTYXJllBcJ-56" value="" style="endArrow=none;html=1;rounded=0;entryX=0.5;entryY=0;entryDx=0;entryDy=0;exitX=0.5;exitY=1;exitDx=0;exitDy=0;" parent="1" source="HLRS25cLLxFTYXJllBcJ-11" target="HLRS25cLLxFTYXJllBcJ-8" edge="1">
          <mxGeometry width="50" height="50" relative="1" as="geometry">
            <mxPoint x="400" y="610" as="sourcePoint" />
            <mxPoint x="64" y="544" as="targetPoint" />
          </mxGeometry>
        </mxCell>
        <mxCell id="HLRS25cLLxFTYXJllBcJ-98" value="&lt;font style=&quot;font-size: 18px;&quot;&gt;3&lt;/font&gt;" style="edgeLabel;html=1;align=center;verticalAlign=middle;resizable=0;points=[];" parent="HLRS25cLLxFTYXJllBcJ-56" vertex="1" connectable="0">
          <mxGeometry x="-0.3115" y="-1" relative="1" as="geometry">
            <mxPoint as="offset" />
          </mxGeometry>
        </mxCell>
        <mxCell id="HLRS25cLLxFTYXJllBcJ-57" value="" style="endArrow=none;html=1;rounded=0;entryX=0;entryY=1;entryDx=0;entryDy=0;exitX=0.5;exitY=0;exitDx=0;exitDy=0;" parent="1" source="HLRS25cLLxFTYXJllBcJ-8" target="HLRS25cLLxFTYXJllBcJ-12" edge="1">
          <mxGeometry width="50" height="50" relative="1" as="geometry">
            <mxPoint x="60" y="410" as="sourcePoint" />
            <mxPoint x="50" y="510" as="targetPoint" />
          </mxGeometry>
        </mxCell>
        <mxCell id="HLRS25cLLxFTYXJllBcJ-99" value="&lt;font style=&quot;font-size: 18px;&quot;&gt;2&lt;/font&gt;" style="edgeLabel;html=1;align=center;verticalAlign=middle;resizable=0;points=[];" parent="HLRS25cLLxFTYXJllBcJ-57" vertex="1" connectable="0">
          <mxGeometry x="-0.1011" y="1" relative="1" as="geometry">
            <mxPoint y="-1" as="offset" />
          </mxGeometry>
        </mxCell>
        <mxCell id="HLRS25cLLxFTYXJllBcJ-58" value="" style="endArrow=none;html=1;rounded=0;exitX=0.5;exitY=0;exitDx=0;exitDy=0;entryX=0.5;entryY=1;entryDx=0;entryDy=0;" parent="1" source="HLRS25cLLxFTYXJllBcJ-11" target="HLRS25cLLxFTYXJllBcJ-12" edge="1">
          <mxGeometry width="50" height="50" relative="1" as="geometry">
            <mxPoint x="74" y="376" as="sourcePoint" />
            <mxPoint x="400" y="360" as="targetPoint" />
          </mxGeometry>
        </mxCell>
        <mxCell id="HLRS25cLLxFTYXJllBcJ-100" value="&lt;font style=&quot;font-size: 18px;&quot;&gt;2&lt;/font&gt;" style="edgeLabel;html=1;align=center;verticalAlign=middle;resizable=0;points=[];" parent="HLRS25cLLxFTYXJllBcJ-58" vertex="1" connectable="0">
          <mxGeometry x="-0.1893" y="2" relative="1" as="geometry">
            <mxPoint y="1" as="offset" />
          </mxGeometry>
        </mxCell>
      </root>
    </mxGraphModel>
  </diagram>
  <diagram id="3XRwKTYbYLFSuB9Gb2oQ" name="layout_penempatan_barang">
    <mxGraphModel dx="1222" dy="1774" grid="1" gridSize="10" guides="1" tooltips="1" connect="1" arrows="1" fold="1" page="1" pageScale="1" pageWidth="850" pageHeight="1100" math="0" shadow="0">
      <root>
        <mxCell id="0" />
        <mxCell id="1" parent="0" />
        <mxCell id="GSr3GxzBRQJ8jzW9OCDe-1" value="" style="rounded=0;whiteSpace=wrap;html=1;" vertex="1" parent="1">
          <mxGeometry x="45" y="-160" width="760" height="440" as="geometry" />
        </mxCell>
        <mxCell id="GSr3GxzBRQJ8jzW9OCDe-2" value="Minuman" style="rounded=0;whiteSpace=wrap;html=1;fillColor=#d5e8d4;strokeColor=#82b366;" vertex="1" parent="1">
          <mxGeometry x="70" y="-125" width="80" height="375" as="geometry" />
        </mxCell>
        <mxCell id="GSr3GxzBRQJ8jzW9OCDe-3" value="Makanan" style="rounded=0;whiteSpace=wrap;html=1;fillColor=#f8cecc;strokeColor=#b85450;" vertex="1" parent="1">
          <mxGeometry x="210" y="-125" width="80" height="275" as="geometry" />
        </mxCell>
        <mxCell id="GSr3GxzBRQJ8jzW9OCDe-4" value="Produk Kecantikan" style="rounded=0;whiteSpace=wrap;html=1;fillColor=#fff2cc;strokeColor=#d6b656;" vertex="1" parent="1">
          <mxGeometry x="350" y="-125" width="80" height="275" as="geometry" />
        </mxCell>
        <mxCell id="GSr3GxzBRQJ8jzW9OCDe-5" value="Kebutuhan Rumah Tangga" style="rounded=0;whiteSpace=wrap;html=1;fillColor=#dae8fc;strokeColor=#6c8ebf;" vertex="1" parent="1">
          <mxGeometry x="500" y="-125" width="80" height="275" as="geometry" />
        </mxCell>
        <mxCell id="GSr3GxzBRQJ8jzW9OCDe-6" value="Obat-obatan" style="rounded=0;whiteSpace=wrap;html=1;fillColor=#e1d5e7;strokeColor=#9673a6;" vertex="1" parent="1">
          <mxGeometry x="700" y="-125" width="80" height="175" as="geometry" />
        </mxCell>
        <mxCell id="GSr3GxzBRQJ8jzW9OCDe-7" value="Kasir" style="rounded=0;whiteSpace=wrap;html=1;" vertex="1" parent="1">
          <mxGeometry x="690" y="90" width="80" height="175" as="geometry" />
        </mxCell>
      </root>
    </mxGraphModel>
  </diagram>
  <diagram id="v4CnEldwfGATyLNxUoCn" name="ABC">
    <mxGraphModel dx="2438" dy="1976" grid="1" gridSize="10" guides="1" tooltips="1" connect="1" arrows="1" fold="1" page="1" pageScale="1" pageWidth="850" pageHeight="1100" math="0" shadow="0">
      <root>
        <mxCell id="0" />
        <mxCell id="1" parent="0" />
        <mxCell id="C846lnyThOzNxmnj4Wv5-1" value="A" style="ellipse;whiteSpace=wrap;html=1;aspect=fixed;fillColor=#f8cecc;strokeColor=#b85450;" vertex="1" parent="1">
          <mxGeometry x="405" y="300" width="40" height="40" as="geometry" />
        </mxCell>
        <mxCell id="C846lnyThOzNxmnj4Wv5-2" value="B" style="ellipse;whiteSpace=wrap;html=1;aspect=fixed;fillColor=#d5e8d4;strokeColor=#82b366;" vertex="1" parent="1">
          <mxGeometry x="900" y="310" width="40" height="40" as="geometry" />
        </mxCell>
        <mxCell id="C846lnyThOzNxmnj4Wv5-3" value="C" style="ellipse;whiteSpace=wrap;html=1;aspect=fixed;fillColor=#f8cecc;strokeColor=#b85450;" vertex="1" parent="1">
          <mxGeometry x="800" y="580" width="40" height="40" as="geometry" />
        </mxCell>
        <mxCell id="C846lnyThOzNxmnj4Wv5-4" value="D" style="ellipse;whiteSpace=wrap;html=1;aspect=fixed;fillColor=#dae8fc;strokeColor=#6c8ebf;" vertex="1" parent="1">
          <mxGeometry x="420" y="710" width="40" height="40" as="geometry" />
        </mxCell>
        <mxCell id="C846lnyThOzNxmnj4Wv5-5" value="E" style="ellipse;whiteSpace=wrap;html=1;aspect=fixed;fillColor=#fff2cc;strokeColor=#d6b656;" vertex="1" parent="1">
          <mxGeometry x="790" y="-80" width="40" height="40" as="geometry" />
        </mxCell>
        <mxCell id="C846lnyThOzNxmnj4Wv5-6" value="F" style="ellipse;whiteSpace=wrap;html=1;aspect=fixed;fillColor=#dae8fc;strokeColor=#6c8ebf;" vertex="1" parent="1">
          <mxGeometry x="520" y="-30" width="40" height="40" as="geometry" />
        </mxCell>
        <mxCell id="C846lnyThOzNxmnj4Wv5-7" value="G" style="ellipse;whiteSpace=wrap;html=1;aspect=fixed;fillColor=#e1d5e7;strokeColor=#9673a6;" vertex="1" parent="1">
          <mxGeometry x="200" y="-100" width="40" height="40" as="geometry" />
        </mxCell>
        <mxCell id="C846lnyThOzNxmnj4Wv5-8" value="H" style="ellipse;whiteSpace=wrap;html=1;aspect=fixed;fillColor=#e1d5e7;strokeColor=#9673a6;" vertex="1" parent="1">
          <mxGeometry x="-80" y="560" width="40" height="40" as="geometry" />
        </mxCell>
        <mxCell id="C846lnyThOzNxmnj4Wv5-9" value="I" style="ellipse;whiteSpace=wrap;html=1;aspect=fixed;fillColor=#d5e8d4;strokeColor=#82b366;" vertex="1" parent="1">
          <mxGeometry x="30" y="350" width="40" height="40" as="geometry" />
        </mxCell>
        <mxCell id="C846lnyThOzNxmnj4Wv5-10" value="J" style="ellipse;whiteSpace=wrap;html=1;aspect=fixed;fillColor=#fff2cc;strokeColor=#d6b656;" vertex="1" parent="1">
          <mxGeometry x="-110" y="140" width="40" height="40" as="geometry" />
        </mxCell>
        <mxCell id="C846lnyThOzNxmnj4Wv5-11" value="" style="endArrow=none;html=1;rounded=0;entryX=1;entryY=0.5;entryDx=0;entryDy=0;exitX=0;exitY=0.5;exitDx=0;exitDy=0;fillColor=#f8cecc;strokeColor=#b85450;strokeWidth=5;" edge="1" parent="1" source="C846lnyThOzNxmnj4Wv5-2" target="C846lnyThOzNxmnj4Wv5-1">
          <mxGeometry width="50" height="50" relative="1" as="geometry">
            <mxPoint x="470" y="320" as="sourcePoint" />
            <mxPoint x="520" y="270" as="targetPoint" />
          </mxGeometry>
        </mxCell>
        <mxCell id="C846lnyThOzNxmnj4Wv5-12" value="&lt;font style=&quot;font-size: 18px;&quot;&gt;1&lt;/font&gt;" style="edgeLabel;html=1;align=center;verticalAlign=middle;resizable=0;points=[];" vertex="1" connectable="0" parent="C846lnyThOzNxmnj4Wv5-11">
          <mxGeometry x="0.7059" y="-4" relative="1" as="geometry">
            <mxPoint as="offset" />
          </mxGeometry>
        </mxCell>
        <mxCell id="C846lnyThOzNxmnj4Wv5-13" value="" style="endArrow=none;html=1;rounded=0;exitX=0.5;exitY=0;exitDx=0;exitDy=0;entryX=0.5;entryY=1;entryDx=0;entryDy=0;" edge="1" parent="1" source="C846lnyThOzNxmnj4Wv5-4" target="C846lnyThOzNxmnj4Wv5-1">
          <mxGeometry width="50" height="50" relative="1" as="geometry">
            <mxPoint x="600" y="150" as="sourcePoint" />
            <mxPoint x="380" y="190" as="targetPoint" />
          </mxGeometry>
        </mxCell>
        <mxCell id="C846lnyThOzNxmnj4Wv5-14" value="&lt;font style=&quot;font-size: 18px;&quot;&gt;3&lt;/font&gt;" style="edgeLabel;html=1;align=center;verticalAlign=middle;resizable=0;points=[];" vertex="1" connectable="0" parent="C846lnyThOzNxmnj4Wv5-13">
          <mxGeometry x="0.7988" y="-1" relative="1" as="geometry">
            <mxPoint y="-1" as="offset" />
          </mxGeometry>
        </mxCell>
        <mxCell id="C846lnyThOzNxmnj4Wv5-15" value="" style="endArrow=none;html=1;rounded=0;entryX=0.5;entryY=0;entryDx=0;entryDy=0;exitX=0;exitY=1;exitDx=0;exitDy=0;" edge="1" parent="1" source="C846lnyThOzNxmnj4Wv5-5" target="C846lnyThOzNxmnj4Wv5-1">
          <mxGeometry width="50" height="50" relative="1" as="geometry">
            <mxPoint x="710" y="60" as="sourcePoint" />
            <mxPoint x="360" y="200" as="targetPoint" />
          </mxGeometry>
        </mxCell>
        <mxCell id="C846lnyThOzNxmnj4Wv5-16" value="&lt;font style=&quot;font-size: 18px;&quot;&gt;2&lt;/font&gt;" style="edgeLabel;html=1;align=center;verticalAlign=middle;resizable=0;points=[];" vertex="1" connectable="0" parent="C846lnyThOzNxmnj4Wv5-15">
          <mxGeometry x="0.3793" relative="1" as="geometry">
            <mxPoint y="-1" as="offset" />
          </mxGeometry>
        </mxCell>
        <mxCell id="C846lnyThOzNxmnj4Wv5-17" value="" style="endArrow=none;html=1;rounded=0;exitX=0.5;exitY=1;exitDx=0;exitDy=0;entryX=0.5;entryY=0;entryDx=0;entryDy=0;" edge="1" parent="1" source="C846lnyThOzNxmnj4Wv5-6" target="C846lnyThOzNxmnj4Wv5-1">
          <mxGeometry width="50" height="50" relative="1" as="geometry">
            <mxPoint x="610" y="540" as="sourcePoint" />
            <mxPoint x="450" y="120" as="targetPoint" />
          </mxGeometry>
        </mxCell>
        <mxCell id="C846lnyThOzNxmnj4Wv5-18" value="&lt;font style=&quot;font-size: 18px;&quot;&gt;3&lt;/font&gt;" style="edgeLabel;html=1;align=center;verticalAlign=middle;resizable=0;points=[];" vertex="1" connectable="0" parent="C846lnyThOzNxmnj4Wv5-17">
          <mxGeometry x="-0.7607" y="1" relative="1" as="geometry">
            <mxPoint as="offset" />
          </mxGeometry>
        </mxCell>
        <mxCell id="C846lnyThOzNxmnj4Wv5-19" value="" style="endArrow=none;html=1;rounded=0;entryX=0.5;entryY=0;entryDx=0;entryDy=0;exitX=0.5;exitY=1;exitDx=0;exitDy=0;" edge="1" parent="1" source="C846lnyThOzNxmnj4Wv5-7" target="C846lnyThOzNxmnj4Wv5-1">
          <mxGeometry width="50" height="50" relative="1" as="geometry">
            <mxPoint x="210" y="20" as="sourcePoint" />
            <mxPoint x="320" y="260" as="targetPoint" />
          </mxGeometry>
        </mxCell>
        <mxCell id="C846lnyThOzNxmnj4Wv5-20" value="&lt;font style=&quot;font-size: 18px;&quot;&gt;4&lt;/font&gt;" style="edgeLabel;html=1;align=center;verticalAlign=middle;resizable=0;points=[];" vertex="1" connectable="0" parent="C846lnyThOzNxmnj4Wv5-19">
          <mxGeometry x="-0.6894" y="2" relative="1" as="geometry">
            <mxPoint x="1" as="offset" />
          </mxGeometry>
        </mxCell>
        <mxCell id="C846lnyThOzNxmnj4Wv5-21" value="" style="endArrow=none;html=1;rounded=0;exitX=1;exitY=0.5;exitDx=0;exitDy=0;entryX=0;entryY=1;entryDx=0;entryDy=0;" edge="1" parent="1" source="C846lnyThOzNxmnj4Wv5-8" target="C846lnyThOzNxmnj4Wv5-1">
          <mxGeometry width="50" height="50" relative="1" as="geometry">
            <mxPoint x="254" y="526" as="sourcePoint" />
            <mxPoint x="420" y="170" as="targetPoint" />
          </mxGeometry>
        </mxCell>
        <mxCell id="C846lnyThOzNxmnj4Wv5-22" value="&lt;font style=&quot;font-size: 18px;&quot;&gt;4&lt;/font&gt;" style="edgeLabel;html=1;align=center;verticalAlign=middle;resizable=0;points=[];" vertex="1" connectable="0" parent="C846lnyThOzNxmnj4Wv5-21">
          <mxGeometry x="-0.4362" y="2" relative="1" as="geometry">
            <mxPoint x="1" y="-1" as="offset" />
          </mxGeometry>
        </mxCell>
        <mxCell id="C846lnyThOzNxmnj4Wv5-23" value="" style="endArrow=none;html=1;rounded=0;entryX=0;entryY=0.5;entryDx=0;entryDy=0;exitX=1;exitY=0.5;exitDx=0;exitDy=0;" edge="1" parent="1" source="C846lnyThOzNxmnj4Wv5-9" target="C846lnyThOzNxmnj4Wv5-1">
          <mxGeometry width="50" height="50" relative="1" as="geometry">
            <mxPoint x="170" y="370" as="sourcePoint" />
            <mxPoint x="406" y="164" as="targetPoint" />
          </mxGeometry>
        </mxCell>
        <mxCell id="C846lnyThOzNxmnj4Wv5-24" value="&lt;font style=&quot;font-size: 18px;&quot;&gt;1&lt;/font&gt;" style="edgeLabel;html=1;align=center;verticalAlign=middle;resizable=0;points=[];" vertex="1" connectable="0" parent="C846lnyThOzNxmnj4Wv5-23">
          <mxGeometry x="0.6297" y="-1" relative="1" as="geometry">
            <mxPoint as="offset" />
          </mxGeometry>
        </mxCell>
        <mxCell id="C846lnyThOzNxmnj4Wv5-25" value="" style="endArrow=none;html=1;rounded=0;exitX=1;exitY=0.5;exitDx=0;exitDy=0;entryX=0;entryY=0.5;entryDx=0;entryDy=0;" edge="1" parent="1" source="C846lnyThOzNxmnj4Wv5-10" target="C846lnyThOzNxmnj4Wv5-1">
          <mxGeometry width="50" height="50" relative="1" as="geometry">
            <mxPoint x="254" y="276" as="sourcePoint" />
            <mxPoint x="400" y="150" as="targetPoint" />
          </mxGeometry>
        </mxCell>
        <mxCell id="C846lnyThOzNxmnj4Wv5-26" value="&lt;span style=&quot;font-size: 18px;&quot;&gt;2&lt;/span&gt;" style="edgeLabel;html=1;align=center;verticalAlign=middle;resizable=0;points=[];" vertex="1" connectable="0" parent="C846lnyThOzNxmnj4Wv5-25">
          <mxGeometry x="0.7631" y="4" relative="1" as="geometry">
            <mxPoint as="offset" />
          </mxGeometry>
        </mxCell>
        <mxCell id="C846lnyThOzNxmnj4Wv5-27" value="" style="endArrow=none;html=1;rounded=0;entryX=0.5;entryY=1;entryDx=0;entryDy=0;exitX=0.5;exitY=0;exitDx=0;exitDy=0;fillColor=#d5e8d4;strokeColor=#82b366;strokeWidth=5;" edge="1" parent="1" source="C846lnyThOzNxmnj4Wv5-3" target="C846lnyThOzNxmnj4Wv5-2">
          <mxGeometry width="50" height="50" relative="1" as="geometry">
            <mxPoint x="610" y="410" as="sourcePoint" />
            <mxPoint x="434" y="164" as="targetPoint" />
          </mxGeometry>
        </mxCell>
        <mxCell id="C846lnyThOzNxmnj4Wv5-28" value="&lt;font style=&quot;font-size: 18px;&quot;&gt;1&lt;/font&gt;" style="edgeLabel;html=1;align=center;verticalAlign=middle;resizable=0;points=[];" vertex="1" connectable="0" parent="C846lnyThOzNxmnj4Wv5-27">
          <mxGeometry x="0.1985" y="2" relative="1" as="geometry">
            <mxPoint as="offset" />
          </mxGeometry>
        </mxCell>
        <mxCell id="C846lnyThOzNxmnj4Wv5-29" value="" style="endArrow=none;html=1;rounded=0;entryX=0;entryY=1;entryDx=0;entryDy=0;exitX=1;exitY=0;exitDx=0;exitDy=0;" edge="1" parent="1" source="C846lnyThOzNxmnj4Wv5-4" target="C846lnyThOzNxmnj4Wv5-2">
          <mxGeometry width="50" height="50" relative="1" as="geometry">
            <mxPoint x="620" y="270" as="sourcePoint" />
            <mxPoint x="620" y="170" as="targetPoint" />
          </mxGeometry>
        </mxCell>
        <mxCell id="C846lnyThOzNxmnj4Wv5-30" value="&lt;font style=&quot;font-size: 18px;&quot;&gt;3&lt;/font&gt;" style="edgeLabel;html=1;align=center;verticalAlign=middle;resizable=0;points=[];" vertex="1" connectable="0" parent="C846lnyThOzNxmnj4Wv5-29">
          <mxGeometry x="0.8005" y="2" relative="1" as="geometry">
            <mxPoint x="-1" as="offset" />
          </mxGeometry>
        </mxCell>
        <mxCell id="C846lnyThOzNxmnj4Wv5-31" value="" style="endArrow=none;html=1;rounded=0;entryX=0.5;entryY=0;entryDx=0;entryDy=0;exitX=0.5;exitY=1;exitDx=0;exitDy=0;" edge="1" parent="1" source="C846lnyThOzNxmnj4Wv5-5" target="C846lnyThOzNxmnj4Wv5-2">
          <mxGeometry width="50" height="50" relative="1" as="geometry">
            <mxPoint x="534" y="276" as="sourcePoint" />
            <mxPoint x="606" y="164" as="targetPoint" />
          </mxGeometry>
        </mxCell>
        <mxCell id="C846lnyThOzNxmnj4Wv5-32" value="&lt;font style=&quot;font-size: 18px;&quot;&gt;2&lt;/font&gt;" style="edgeLabel;html=1;align=center;verticalAlign=middle;resizable=0;points=[];" vertex="1" connectable="0" parent="C846lnyThOzNxmnj4Wv5-31">
          <mxGeometry x="0.1723" y="-3" relative="1" as="geometry">
            <mxPoint as="offset" />
          </mxGeometry>
        </mxCell>
        <mxCell id="C846lnyThOzNxmnj4Wv5-33" value="" style="endArrow=none;html=1;rounded=0;entryX=1;entryY=1;entryDx=0;entryDy=0;exitX=0;exitY=0;exitDx=0;exitDy=0;" edge="1" parent="1" source="C846lnyThOzNxmnj4Wv5-2" target="C846lnyThOzNxmnj4Wv5-6">
          <mxGeometry width="50" height="50" relative="1" as="geometry">
            <mxPoint x="880" y="270" as="sourcePoint" />
            <mxPoint x="606" y="164" as="targetPoint" />
          </mxGeometry>
        </mxCell>
        <mxCell id="C846lnyThOzNxmnj4Wv5-34" value="&lt;font style=&quot;font-size: 18px;&quot;&gt;3&lt;/font&gt;" style="edgeLabel;html=1;align=center;verticalAlign=middle;resizable=0;points=[];" vertex="1" connectable="0" parent="C846lnyThOzNxmnj4Wv5-33">
          <mxGeometry x="-0.2002" relative="1" as="geometry">
            <mxPoint y="-1" as="offset" />
          </mxGeometry>
        </mxCell>
        <mxCell id="C846lnyThOzNxmnj4Wv5-35" value="" style="endArrow=none;html=1;rounded=0;entryX=0;entryY=0;entryDx=0;entryDy=0;exitX=1;exitY=1;exitDx=0;exitDy=0;" edge="1" parent="1" source="C846lnyThOzNxmnj4Wv5-7" target="C846lnyThOzNxmnj4Wv5-2">
          <mxGeometry width="50" height="50" relative="1" as="geometry">
            <mxPoint x="434" y="296" as="sourcePoint" />
            <mxPoint x="606" y="164" as="targetPoint" />
          </mxGeometry>
        </mxCell>
        <mxCell id="C846lnyThOzNxmnj4Wv5-36" value="&lt;font style=&quot;font-size: 18px;&quot;&gt;4&lt;/font&gt;" style="edgeLabel;html=1;align=center;verticalAlign=middle;resizable=0;points=[];" vertex="1" connectable="0" parent="C846lnyThOzNxmnj4Wv5-35">
          <mxGeometry x="0.1888" y="1" relative="1" as="geometry">
            <mxPoint x="-1" y="-1" as="offset" />
          </mxGeometry>
        </mxCell>
        <mxCell id="C846lnyThOzNxmnj4Wv5-37" value="" style="endArrow=none;html=1;rounded=0;exitX=1;exitY=0.5;exitDx=0;exitDy=0;entryX=0;entryY=1;entryDx=0;entryDy=0;" edge="1" parent="1" source="C846lnyThOzNxmnj4Wv5-8" target="C846lnyThOzNxmnj4Wv5-2">
          <mxGeometry width="50" height="50" relative="1" as="geometry">
            <mxPoint x="434" y="296" as="sourcePoint" />
            <mxPoint x="560" y="260" as="targetPoint" />
          </mxGeometry>
        </mxCell>
        <mxCell id="C846lnyThOzNxmnj4Wv5-38" value="&lt;font style=&quot;font-size: 18px;&quot;&gt;4&lt;/font&gt;" style="edgeLabel;html=1;align=center;verticalAlign=middle;resizable=0;points=[];" vertex="1" connectable="0" parent="C846lnyThOzNxmnj4Wv5-37">
          <mxGeometry x="0.7071" relative="1" as="geometry">
            <mxPoint as="offset" />
          </mxGeometry>
        </mxCell>
        <mxCell id="C846lnyThOzNxmnj4Wv5-39" value="" style="endArrow=none;html=1;rounded=0;exitX=1;exitY=0.5;exitDx=0;exitDy=0;entryX=0;entryY=0.5;entryDx=0;entryDy=0;" edge="1" parent="1" source="C846lnyThOzNxmnj4Wv5-10" target="C846lnyThOzNxmnj4Wv5-2">
          <mxGeometry width="50" height="50" relative="1" as="geometry">
            <mxPoint x="280" y="290" as="sourcePoint" />
            <mxPoint x="540" y="120" as="targetPoint" />
          </mxGeometry>
        </mxCell>
        <mxCell id="C846lnyThOzNxmnj4Wv5-40" value="&lt;font style=&quot;font-size: 18px;&quot;&gt;2&lt;/font&gt;" style="edgeLabel;html=1;align=center;verticalAlign=middle;resizable=0;points=[];" vertex="1" connectable="0" parent="C846lnyThOzNxmnj4Wv5-39">
          <mxGeometry x="0.6429" y="3" relative="1" as="geometry">
            <mxPoint x="1" as="offset" />
          </mxGeometry>
        </mxCell>
        <mxCell id="C846lnyThOzNxmnj4Wv5-41" value="" style="endArrow=none;html=1;rounded=0;exitX=1;exitY=0.5;exitDx=0;exitDy=0;entryX=0;entryY=0.5;entryDx=0;entryDy=0;" edge="1" parent="1" source="C846lnyThOzNxmnj4Wv5-4" target="C846lnyThOzNxmnj4Wv5-3">
          <mxGeometry width="50" height="50" relative="1" as="geometry">
            <mxPoint x="420" y="170" as="sourcePoint" />
            <mxPoint x="540" y="300" as="targetPoint" />
          </mxGeometry>
        </mxCell>
        <mxCell id="C846lnyThOzNxmnj4Wv5-42" value="&lt;font style=&quot;font-size: 18px;&quot;&gt;3&lt;/font&gt;" style="edgeLabel;html=1;align=center;verticalAlign=middle;resizable=0;points=[];" vertex="1" connectable="0" parent="C846lnyThOzNxmnj4Wv5-41">
          <mxGeometry x="0.1795" relative="1" as="geometry">
            <mxPoint x="-38" y="5" as="offset" />
          </mxGeometry>
        </mxCell>
        <mxCell id="C846lnyThOzNxmnj4Wv5-43" value="" style="endArrow=none;html=1;rounded=0;entryX=0;entryY=0;entryDx=0;entryDy=0;exitX=0.5;exitY=1;exitDx=0;exitDy=0;" edge="1" parent="1" source="C846lnyThOzNxmnj4Wv5-5" target="C846lnyThOzNxmnj4Wv5-3">
          <mxGeometry width="50" height="50" relative="1" as="geometry">
            <mxPoint x="750" y="550" as="sourcePoint" />
            <mxPoint x="840" y="360" as="targetPoint" />
          </mxGeometry>
        </mxCell>
        <mxCell id="C846lnyThOzNxmnj4Wv5-44" value="&lt;font style=&quot;font-size: 18px;&quot;&gt;2&lt;/font&gt;" style="edgeLabel;html=1;align=center;verticalAlign=middle;resizable=0;points=[];" vertex="1" connectable="0" parent="C846lnyThOzNxmnj4Wv5-43">
          <mxGeometry x="0.7079" relative="1" as="geometry">
            <mxPoint y="-1" as="offset" />
          </mxGeometry>
        </mxCell>
        <mxCell id="C846lnyThOzNxmnj4Wv5-45" value="" style="endArrow=none;html=1;rounded=0;exitX=1;exitY=1;exitDx=0;exitDy=0;entryX=0;entryY=0;entryDx=0;entryDy=0;" edge="1" parent="1" source="C846lnyThOzNxmnj4Wv5-6" target="C846lnyThOzNxmnj4Wv5-3">
          <mxGeometry width="50" height="50" relative="1" as="geometry">
            <mxPoint x="780" y="90" as="sourcePoint" />
            <mxPoint x="700" y="520" as="targetPoint" />
          </mxGeometry>
        </mxCell>
        <mxCell id="C846lnyThOzNxmnj4Wv5-46" value="&lt;font style=&quot;font-size: 18px;&quot;&gt;3&lt;/font&gt;" style="edgeLabel;html=1;align=center;verticalAlign=middle;resizable=0;points=[];" vertex="1" connectable="0" parent="C846lnyThOzNxmnj4Wv5-45">
          <mxGeometry x="0.6998" y="1" relative="1" as="geometry">
            <mxPoint as="offset" />
          </mxGeometry>
        </mxCell>
        <mxCell id="C846lnyThOzNxmnj4Wv5-47" value="" style="endArrow=none;html=1;rounded=0;exitX=1;exitY=1;exitDx=0;exitDy=0;entryX=0;entryY=0;entryDx=0;entryDy=0;" edge="1" parent="1" source="C846lnyThOzNxmnj4Wv5-7" target="C846lnyThOzNxmnj4Wv5-3">
          <mxGeometry width="50" height="50" relative="1" as="geometry">
            <mxPoint x="524" y="84" as="sourcePoint" />
            <mxPoint x="660" y="480" as="targetPoint" />
          </mxGeometry>
        </mxCell>
        <mxCell id="C846lnyThOzNxmnj4Wv5-48" value="&lt;font style=&quot;font-size: 18px;&quot;&gt;4&lt;/font&gt;" style="edgeLabel;html=1;align=center;verticalAlign=middle;resizable=0;points=[];" vertex="1" connectable="0" parent="C846lnyThOzNxmnj4Wv5-47">
          <mxGeometry x="0.5453" y="1" relative="1" as="geometry">
            <mxPoint as="offset" />
          </mxGeometry>
        </mxCell>
        <mxCell id="C846lnyThOzNxmnj4Wv5-49" value="" style="endArrow=none;html=1;rounded=0;exitX=1;exitY=0.5;exitDx=0;exitDy=0;entryX=0;entryY=0.5;entryDx=0;entryDy=0;" edge="1" parent="1" source="C846lnyThOzNxmnj4Wv5-8" target="C846lnyThOzNxmnj4Wv5-3">
          <mxGeometry width="50" height="50" relative="1" as="geometry">
            <mxPoint x="284" y="104" as="sourcePoint" />
            <mxPoint x="700" y="640" as="targetPoint" />
          </mxGeometry>
        </mxCell>
        <mxCell id="C846lnyThOzNxmnj4Wv5-50" value="&lt;font style=&quot;font-size: 18px;&quot;&gt;4&lt;/font&gt;" style="edgeLabel;html=1;align=center;verticalAlign=middle;resizable=0;points=[];" vertex="1" connectable="0" parent="C846lnyThOzNxmnj4Wv5-49">
          <mxGeometry x="0.67" y="2" relative="1" as="geometry">
            <mxPoint as="offset" />
          </mxGeometry>
        </mxCell>
        <mxCell id="C846lnyThOzNxmnj4Wv5-51" value="" style="endArrow=none;html=1;rounded=0;exitX=1;exitY=1;exitDx=0;exitDy=0;entryX=0;entryY=0.5;entryDx=0;entryDy=0;fillColor=#f8cecc;strokeColor=#b85450;strokeWidth=5;" edge="1" parent="1" source="C846lnyThOzNxmnj4Wv5-9" target="C846lnyThOzNxmnj4Wv5-3">
          <mxGeometry width="50" height="50" relative="1" as="geometry">
            <mxPoint x="420" y="380" as="sourcePoint" />
            <mxPoint x="650" y="650" as="targetPoint" />
          </mxGeometry>
        </mxCell>
        <mxCell id="C846lnyThOzNxmnj4Wv5-52" value="&lt;font style=&quot;font-size: 18px;&quot;&gt;1&lt;/font&gt;" style="edgeLabel;html=1;align=center;verticalAlign=middle;resizable=0;points=[];" vertex="1" connectable="0" parent="C846lnyThOzNxmnj4Wv5-51">
          <mxGeometry x="0.6417" relative="1" as="geometry">
            <mxPoint as="offset" />
          </mxGeometry>
        </mxCell>
        <mxCell id="C846lnyThOzNxmnj4Wv5-53" value="" style="endArrow=none;html=1;rounded=0;entryX=0;entryY=0.5;entryDx=0;entryDy=0;exitX=1;exitY=1;exitDx=0;exitDy=0;" edge="1" parent="1" source="C846lnyThOzNxmnj4Wv5-10" target="C846lnyThOzNxmnj4Wv5-3">
          <mxGeometry width="50" height="50" relative="1" as="geometry">
            <mxPoint x="40" y="220" as="sourcePoint" />
            <mxPoint x="690" y="520" as="targetPoint" />
          </mxGeometry>
        </mxCell>
        <mxCell id="C846lnyThOzNxmnj4Wv5-54" value="&lt;font style=&quot;font-size: 18px;&quot;&gt;3&lt;/font&gt;" style="edgeLabel;html=1;align=center;verticalAlign=middle;resizable=0;points=[];" vertex="1" connectable="0" parent="C846lnyThOzNxmnj4Wv5-53">
          <mxGeometry x="0.4904" y="3" relative="1" as="geometry">
            <mxPoint x="1" as="offset" />
          </mxGeometry>
        </mxCell>
        <mxCell id="C846lnyThOzNxmnj4Wv5-55" value="" style="endArrow=none;html=1;rounded=0;exitX=1;exitY=0;exitDx=0;exitDy=0;entryX=0;entryY=1;entryDx=0;entryDy=0;fillColor=#fff2cc;strokeColor=#d6b656;strokeWidth=5;" edge="1" parent="1" source="C846lnyThOzNxmnj4Wv5-4" target="C846lnyThOzNxmnj4Wv5-5">
          <mxGeometry width="50" height="50" relative="1" as="geometry">
            <mxPoint x="440" y="610" as="sourcePoint" />
            <mxPoint x="730" y="570" as="targetPoint" />
          </mxGeometry>
        </mxCell>
        <mxCell id="C846lnyThOzNxmnj4Wv5-56" value="&lt;font style=&quot;font-size: 18px;&quot;&gt;1&lt;/font&gt;" style="edgeLabel;html=1;align=center;verticalAlign=middle;resizable=0;points=[];" vertex="1" connectable="0" parent="C846lnyThOzNxmnj4Wv5-55">
          <mxGeometry x="-0.6063" relative="1" as="geometry">
            <mxPoint x="1" as="offset" />
          </mxGeometry>
        </mxCell>
        <mxCell id="C846lnyThOzNxmnj4Wv5-57" value="" style="endArrow=none;html=1;rounded=0;entryX=0.5;entryY=1;entryDx=0;entryDy=0;exitX=0;exitY=0;exitDx=0;exitDy=0;" edge="1" parent="1" source="C846lnyThOzNxmnj4Wv5-4" target="C846lnyThOzNxmnj4Wv5-7">
          <mxGeometry width="50" height="50" relative="1" as="geometry">
            <mxPoint x="300" y="590" as="sourcePoint" />
            <mxPoint x="766" y="84" as="targetPoint" />
          </mxGeometry>
        </mxCell>
        <mxCell id="C846lnyThOzNxmnj4Wv5-58" value="&lt;font style=&quot;font-size: 18px;&quot;&gt;2&lt;/font&gt;" style="edgeLabel;html=1;align=center;verticalAlign=middle;resizable=0;points=[];" vertex="1" connectable="0" parent="C846lnyThOzNxmnj4Wv5-57">
          <mxGeometry x="-0.5269" relative="1" as="geometry">
            <mxPoint as="offset" />
          </mxGeometry>
        </mxCell>
        <mxCell id="C846lnyThOzNxmnj4Wv5-59" value="" style="endArrow=none;html=1;rounded=0;entryX=1;entryY=1;entryDx=0;entryDy=0;exitX=0;exitY=0.5;exitDx=0;exitDy=0;" edge="1" parent="1" source="C846lnyThOzNxmnj4Wv5-4" target="C846lnyThOzNxmnj4Wv5-8">
          <mxGeometry width="50" height="50" relative="1" as="geometry">
            <mxPoint x="320" y="630" as="sourcePoint" />
            <mxPoint x="270" y="110" as="targetPoint" />
          </mxGeometry>
        </mxCell>
        <mxCell id="C846lnyThOzNxmnj4Wv5-60" value="&lt;font style=&quot;font-size: 18px;&quot;&gt;2&lt;/font&gt;" style="edgeLabel;html=1;align=center;verticalAlign=middle;resizable=0;points=[];" vertex="1" connectable="0" parent="C846lnyThOzNxmnj4Wv5-59">
          <mxGeometry x="-0.1074" y="-2" relative="1" as="geometry">
            <mxPoint as="offset" />
          </mxGeometry>
        </mxCell>
        <mxCell id="C846lnyThOzNxmnj4Wv5-61" value="" style="endArrow=none;html=1;rounded=0;entryX=0.5;entryY=1;entryDx=0;entryDy=0;exitX=0;exitY=0.5;exitDx=0;exitDy=0;" edge="1" parent="1" source="C846lnyThOzNxmnj4Wv5-4" target="C846lnyThOzNxmnj4Wv5-9">
          <mxGeometry width="50" height="50" relative="1" as="geometry">
            <mxPoint x="400" y="610" as="sourcePoint" />
            <mxPoint x="164" y="584" as="targetPoint" />
          </mxGeometry>
        </mxCell>
        <mxCell id="C846lnyThOzNxmnj4Wv5-62" value="&lt;font style=&quot;font-size: 18px;&quot;&gt;3&lt;/font&gt;" style="edgeLabel;html=1;align=center;verticalAlign=middle;resizable=0;points=[];" vertex="1" connectable="0" parent="C846lnyThOzNxmnj4Wv5-61">
          <mxGeometry x="0.1261" y="3" relative="1" as="geometry">
            <mxPoint as="offset" />
          </mxGeometry>
        </mxCell>
        <mxCell id="C846lnyThOzNxmnj4Wv5-63" value="" style="endArrow=none;html=1;rounded=0;entryX=1;entryY=1;entryDx=0;entryDy=0;exitX=0;exitY=0;exitDx=0;exitDy=0;fillColor=#dae8fc;strokeColor=#6c8ebf;strokeWidth=5;" edge="1" parent="1" source="C846lnyThOzNxmnj4Wv5-4" target="C846lnyThOzNxmnj4Wv5-10">
          <mxGeometry width="50" height="50" relative="1" as="geometry">
            <mxPoint x="380" y="650" as="sourcePoint" />
            <mxPoint x="60" y="410" as="targetPoint" />
          </mxGeometry>
        </mxCell>
        <mxCell id="C846lnyThOzNxmnj4Wv5-64" value="&lt;font style=&quot;font-size: 18px;&quot;&gt;1&lt;/font&gt;" style="edgeLabel;html=1;align=center;verticalAlign=middle;resizable=0;points=[];" vertex="1" connectable="0" parent="C846lnyThOzNxmnj4Wv5-63">
          <mxGeometry x="-0.7178" y="-6" relative="1" as="geometry">
            <mxPoint y="1" as="offset" />
          </mxGeometry>
        </mxCell>
        <mxCell id="C846lnyThOzNxmnj4Wv5-65" value="" style="endArrow=none;html=1;rounded=0;entryX=1;entryY=0.5;entryDx=0;entryDy=0;exitX=0;exitY=0.5;exitDx=0;exitDy=0;" edge="1" parent="1" source="C846lnyThOzNxmnj4Wv5-5" target="C846lnyThOzNxmnj4Wv5-6">
          <mxGeometry width="50" height="50" relative="1" as="geometry">
            <mxPoint x="720" y="50" as="sourcePoint" />
            <mxPoint x="420" y="340" as="targetPoint" />
          </mxGeometry>
        </mxCell>
        <mxCell id="C846lnyThOzNxmnj4Wv5-66" value="&lt;font style=&quot;font-size: 18px;&quot;&gt;1&lt;/font&gt;" style="edgeLabel;html=1;align=center;verticalAlign=middle;resizable=0;points=[];" vertex="1" connectable="0" parent="C846lnyThOzNxmnj4Wv5-65">
          <mxGeometry x="-0.1528" relative="1" as="geometry">
            <mxPoint as="offset" />
          </mxGeometry>
        </mxCell>
        <mxCell id="C846lnyThOzNxmnj4Wv5-67" value="" style="endArrow=none;html=1;rounded=0;entryX=0;entryY=0;entryDx=0;entryDy=0;exitX=1;exitY=0.5;exitDx=0;exitDy=0;" edge="1" parent="1" source="C846lnyThOzNxmnj4Wv5-7" target="C846lnyThOzNxmnj4Wv5-5">
          <mxGeometry width="50" height="50" relative="1" as="geometry">
            <mxPoint x="760" y="70" as="sourcePoint" />
            <mxPoint x="530" y="70" as="targetPoint" />
          </mxGeometry>
        </mxCell>
        <mxCell id="C846lnyThOzNxmnj4Wv5-68" value="&lt;font style=&quot;font-size: 18px;&quot;&gt;2&lt;/font&gt;" style="edgeLabel;html=1;align=center;verticalAlign=middle;resizable=0;points=[];" vertex="1" connectable="0" parent="C846lnyThOzNxmnj4Wv5-67">
          <mxGeometry x="0.1525" y="2" relative="1" as="geometry">
            <mxPoint as="offset" />
          </mxGeometry>
        </mxCell>
        <mxCell id="C846lnyThOzNxmnj4Wv5-69" value="" style="endArrow=none;html=1;rounded=0;exitX=0;exitY=0.5;exitDx=0;exitDy=0;entryX=1;entryY=0;entryDx=0;entryDy=0;" edge="1" parent="1" source="C846lnyThOzNxmnj4Wv5-5" target="C846lnyThOzNxmnj4Wv5-8">
          <mxGeometry width="50" height="50" relative="1" as="geometry">
            <mxPoint x="434" y="596" as="sourcePoint" />
            <mxPoint x="766" y="84" as="targetPoint" />
          </mxGeometry>
        </mxCell>
        <mxCell id="C846lnyThOzNxmnj4Wv5-70" value="&lt;font style=&quot;font-size: 18px;&quot;&gt;2&lt;/font&gt;" style="edgeLabel;html=1;align=center;verticalAlign=middle;resizable=0;points=[];" vertex="1" connectable="0" parent="C846lnyThOzNxmnj4Wv5-69">
          <mxGeometry x="-0.363" y="2" relative="1" as="geometry">
            <mxPoint as="offset" />
          </mxGeometry>
        </mxCell>
        <mxCell id="C846lnyThOzNxmnj4Wv5-71" value="" style="endArrow=none;html=1;rounded=0;exitX=0;exitY=0.5;exitDx=0;exitDy=0;entryX=1;entryY=0;entryDx=0;entryDy=0;fillColor=#d5e8d4;strokeColor=#82b366;strokeWidth=5;" edge="1" parent="1" source="C846lnyThOzNxmnj4Wv5-5" target="C846lnyThOzNxmnj4Wv5-9">
          <mxGeometry width="50" height="50" relative="1" as="geometry">
            <mxPoint x="766" y="84" as="sourcePoint" />
            <mxPoint x="100" y="330" as="targetPoint" />
          </mxGeometry>
        </mxCell>
        <mxCell id="C846lnyThOzNxmnj4Wv5-72" value="&lt;font style=&quot;font-size: 18px;&quot;&gt;2&lt;/font&gt;" style="edgeLabel;html=1;align=center;verticalAlign=middle;resizable=0;points=[];" vertex="1" connectable="0" parent="C846lnyThOzNxmnj4Wv5-71">
          <mxGeometry x="0.0839" y="-2" relative="1" as="geometry">
            <mxPoint as="offset" />
          </mxGeometry>
        </mxCell>
        <mxCell id="C846lnyThOzNxmnj4Wv5-73" value="" style="endArrow=none;html=1;rounded=0;exitX=0;exitY=0;exitDx=0;exitDy=0;entryX=1;entryY=1;entryDx=0;entryDy=0;fillColor=#dae8fc;strokeColor=#6c8ebf;strokeWidth=5;" edge="1" parent="1" source="C846lnyThOzNxmnj4Wv5-6" target="C846lnyThOzNxmnj4Wv5-7">
          <mxGeometry width="50" height="50" relative="1" as="geometry">
            <mxPoint x="820" y="340" as="sourcePoint" />
            <mxPoint x="340" y="-100" as="targetPoint" />
          </mxGeometry>
        </mxCell>
        <mxCell id="C846lnyThOzNxmnj4Wv5-74" value="&lt;font style=&quot;font-size: 18px;&quot;&gt;1&lt;/font&gt;" style="edgeLabel;html=1;align=center;verticalAlign=middle;resizable=0;points=[];" vertex="1" connectable="0" parent="C846lnyThOzNxmnj4Wv5-73">
          <mxGeometry x="-0.1132" y="4" relative="1" as="geometry">
            <mxPoint x="-1" as="offset" />
          </mxGeometry>
        </mxCell>
        <mxCell id="C846lnyThOzNxmnj4Wv5-75" value="" style="endArrow=none;html=1;rounded=0;entryX=0;entryY=1;entryDx=0;entryDy=0;exitX=0.5;exitY=0;exitDx=0;exitDy=0;fillColor=#dae8fc;strokeColor=#6c8ebf;strokeWidth=5;" edge="1" parent="1" source="C846lnyThOzNxmnj4Wv5-8" target="C846lnyThOzNxmnj4Wv5-6">
          <mxGeometry width="50" height="50" relative="1" as="geometry">
            <mxPoint x="10" y="490" as="sourcePoint" />
            <mxPoint x="280" y="10" as="targetPoint" />
          </mxGeometry>
        </mxCell>
        <mxCell id="C846lnyThOzNxmnj4Wv5-76" value="&lt;font style=&quot;font-size: 18px;&quot;&gt;1&lt;/font&gt;" style="edgeLabel;html=1;align=center;verticalAlign=middle;resizable=0;points=[];" vertex="1" connectable="0" parent="C846lnyThOzNxmnj4Wv5-75">
          <mxGeometry x="0.6803" relative="1" as="geometry">
            <mxPoint as="offset" />
          </mxGeometry>
        </mxCell>
        <mxCell id="C846lnyThOzNxmnj4Wv5-77" value="" style="endArrow=none;html=1;rounded=0;entryX=0;entryY=0.5;entryDx=0;entryDy=0;exitX=0.5;exitY=0;exitDx=0;exitDy=0;" edge="1" parent="1" source="C846lnyThOzNxmnj4Wv5-9" target="C846lnyThOzNxmnj4Wv5-6">
          <mxGeometry width="50" height="50" relative="1" as="geometry">
            <mxPoint x="70" y="530" as="sourcePoint" />
            <mxPoint x="496" y="94" as="targetPoint" />
          </mxGeometry>
        </mxCell>
        <mxCell id="C846lnyThOzNxmnj4Wv5-78" value="&lt;font style=&quot;font-size: 18px;&quot;&gt;3&lt;/font&gt;" style="edgeLabel;html=1;align=center;verticalAlign=middle;resizable=0;points=[];" vertex="1" connectable="0" parent="C846lnyThOzNxmnj4Wv5-77">
          <mxGeometry x="0.1049" y="1" relative="1" as="geometry">
            <mxPoint as="offset" />
          </mxGeometry>
        </mxCell>
        <mxCell id="C846lnyThOzNxmnj4Wv5-79" value="" style="endArrow=none;html=1;rounded=0;entryX=1;entryY=0;entryDx=0;entryDy=0;exitX=0;exitY=0.5;exitDx=0;exitDy=0;fillColor=#fff2cc;strokeColor=#d6b656;strokeWidth=5;" edge="1" parent="1" source="C846lnyThOzNxmnj4Wv5-6" target="C846lnyThOzNxmnj4Wv5-10">
          <mxGeometry width="50" height="50" relative="1" as="geometry">
            <mxPoint x="60" y="370" as="sourcePoint" />
            <mxPoint x="490" y="80" as="targetPoint" />
          </mxGeometry>
        </mxCell>
        <mxCell id="C846lnyThOzNxmnj4Wv5-80" value="&lt;font style=&quot;font-size: 18px;&quot;&gt;1&lt;/font&gt;" style="edgeLabel;html=1;align=center;verticalAlign=middle;resizable=0;points=[];" vertex="1" connectable="0" parent="C846lnyThOzNxmnj4Wv5-79">
          <mxGeometry x="-0.7553" y="-5" relative="1" as="geometry">
            <mxPoint as="offset" />
          </mxGeometry>
        </mxCell>
        <mxCell id="C846lnyThOzNxmnj4Wv5-81" value="" style="endArrow=none;html=1;rounded=0;entryX=0;entryY=1;entryDx=0;entryDy=0;exitX=0.5;exitY=0;exitDx=0;exitDy=0;" edge="1" parent="1" source="C846lnyThOzNxmnj4Wv5-9" target="C846lnyThOzNxmnj4Wv5-7">
          <mxGeometry width="50" height="50" relative="1" as="geometry">
            <mxPoint x="406" y="596" as="sourcePoint" />
            <mxPoint x="280" y="10" as="targetPoint" />
          </mxGeometry>
        </mxCell>
        <mxCell id="C846lnyThOzNxmnj4Wv5-82" value="&lt;font style=&quot;font-size: 18px;&quot;&gt;3&lt;/font&gt;" style="edgeLabel;html=1;align=center;verticalAlign=middle;resizable=0;points=[];" vertex="1" connectable="0" parent="C846lnyThOzNxmnj4Wv5-81">
          <mxGeometry x="0.5893" y="1" relative="1" as="geometry">
            <mxPoint x="1" y="-1" as="offset" />
          </mxGeometry>
        </mxCell>
        <mxCell id="C846lnyThOzNxmnj4Wv5-83" value="" style="endArrow=none;html=1;rounded=0;exitX=0.5;exitY=0;exitDx=0;exitDy=0;entryX=0;entryY=0.5;entryDx=0;entryDy=0;" edge="1" parent="1" source="C846lnyThOzNxmnj4Wv5-10" target="C846lnyThOzNxmnj4Wv5-7">
          <mxGeometry width="50" height="50" relative="1" as="geometry">
            <mxPoint x="60" y="370" as="sourcePoint" />
            <mxPoint x="120" y="4" as="targetPoint" />
          </mxGeometry>
        </mxCell>
        <mxCell id="C846lnyThOzNxmnj4Wv5-84" value="&lt;font style=&quot;font-size: 18px;&quot;&gt;2&lt;/font&gt;" style="edgeLabel;html=1;align=center;verticalAlign=middle;resizable=0;points=[];" vertex="1" connectable="0" parent="C846lnyThOzNxmnj4Wv5-83">
          <mxGeometry x="-0.1745" y="-6" relative="1" as="geometry">
            <mxPoint as="offset" />
          </mxGeometry>
        </mxCell>
        <mxCell id="C846lnyThOzNxmnj4Wv5-85" value="" style="endArrow=none;html=1;rounded=0;entryX=0.5;entryY=0;entryDx=0;entryDy=0;exitX=0.5;exitY=1;exitDx=0;exitDy=0;" edge="1" parent="1" source="C846lnyThOzNxmnj4Wv5-9" target="C846lnyThOzNxmnj4Wv5-8">
          <mxGeometry width="50" height="50" relative="1" as="geometry">
            <mxPoint x="400" y="610" as="sourcePoint" />
            <mxPoint x="64" y="544" as="targetPoint" />
          </mxGeometry>
        </mxCell>
        <mxCell id="C846lnyThOzNxmnj4Wv5-86" value="&lt;font style=&quot;font-size: 18px;&quot;&gt;3&lt;/font&gt;" style="edgeLabel;html=1;align=center;verticalAlign=middle;resizable=0;points=[];" vertex="1" connectable="0" parent="C846lnyThOzNxmnj4Wv5-85">
          <mxGeometry x="-0.3115" y="-1" relative="1" as="geometry">
            <mxPoint as="offset" />
          </mxGeometry>
        </mxCell>
        <mxCell id="C846lnyThOzNxmnj4Wv5-87" value="" style="endArrow=none;html=1;rounded=0;entryX=0;entryY=1;entryDx=0;entryDy=0;exitX=0.5;exitY=0;exitDx=0;exitDy=0;strokeWidth=1;" edge="1" parent="1" source="C846lnyThOzNxmnj4Wv5-8" target="C846lnyThOzNxmnj4Wv5-10">
          <mxGeometry width="50" height="50" relative="1" as="geometry">
            <mxPoint x="60" y="410" as="sourcePoint" />
            <mxPoint x="50" y="510" as="targetPoint" />
          </mxGeometry>
        </mxCell>
        <mxCell id="C846lnyThOzNxmnj4Wv5-88" value="&lt;font style=&quot;font-size: 18px;&quot;&gt;2&lt;/font&gt;" style="edgeLabel;html=1;align=center;verticalAlign=middle;resizable=0;points=[];" vertex="1" connectable="0" parent="C846lnyThOzNxmnj4Wv5-87">
          <mxGeometry x="-0.1011" y="1" relative="1" as="geometry">
            <mxPoint y="-1" as="offset" />
          </mxGeometry>
        </mxCell>
        <mxCell id="C846lnyThOzNxmnj4Wv5-89" value="" style="endArrow=none;html=1;rounded=0;exitX=0.5;exitY=0;exitDx=0;exitDy=0;entryX=0.5;entryY=1;entryDx=0;entryDy=0;" edge="1" parent="1" source="C846lnyThOzNxmnj4Wv5-9" target="C846lnyThOzNxmnj4Wv5-10">
          <mxGeometry width="50" height="50" relative="1" as="geometry">
            <mxPoint x="74" y="376" as="sourcePoint" />
            <mxPoint x="400" y="360" as="targetPoint" />
          </mxGeometry>
        </mxCell>
        <mxCell id="C846lnyThOzNxmnj4Wv5-90" value="&lt;font style=&quot;font-size: 18px;&quot;&gt;2&lt;/font&gt;" style="edgeLabel;html=1;align=center;verticalAlign=middle;resizable=0;points=[];" vertex="1" connectable="0" parent="C846lnyThOzNxmnj4Wv5-89">
          <mxGeometry x="-0.1893" y="2" relative="1" as="geometry">
            <mxPoint y="1" as="offset" />
          </mxGeometry>
        </mxCell>
        <mxCell id="C846lnyThOzNxmnj4Wv5-91" value="&lt;i&gt;Backtrack&lt;/i&gt;" style="text;html=1;align=center;verticalAlign=middle;resizable=0;points=[];autosize=1;strokeColor=none;fillColor=none;" vertex="1" parent="1">
          <mxGeometry x="180" y="-130" width="80" height="30" as="geometry" />
        </mxCell>
        <mxCell id="nArf6m4sdGSHwLdppjCR-1" value="&lt;font style=&quot;font-size: 30px;&quot;&gt;A, B, C, I, E, D, J, F, G, backtrack, H&lt;/font&gt;" style="text;html=1;align=center;verticalAlign=middle;resizable=0;points=[];autosize=1;strokeColor=none;fillColor=none;" vertex="1" parent="1">
          <mxGeometry x="185" y="770" width="510" height="50" as="geometry" />
        </mxCell>
      </root>
    </mxGraphModel>
  </diagram>
  <diagram id="_hPrIgOoR00SwJSnOkoL" name="AIC">
    <mxGraphModel dx="2438" dy="1976" grid="1" gridSize="10" guides="1" tooltips="1" connect="1" arrows="1" fold="1" page="1" pageScale="1" pageWidth="850" pageHeight="1100" math="0" shadow="0">
      <root>
        <mxCell id="0" />
        <mxCell id="1" parent="0" />
        <mxCell id="NHc7-DwBwXwwiIDKPG5o-1" value="A" style="ellipse;whiteSpace=wrap;html=1;aspect=fixed;fillColor=#f8cecc;strokeColor=#b85450;" vertex="1" parent="1">
          <mxGeometry x="405" y="300" width="40" height="40" as="geometry" />
        </mxCell>
        <mxCell id="NHc7-DwBwXwwiIDKPG5o-2" value="B" style="ellipse;whiteSpace=wrap;html=1;aspect=fixed;fillColor=#d5e8d4;strokeColor=#82b366;" vertex="1" parent="1">
          <mxGeometry x="900" y="310" width="40" height="40" as="geometry" />
        </mxCell>
        <mxCell id="NHc7-DwBwXwwiIDKPG5o-3" value="C" style="ellipse;whiteSpace=wrap;html=1;aspect=fixed;fillColor=#f8cecc;strokeColor=#b85450;" vertex="1" parent="1">
          <mxGeometry x="800" y="580" width="40" height="40" as="geometry" />
        </mxCell>
        <mxCell id="NHc7-DwBwXwwiIDKPG5o-4" value="D" style="ellipse;whiteSpace=wrap;html=1;aspect=fixed;fillColor=#dae8fc;strokeColor=#6c8ebf;" vertex="1" parent="1">
          <mxGeometry x="420" y="710" width="40" height="40" as="geometry" />
        </mxCell>
        <mxCell id="NHc7-DwBwXwwiIDKPG5o-5" value="E" style="ellipse;whiteSpace=wrap;html=1;aspect=fixed;fillColor=#fff2cc;strokeColor=#d6b656;" vertex="1" parent="1">
          <mxGeometry x="790" y="-80" width="40" height="40" as="geometry" />
        </mxCell>
        <mxCell id="NHc7-DwBwXwwiIDKPG5o-6" value="F" style="ellipse;whiteSpace=wrap;html=1;aspect=fixed;fillColor=#dae8fc;strokeColor=#6c8ebf;" vertex="1" parent="1">
          <mxGeometry x="520" y="-30" width="40" height="40" as="geometry" />
        </mxCell>
        <mxCell id="NHc7-DwBwXwwiIDKPG5o-7" value="G" style="ellipse;whiteSpace=wrap;html=1;aspect=fixed;fillColor=#e1d5e7;strokeColor=#9673a6;" vertex="1" parent="1">
          <mxGeometry x="200" y="-100" width="40" height="40" as="geometry" />
        </mxCell>
        <mxCell id="NHc7-DwBwXwwiIDKPG5o-8" value="H" style="ellipse;whiteSpace=wrap;html=1;aspect=fixed;fillColor=#e1d5e7;strokeColor=#9673a6;" vertex="1" parent="1">
          <mxGeometry x="-80" y="560" width="40" height="40" as="geometry" />
        </mxCell>
        <mxCell id="NHc7-DwBwXwwiIDKPG5o-9" value="I" style="ellipse;whiteSpace=wrap;html=1;aspect=fixed;fillColor=#d5e8d4;strokeColor=#82b366;" vertex="1" parent="1">
          <mxGeometry x="30" y="350" width="40" height="40" as="geometry" />
        </mxCell>
        <mxCell id="NHc7-DwBwXwwiIDKPG5o-10" value="J" style="ellipse;whiteSpace=wrap;html=1;aspect=fixed;fillColor=#fff2cc;strokeColor=#d6b656;" vertex="1" parent="1">
          <mxGeometry x="-110" y="140" width="40" height="40" as="geometry" />
        </mxCell>
        <mxCell id="NHc7-DwBwXwwiIDKPG5o-11" value="" style="endArrow=none;html=1;rounded=0;entryX=1;entryY=0.5;entryDx=0;entryDy=0;exitX=0;exitY=0.5;exitDx=0;exitDy=0;" edge="1" parent="1" source="NHc7-DwBwXwwiIDKPG5o-2" target="NHc7-DwBwXwwiIDKPG5o-1">
          <mxGeometry width="50" height="50" relative="1" as="geometry">
            <mxPoint x="470" y="320" as="sourcePoint" />
            <mxPoint x="520" y="270" as="targetPoint" />
          </mxGeometry>
        </mxCell>
        <mxCell id="NHc7-DwBwXwwiIDKPG5o-12" value="&lt;font style=&quot;font-size: 18px;&quot;&gt;1&lt;/font&gt;" style="edgeLabel;html=1;align=center;verticalAlign=middle;resizable=0;points=[];" vertex="1" connectable="0" parent="NHc7-DwBwXwwiIDKPG5o-11">
          <mxGeometry x="0.7059" y="-4" relative="1" as="geometry">
            <mxPoint as="offset" />
          </mxGeometry>
        </mxCell>
        <mxCell id="NHc7-DwBwXwwiIDKPG5o-13" value="" style="endArrow=none;html=1;rounded=0;exitX=0.5;exitY=0;exitDx=0;exitDy=0;entryX=0.5;entryY=1;entryDx=0;entryDy=0;" edge="1" parent="1" source="NHc7-DwBwXwwiIDKPG5o-4" target="NHc7-DwBwXwwiIDKPG5o-1">
          <mxGeometry width="50" height="50" relative="1" as="geometry">
            <mxPoint x="600" y="150" as="sourcePoint" />
            <mxPoint x="380" y="190" as="targetPoint" />
          </mxGeometry>
        </mxCell>
        <mxCell id="NHc7-DwBwXwwiIDKPG5o-14" value="&lt;font style=&quot;font-size: 18px;&quot;&gt;3&lt;/font&gt;" style="edgeLabel;html=1;align=center;verticalAlign=middle;resizable=0;points=[];" vertex="1" connectable="0" parent="NHc7-DwBwXwwiIDKPG5o-13">
          <mxGeometry x="0.7988" y="-1" relative="1" as="geometry">
            <mxPoint y="-1" as="offset" />
          </mxGeometry>
        </mxCell>
        <mxCell id="NHc7-DwBwXwwiIDKPG5o-15" value="" style="endArrow=none;html=1;rounded=0;entryX=0.5;entryY=0;entryDx=0;entryDy=0;exitX=0;exitY=1;exitDx=0;exitDy=0;" edge="1" parent="1" source="NHc7-DwBwXwwiIDKPG5o-5" target="NHc7-DwBwXwwiIDKPG5o-1">
          <mxGeometry width="50" height="50" relative="1" as="geometry">
            <mxPoint x="710" y="60" as="sourcePoint" />
            <mxPoint x="360" y="200" as="targetPoint" />
          </mxGeometry>
        </mxCell>
        <mxCell id="NHc7-DwBwXwwiIDKPG5o-16" value="&lt;font style=&quot;font-size: 18px;&quot;&gt;2&lt;/font&gt;" style="edgeLabel;html=1;align=center;verticalAlign=middle;resizable=0;points=[];" vertex="1" connectable="0" parent="NHc7-DwBwXwwiIDKPG5o-15">
          <mxGeometry x="0.3793" relative="1" as="geometry">
            <mxPoint y="-1" as="offset" />
          </mxGeometry>
        </mxCell>
        <mxCell id="NHc7-DwBwXwwiIDKPG5o-17" value="" style="endArrow=none;html=1;rounded=0;exitX=0.5;exitY=1;exitDx=0;exitDy=0;entryX=0.5;entryY=0;entryDx=0;entryDy=0;" edge="1" parent="1" source="NHc7-DwBwXwwiIDKPG5o-6" target="NHc7-DwBwXwwiIDKPG5o-1">
          <mxGeometry width="50" height="50" relative="1" as="geometry">
            <mxPoint x="610" y="540" as="sourcePoint" />
            <mxPoint x="450" y="120" as="targetPoint" />
          </mxGeometry>
        </mxCell>
        <mxCell id="NHc7-DwBwXwwiIDKPG5o-18" value="&lt;font style=&quot;font-size: 18px;&quot;&gt;3&lt;/font&gt;" style="edgeLabel;html=1;align=center;verticalAlign=middle;resizable=0;points=[];" vertex="1" connectable="0" parent="NHc7-DwBwXwwiIDKPG5o-17">
          <mxGeometry x="-0.7607" y="1" relative="1" as="geometry">
            <mxPoint as="offset" />
          </mxGeometry>
        </mxCell>
        <mxCell id="NHc7-DwBwXwwiIDKPG5o-19" value="" style="endArrow=none;html=1;rounded=0;entryX=0.5;entryY=0;entryDx=0;entryDy=0;exitX=0.5;exitY=1;exitDx=0;exitDy=0;" edge="1" parent="1" source="NHc7-DwBwXwwiIDKPG5o-7" target="NHc7-DwBwXwwiIDKPG5o-1">
          <mxGeometry width="50" height="50" relative="1" as="geometry">
            <mxPoint x="210" y="20" as="sourcePoint" />
            <mxPoint x="320" y="260" as="targetPoint" />
          </mxGeometry>
        </mxCell>
        <mxCell id="NHc7-DwBwXwwiIDKPG5o-20" value="&lt;font style=&quot;font-size: 18px;&quot;&gt;4&lt;/font&gt;" style="edgeLabel;html=1;align=center;verticalAlign=middle;resizable=0;points=[];" vertex="1" connectable="0" parent="NHc7-DwBwXwwiIDKPG5o-19">
          <mxGeometry x="-0.6894" y="2" relative="1" as="geometry">
            <mxPoint x="1" as="offset" />
          </mxGeometry>
        </mxCell>
        <mxCell id="NHc7-DwBwXwwiIDKPG5o-21" value="" style="endArrow=none;html=1;rounded=0;exitX=1;exitY=0.5;exitDx=0;exitDy=0;entryX=0;entryY=1;entryDx=0;entryDy=0;" edge="1" parent="1" source="NHc7-DwBwXwwiIDKPG5o-8" target="NHc7-DwBwXwwiIDKPG5o-1">
          <mxGeometry width="50" height="50" relative="1" as="geometry">
            <mxPoint x="254" y="526" as="sourcePoint" />
            <mxPoint x="420" y="170" as="targetPoint" />
          </mxGeometry>
        </mxCell>
        <mxCell id="NHc7-DwBwXwwiIDKPG5o-22" value="&lt;font style=&quot;font-size: 18px;&quot;&gt;4&lt;/font&gt;" style="edgeLabel;html=1;align=center;verticalAlign=middle;resizable=0;points=[];" vertex="1" connectable="0" parent="NHc7-DwBwXwwiIDKPG5o-21">
          <mxGeometry x="-0.4362" y="2" relative="1" as="geometry">
            <mxPoint x="1" y="-1" as="offset" />
          </mxGeometry>
        </mxCell>
        <mxCell id="NHc7-DwBwXwwiIDKPG5o-23" value="" style="endArrow=none;html=1;rounded=0;entryX=0;entryY=0.5;entryDx=0;entryDy=0;exitX=1;exitY=0.5;exitDx=0;exitDy=0;fillColor=#f8cecc;strokeColor=#b85450;strokeWidth=5;" edge="1" parent="1" source="NHc7-DwBwXwwiIDKPG5o-9" target="NHc7-DwBwXwwiIDKPG5o-1">
          <mxGeometry width="50" height="50" relative="1" as="geometry">
            <mxPoint x="170" y="370" as="sourcePoint" />
            <mxPoint x="406" y="164" as="targetPoint" />
          </mxGeometry>
        </mxCell>
        <mxCell id="NHc7-DwBwXwwiIDKPG5o-24" value="&lt;font style=&quot;font-size: 18px;&quot;&gt;1&lt;/font&gt;" style="edgeLabel;html=1;align=center;verticalAlign=middle;resizable=0;points=[];" vertex="1" connectable="0" parent="NHc7-DwBwXwwiIDKPG5o-23">
          <mxGeometry x="0.6297" y="-1" relative="1" as="geometry">
            <mxPoint as="offset" />
          </mxGeometry>
        </mxCell>
        <mxCell id="NHc7-DwBwXwwiIDKPG5o-25" value="" style="endArrow=none;html=1;rounded=0;exitX=1;exitY=0.5;exitDx=0;exitDy=0;entryX=0;entryY=0.5;entryDx=0;entryDy=0;" edge="1" parent="1" source="NHc7-DwBwXwwiIDKPG5o-10" target="NHc7-DwBwXwwiIDKPG5o-1">
          <mxGeometry width="50" height="50" relative="1" as="geometry">
            <mxPoint x="254" y="276" as="sourcePoint" />
            <mxPoint x="400" y="150" as="targetPoint" />
          </mxGeometry>
        </mxCell>
        <mxCell id="NHc7-DwBwXwwiIDKPG5o-26" value="&lt;span style=&quot;font-size: 18px;&quot;&gt;2&lt;/span&gt;" style="edgeLabel;html=1;align=center;verticalAlign=middle;resizable=0;points=[];" vertex="1" connectable="0" parent="NHc7-DwBwXwwiIDKPG5o-25">
          <mxGeometry x="0.7631" y="4" relative="1" as="geometry">
            <mxPoint as="offset" />
          </mxGeometry>
        </mxCell>
        <mxCell id="NHc7-DwBwXwwiIDKPG5o-27" value="" style="endArrow=none;html=1;rounded=0;entryX=0.5;entryY=1;entryDx=0;entryDy=0;exitX=0.5;exitY=0;exitDx=0;exitDy=0;fillColor=#f8cecc;strokeColor=#b85450;strokeWidth=5;" edge="1" parent="1" source="NHc7-DwBwXwwiIDKPG5o-3" target="NHc7-DwBwXwwiIDKPG5o-2">
          <mxGeometry width="50" height="50" relative="1" as="geometry">
            <mxPoint x="610" y="410" as="sourcePoint" />
            <mxPoint x="434" y="164" as="targetPoint" />
          </mxGeometry>
        </mxCell>
        <mxCell id="NHc7-DwBwXwwiIDKPG5o-28" value="&lt;font style=&quot;font-size: 18px;&quot;&gt;1&lt;/font&gt;" style="edgeLabel;html=1;align=center;verticalAlign=middle;resizable=0;points=[];" vertex="1" connectable="0" parent="NHc7-DwBwXwwiIDKPG5o-27">
          <mxGeometry x="0.1985" y="2" relative="1" as="geometry">
            <mxPoint as="offset" />
          </mxGeometry>
        </mxCell>
        <mxCell id="NHc7-DwBwXwwiIDKPG5o-29" value="" style="endArrow=none;html=1;rounded=0;entryX=0;entryY=1;entryDx=0;entryDy=0;exitX=1;exitY=0;exitDx=0;exitDy=0;" edge="1" parent="1" source="NHc7-DwBwXwwiIDKPG5o-4" target="NHc7-DwBwXwwiIDKPG5o-2">
          <mxGeometry width="50" height="50" relative="1" as="geometry">
            <mxPoint x="620" y="270" as="sourcePoint" />
            <mxPoint x="620" y="170" as="targetPoint" />
          </mxGeometry>
        </mxCell>
        <mxCell id="NHc7-DwBwXwwiIDKPG5o-30" value="&lt;font style=&quot;font-size: 18px;&quot;&gt;3&lt;/font&gt;" style="edgeLabel;html=1;align=center;verticalAlign=middle;resizable=0;points=[];" vertex="1" connectable="0" parent="NHc7-DwBwXwwiIDKPG5o-29">
          <mxGeometry x="0.8005" y="2" relative="1" as="geometry">
            <mxPoint x="-1" as="offset" />
          </mxGeometry>
        </mxCell>
        <mxCell id="NHc7-DwBwXwwiIDKPG5o-31" value="" style="endArrow=none;html=1;rounded=0;entryX=0.5;entryY=0;entryDx=0;entryDy=0;exitX=0.5;exitY=1;exitDx=0;exitDy=0;fillColor=#d5e8d4;strokeColor=#82b366;strokeWidth=5;" edge="1" parent="1" source="NHc7-DwBwXwwiIDKPG5o-5" target="NHc7-DwBwXwwiIDKPG5o-2">
          <mxGeometry width="50" height="50" relative="1" as="geometry">
            <mxPoint x="534" y="276" as="sourcePoint" />
            <mxPoint x="606" y="164" as="targetPoint" />
          </mxGeometry>
        </mxCell>
        <mxCell id="NHc7-DwBwXwwiIDKPG5o-32" value="&lt;font style=&quot;font-size: 18px;&quot;&gt;2&lt;/font&gt;" style="edgeLabel;html=1;align=center;verticalAlign=middle;resizable=0;points=[];" vertex="1" connectable="0" parent="NHc7-DwBwXwwiIDKPG5o-31">
          <mxGeometry x="0.1723" y="-3" relative="1" as="geometry">
            <mxPoint as="offset" />
          </mxGeometry>
        </mxCell>
        <mxCell id="NHc7-DwBwXwwiIDKPG5o-33" value="" style="endArrow=none;html=1;rounded=0;entryX=1;entryY=1;entryDx=0;entryDy=0;exitX=0;exitY=0;exitDx=0;exitDy=0;" edge="1" parent="1" source="NHc7-DwBwXwwiIDKPG5o-2" target="NHc7-DwBwXwwiIDKPG5o-6">
          <mxGeometry width="50" height="50" relative="1" as="geometry">
            <mxPoint x="880" y="270" as="sourcePoint" />
            <mxPoint x="606" y="164" as="targetPoint" />
          </mxGeometry>
        </mxCell>
        <mxCell id="NHc7-DwBwXwwiIDKPG5o-34" value="&lt;font style=&quot;font-size: 18px;&quot;&gt;3&lt;/font&gt;" style="edgeLabel;html=1;align=center;verticalAlign=middle;resizable=0;points=[];" vertex="1" connectable="0" parent="NHc7-DwBwXwwiIDKPG5o-33">
          <mxGeometry x="-0.2002" relative="1" as="geometry">
            <mxPoint y="-1" as="offset" />
          </mxGeometry>
        </mxCell>
        <mxCell id="NHc7-DwBwXwwiIDKPG5o-35" value="" style="endArrow=none;html=1;rounded=0;entryX=0;entryY=0;entryDx=0;entryDy=0;exitX=1;exitY=1;exitDx=0;exitDy=0;" edge="1" parent="1" source="NHc7-DwBwXwwiIDKPG5o-7" target="NHc7-DwBwXwwiIDKPG5o-2">
          <mxGeometry width="50" height="50" relative="1" as="geometry">
            <mxPoint x="434" y="296" as="sourcePoint" />
            <mxPoint x="606" y="164" as="targetPoint" />
          </mxGeometry>
        </mxCell>
        <mxCell id="NHc7-DwBwXwwiIDKPG5o-36" value="&lt;font style=&quot;font-size: 18px;&quot;&gt;4&lt;/font&gt;" style="edgeLabel;html=1;align=center;verticalAlign=middle;resizable=0;points=[];" vertex="1" connectable="0" parent="NHc7-DwBwXwwiIDKPG5o-35">
          <mxGeometry x="0.1888" y="1" relative="1" as="geometry">
            <mxPoint x="-1" y="-1" as="offset" />
          </mxGeometry>
        </mxCell>
        <mxCell id="NHc7-DwBwXwwiIDKPG5o-37" value="" style="endArrow=none;html=1;rounded=0;exitX=1;exitY=0.5;exitDx=0;exitDy=0;entryX=0;entryY=1;entryDx=0;entryDy=0;" edge="1" parent="1" source="NHc7-DwBwXwwiIDKPG5o-8" target="NHc7-DwBwXwwiIDKPG5o-2">
          <mxGeometry width="50" height="50" relative="1" as="geometry">
            <mxPoint x="434" y="296" as="sourcePoint" />
            <mxPoint x="560" y="260" as="targetPoint" />
          </mxGeometry>
        </mxCell>
        <mxCell id="NHc7-DwBwXwwiIDKPG5o-38" value="&lt;font style=&quot;font-size: 18px;&quot;&gt;4&lt;/font&gt;" style="edgeLabel;html=1;align=center;verticalAlign=middle;resizable=0;points=[];" vertex="1" connectable="0" parent="NHc7-DwBwXwwiIDKPG5o-37">
          <mxGeometry x="0.7071" relative="1" as="geometry">
            <mxPoint as="offset" />
          </mxGeometry>
        </mxCell>
        <mxCell id="NHc7-DwBwXwwiIDKPG5o-39" value="" style="endArrow=none;html=1;rounded=0;exitX=1;exitY=0.5;exitDx=0;exitDy=0;entryX=0;entryY=0.5;entryDx=0;entryDy=0;" edge="1" parent="1" source="NHc7-DwBwXwwiIDKPG5o-10" target="NHc7-DwBwXwwiIDKPG5o-2">
          <mxGeometry width="50" height="50" relative="1" as="geometry">
            <mxPoint x="280" y="290" as="sourcePoint" />
            <mxPoint x="540" y="120" as="targetPoint" />
          </mxGeometry>
        </mxCell>
        <mxCell id="NHc7-DwBwXwwiIDKPG5o-40" value="&lt;font style=&quot;font-size: 18px;&quot;&gt;2&lt;/font&gt;" style="edgeLabel;html=1;align=center;verticalAlign=middle;resizable=0;points=[];" vertex="1" connectable="0" parent="NHc7-DwBwXwwiIDKPG5o-39">
          <mxGeometry x="0.6429" y="3" relative="1" as="geometry">
            <mxPoint x="1" as="offset" />
          </mxGeometry>
        </mxCell>
        <mxCell id="NHc7-DwBwXwwiIDKPG5o-41" value="" style="endArrow=none;html=1;rounded=0;exitX=1;exitY=0.5;exitDx=0;exitDy=0;entryX=0;entryY=0.5;entryDx=0;entryDy=0;" edge="1" parent="1" source="NHc7-DwBwXwwiIDKPG5o-4" target="NHc7-DwBwXwwiIDKPG5o-3">
          <mxGeometry width="50" height="50" relative="1" as="geometry">
            <mxPoint x="420" y="170" as="sourcePoint" />
            <mxPoint x="540" y="300" as="targetPoint" />
          </mxGeometry>
        </mxCell>
        <mxCell id="NHc7-DwBwXwwiIDKPG5o-42" value="&lt;font style=&quot;font-size: 18px;&quot;&gt;3&lt;/font&gt;" style="edgeLabel;html=1;align=center;verticalAlign=middle;resizable=0;points=[];" vertex="1" connectable="0" parent="NHc7-DwBwXwwiIDKPG5o-41">
          <mxGeometry x="0.1795" relative="1" as="geometry">
            <mxPoint x="-38" y="5" as="offset" />
          </mxGeometry>
        </mxCell>
        <mxCell id="NHc7-DwBwXwwiIDKPG5o-43" value="" style="endArrow=none;html=1;rounded=0;entryX=0;entryY=0;entryDx=0;entryDy=0;exitX=0.5;exitY=1;exitDx=0;exitDy=0;" edge="1" parent="1" source="NHc7-DwBwXwwiIDKPG5o-5" target="NHc7-DwBwXwwiIDKPG5o-3">
          <mxGeometry width="50" height="50" relative="1" as="geometry">
            <mxPoint x="750" y="550" as="sourcePoint" />
            <mxPoint x="840" y="360" as="targetPoint" />
          </mxGeometry>
        </mxCell>
        <mxCell id="NHc7-DwBwXwwiIDKPG5o-44" value="&lt;font style=&quot;font-size: 18px;&quot;&gt;2&lt;/font&gt;" style="edgeLabel;html=1;align=center;verticalAlign=middle;resizable=0;points=[];" vertex="1" connectable="0" parent="NHc7-DwBwXwwiIDKPG5o-43">
          <mxGeometry x="0.7079" relative="1" as="geometry">
            <mxPoint y="-1" as="offset" />
          </mxGeometry>
        </mxCell>
        <mxCell id="NHc7-DwBwXwwiIDKPG5o-45" value="" style="endArrow=none;html=1;rounded=0;exitX=1;exitY=1;exitDx=0;exitDy=0;entryX=0;entryY=0;entryDx=0;entryDy=0;" edge="1" parent="1" source="NHc7-DwBwXwwiIDKPG5o-6" target="NHc7-DwBwXwwiIDKPG5o-3">
          <mxGeometry width="50" height="50" relative="1" as="geometry">
            <mxPoint x="780" y="90" as="sourcePoint" />
            <mxPoint x="700" y="520" as="targetPoint" />
          </mxGeometry>
        </mxCell>
        <mxCell id="NHc7-DwBwXwwiIDKPG5o-46" value="&lt;font style=&quot;font-size: 18px;&quot;&gt;3&lt;/font&gt;" style="edgeLabel;html=1;align=center;verticalAlign=middle;resizable=0;points=[];" vertex="1" connectable="0" parent="NHc7-DwBwXwwiIDKPG5o-45">
          <mxGeometry x="0.6998" y="1" relative="1" as="geometry">
            <mxPoint as="offset" />
          </mxGeometry>
        </mxCell>
        <mxCell id="NHc7-DwBwXwwiIDKPG5o-47" value="" style="endArrow=none;html=1;rounded=0;exitX=1;exitY=1;exitDx=0;exitDy=0;entryX=0;entryY=0;entryDx=0;entryDy=0;" edge="1" parent="1" source="NHc7-DwBwXwwiIDKPG5o-7" target="NHc7-DwBwXwwiIDKPG5o-3">
          <mxGeometry width="50" height="50" relative="1" as="geometry">
            <mxPoint x="524" y="84" as="sourcePoint" />
            <mxPoint x="660" y="480" as="targetPoint" />
          </mxGeometry>
        </mxCell>
        <mxCell id="NHc7-DwBwXwwiIDKPG5o-48" value="&lt;font style=&quot;font-size: 18px;&quot;&gt;4&lt;/font&gt;" style="edgeLabel;html=1;align=center;verticalAlign=middle;resizable=0;points=[];" vertex="1" connectable="0" parent="NHc7-DwBwXwwiIDKPG5o-47">
          <mxGeometry x="0.5453" y="1" relative="1" as="geometry">
            <mxPoint as="offset" />
          </mxGeometry>
        </mxCell>
        <mxCell id="NHc7-DwBwXwwiIDKPG5o-49" value="" style="endArrow=none;html=1;rounded=0;exitX=1;exitY=0.5;exitDx=0;exitDy=0;entryX=0;entryY=0.5;entryDx=0;entryDy=0;" edge="1" parent="1" source="NHc7-DwBwXwwiIDKPG5o-8" target="NHc7-DwBwXwwiIDKPG5o-3">
          <mxGeometry width="50" height="50" relative="1" as="geometry">
            <mxPoint x="284" y="104" as="sourcePoint" />
            <mxPoint x="700" y="640" as="targetPoint" />
          </mxGeometry>
        </mxCell>
        <mxCell id="NHc7-DwBwXwwiIDKPG5o-50" value="&lt;font style=&quot;font-size: 18px;&quot;&gt;4&lt;/font&gt;" style="edgeLabel;html=1;align=center;verticalAlign=middle;resizable=0;points=[];" vertex="1" connectable="0" parent="NHc7-DwBwXwwiIDKPG5o-49">
          <mxGeometry x="0.67" y="2" relative="1" as="geometry">
            <mxPoint as="offset" />
          </mxGeometry>
        </mxCell>
        <mxCell id="NHc7-DwBwXwwiIDKPG5o-51" value="" style="endArrow=none;html=1;rounded=0;exitX=1;exitY=1;exitDx=0;exitDy=0;entryX=0;entryY=0.5;entryDx=0;entryDy=0;fillColor=#d5e8d4;strokeColor=#82b366;strokeWidth=5;" edge="1" parent="1" source="NHc7-DwBwXwwiIDKPG5o-9" target="NHc7-DwBwXwwiIDKPG5o-3">
          <mxGeometry width="50" height="50" relative="1" as="geometry">
            <mxPoint x="420" y="380" as="sourcePoint" />
            <mxPoint x="650" y="650" as="targetPoint" />
          </mxGeometry>
        </mxCell>
        <mxCell id="NHc7-DwBwXwwiIDKPG5o-52" value="&lt;font style=&quot;font-size: 18px;&quot;&gt;1&lt;/font&gt;" style="edgeLabel;html=1;align=center;verticalAlign=middle;resizable=0;points=[];" vertex="1" connectable="0" parent="NHc7-DwBwXwwiIDKPG5o-51">
          <mxGeometry x="0.6417" relative="1" as="geometry">
            <mxPoint as="offset" />
          </mxGeometry>
        </mxCell>
        <mxCell id="NHc7-DwBwXwwiIDKPG5o-53" value="" style="endArrow=none;html=1;rounded=0;entryX=0;entryY=0.5;entryDx=0;entryDy=0;exitX=1;exitY=1;exitDx=0;exitDy=0;" edge="1" parent="1" source="NHc7-DwBwXwwiIDKPG5o-10" target="NHc7-DwBwXwwiIDKPG5o-3">
          <mxGeometry width="50" height="50" relative="1" as="geometry">
            <mxPoint x="40" y="220" as="sourcePoint" />
            <mxPoint x="690" y="520" as="targetPoint" />
          </mxGeometry>
        </mxCell>
        <mxCell id="NHc7-DwBwXwwiIDKPG5o-54" value="&lt;font style=&quot;font-size: 18px;&quot;&gt;3&lt;/font&gt;" style="edgeLabel;html=1;align=center;verticalAlign=middle;resizable=0;points=[];" vertex="1" connectable="0" parent="NHc7-DwBwXwwiIDKPG5o-53">
          <mxGeometry x="0.4904" y="3" relative="1" as="geometry">
            <mxPoint x="1" as="offset" />
          </mxGeometry>
        </mxCell>
        <mxCell id="NHc7-DwBwXwwiIDKPG5o-55" value="" style="endArrow=none;html=1;rounded=0;exitX=1;exitY=0;exitDx=0;exitDy=0;entryX=0;entryY=1;entryDx=0;entryDy=0;fillColor=#fff2cc;strokeColor=#d6b656;strokeWidth=5;" edge="1" parent="1" source="NHc7-DwBwXwwiIDKPG5o-4" target="NHc7-DwBwXwwiIDKPG5o-5">
          <mxGeometry width="50" height="50" relative="1" as="geometry">
            <mxPoint x="440" y="610" as="sourcePoint" />
            <mxPoint x="730" y="570" as="targetPoint" />
          </mxGeometry>
        </mxCell>
        <mxCell id="NHc7-DwBwXwwiIDKPG5o-56" value="&lt;font style=&quot;font-size: 18px;&quot;&gt;1&lt;/font&gt;" style="edgeLabel;html=1;align=center;verticalAlign=middle;resizable=0;points=[];" vertex="1" connectable="0" parent="NHc7-DwBwXwwiIDKPG5o-55">
          <mxGeometry x="-0.6063" relative="1" as="geometry">
            <mxPoint x="1" as="offset" />
          </mxGeometry>
        </mxCell>
        <mxCell id="NHc7-DwBwXwwiIDKPG5o-57" value="" style="endArrow=none;html=1;rounded=0;entryX=0.5;entryY=1;entryDx=0;entryDy=0;exitX=0;exitY=0;exitDx=0;exitDy=0;" edge="1" parent="1" source="NHc7-DwBwXwwiIDKPG5o-4" target="NHc7-DwBwXwwiIDKPG5o-7">
          <mxGeometry width="50" height="50" relative="1" as="geometry">
            <mxPoint x="300" y="590" as="sourcePoint" />
            <mxPoint x="766" y="84" as="targetPoint" />
          </mxGeometry>
        </mxCell>
        <mxCell id="NHc7-DwBwXwwiIDKPG5o-58" value="&lt;font style=&quot;font-size: 18px;&quot;&gt;2&lt;/font&gt;" style="edgeLabel;html=1;align=center;verticalAlign=middle;resizable=0;points=[];" vertex="1" connectable="0" parent="NHc7-DwBwXwwiIDKPG5o-57">
          <mxGeometry x="-0.5269" relative="1" as="geometry">
            <mxPoint as="offset" />
          </mxGeometry>
        </mxCell>
        <mxCell id="NHc7-DwBwXwwiIDKPG5o-59" value="" style="endArrow=none;html=1;rounded=0;entryX=1;entryY=1;entryDx=0;entryDy=0;exitX=0;exitY=0.5;exitDx=0;exitDy=0;" edge="1" parent="1" source="NHc7-DwBwXwwiIDKPG5o-4" target="NHc7-DwBwXwwiIDKPG5o-8">
          <mxGeometry width="50" height="50" relative="1" as="geometry">
            <mxPoint x="320" y="630" as="sourcePoint" />
            <mxPoint x="270" y="110" as="targetPoint" />
          </mxGeometry>
        </mxCell>
        <mxCell id="NHc7-DwBwXwwiIDKPG5o-60" value="&lt;font style=&quot;font-size: 18px;&quot;&gt;2&lt;/font&gt;" style="edgeLabel;html=1;align=center;verticalAlign=middle;resizable=0;points=[];" vertex="1" connectable="0" parent="NHc7-DwBwXwwiIDKPG5o-59">
          <mxGeometry x="-0.1074" y="-2" relative="1" as="geometry">
            <mxPoint as="offset" />
          </mxGeometry>
        </mxCell>
        <mxCell id="NHc7-DwBwXwwiIDKPG5o-61" value="" style="endArrow=none;html=1;rounded=0;entryX=0.5;entryY=1;entryDx=0;entryDy=0;exitX=0;exitY=0.5;exitDx=0;exitDy=0;" edge="1" parent="1" source="NHc7-DwBwXwwiIDKPG5o-4" target="NHc7-DwBwXwwiIDKPG5o-9">
          <mxGeometry width="50" height="50" relative="1" as="geometry">
            <mxPoint x="400" y="610" as="sourcePoint" />
            <mxPoint x="164" y="584" as="targetPoint" />
          </mxGeometry>
        </mxCell>
        <mxCell id="NHc7-DwBwXwwiIDKPG5o-62" value="&lt;font style=&quot;font-size: 18px;&quot;&gt;3&lt;/font&gt;" style="edgeLabel;html=1;align=center;verticalAlign=middle;resizable=0;points=[];" vertex="1" connectable="0" parent="NHc7-DwBwXwwiIDKPG5o-61">
          <mxGeometry x="0.1261" y="3" relative="1" as="geometry">
            <mxPoint as="offset" />
          </mxGeometry>
        </mxCell>
        <mxCell id="NHc7-DwBwXwwiIDKPG5o-63" value="" style="endArrow=none;html=1;rounded=0;entryX=1;entryY=1;entryDx=0;entryDy=0;exitX=0;exitY=0;exitDx=0;exitDy=0;fillColor=#dae8fc;strokeColor=#6c8ebf;strokeWidth=5;" edge="1" parent="1" source="NHc7-DwBwXwwiIDKPG5o-4" target="NHc7-DwBwXwwiIDKPG5o-10">
          <mxGeometry width="50" height="50" relative="1" as="geometry">
            <mxPoint x="380" y="650" as="sourcePoint" />
            <mxPoint x="60" y="410" as="targetPoint" />
          </mxGeometry>
        </mxCell>
        <mxCell id="NHc7-DwBwXwwiIDKPG5o-64" value="&lt;font style=&quot;font-size: 18px;&quot;&gt;1&lt;/font&gt;" style="edgeLabel;html=1;align=center;verticalAlign=middle;resizable=0;points=[];" vertex="1" connectable="0" parent="NHc7-DwBwXwwiIDKPG5o-63">
          <mxGeometry x="-0.7178" y="-6" relative="1" as="geometry">
            <mxPoint y="1" as="offset" />
          </mxGeometry>
        </mxCell>
        <mxCell id="NHc7-DwBwXwwiIDKPG5o-65" value="" style="endArrow=none;html=1;rounded=0;entryX=1;entryY=0.5;entryDx=0;entryDy=0;exitX=0;exitY=0.5;exitDx=0;exitDy=0;" edge="1" parent="1" source="NHc7-DwBwXwwiIDKPG5o-5" target="NHc7-DwBwXwwiIDKPG5o-6">
          <mxGeometry width="50" height="50" relative="1" as="geometry">
            <mxPoint x="720" y="50" as="sourcePoint" />
            <mxPoint x="420" y="340" as="targetPoint" />
          </mxGeometry>
        </mxCell>
        <mxCell id="NHc7-DwBwXwwiIDKPG5o-66" value="&lt;font style=&quot;font-size: 18px;&quot;&gt;1&lt;/font&gt;" style="edgeLabel;html=1;align=center;verticalAlign=middle;resizable=0;points=[];" vertex="1" connectable="0" parent="NHc7-DwBwXwwiIDKPG5o-65">
          <mxGeometry x="-0.1528" relative="1" as="geometry">
            <mxPoint as="offset" />
          </mxGeometry>
        </mxCell>
        <mxCell id="NHc7-DwBwXwwiIDKPG5o-67" value="" style="endArrow=none;html=1;rounded=0;entryX=0;entryY=0;entryDx=0;entryDy=0;exitX=1;exitY=0.5;exitDx=0;exitDy=0;" edge="1" parent="1" source="NHc7-DwBwXwwiIDKPG5o-7" target="NHc7-DwBwXwwiIDKPG5o-5">
          <mxGeometry width="50" height="50" relative="1" as="geometry">
            <mxPoint x="760" y="70" as="sourcePoint" />
            <mxPoint x="530" y="70" as="targetPoint" />
          </mxGeometry>
        </mxCell>
        <mxCell id="NHc7-DwBwXwwiIDKPG5o-68" value="&lt;font style=&quot;font-size: 18px;&quot;&gt;2&lt;/font&gt;" style="edgeLabel;html=1;align=center;verticalAlign=middle;resizable=0;points=[];" vertex="1" connectable="0" parent="NHc7-DwBwXwwiIDKPG5o-67">
          <mxGeometry x="0.1525" y="2" relative="1" as="geometry">
            <mxPoint as="offset" />
          </mxGeometry>
        </mxCell>
        <mxCell id="NHc7-DwBwXwwiIDKPG5o-69" value="" style="endArrow=none;html=1;rounded=0;exitX=0;exitY=0.5;exitDx=0;exitDy=0;entryX=1;entryY=0;entryDx=0;entryDy=0;" edge="1" parent="1" source="NHc7-DwBwXwwiIDKPG5o-5" target="NHc7-DwBwXwwiIDKPG5o-8">
          <mxGeometry width="50" height="50" relative="1" as="geometry">
            <mxPoint x="434" y="596" as="sourcePoint" />
            <mxPoint x="766" y="84" as="targetPoint" />
          </mxGeometry>
        </mxCell>
        <mxCell id="NHc7-DwBwXwwiIDKPG5o-70" value="&lt;font style=&quot;font-size: 18px;&quot;&gt;2&lt;/font&gt;" style="edgeLabel;html=1;align=center;verticalAlign=middle;resizable=0;points=[];" vertex="1" connectable="0" parent="NHc7-DwBwXwwiIDKPG5o-69">
          <mxGeometry x="-0.363" y="2" relative="1" as="geometry">
            <mxPoint as="offset" />
          </mxGeometry>
        </mxCell>
        <mxCell id="NHc7-DwBwXwwiIDKPG5o-71" value="" style="endArrow=none;html=1;rounded=0;exitX=0;exitY=0.5;exitDx=0;exitDy=0;entryX=1;entryY=0;entryDx=0;entryDy=0;" edge="1" parent="1" source="NHc7-DwBwXwwiIDKPG5o-5" target="NHc7-DwBwXwwiIDKPG5o-9">
          <mxGeometry width="50" height="50" relative="1" as="geometry">
            <mxPoint x="766" y="84" as="sourcePoint" />
            <mxPoint x="100" y="330" as="targetPoint" />
          </mxGeometry>
        </mxCell>
        <mxCell id="NHc7-DwBwXwwiIDKPG5o-72" value="&lt;font style=&quot;font-size: 18px;&quot;&gt;2&lt;/font&gt;" style="edgeLabel;html=1;align=center;verticalAlign=middle;resizable=0;points=[];" vertex="1" connectable="0" parent="NHc7-DwBwXwwiIDKPG5o-71">
          <mxGeometry x="0.0839" y="-2" relative="1" as="geometry">
            <mxPoint as="offset" />
          </mxGeometry>
        </mxCell>
        <mxCell id="NHc7-DwBwXwwiIDKPG5o-73" value="" style="endArrow=none;html=1;rounded=0;exitX=0;exitY=0;exitDx=0;exitDy=0;entryX=1;entryY=1;entryDx=0;entryDy=0;fillColor=#dae8fc;strokeColor=#6c8ebf;strokeWidth=5;" edge="1" parent="1" source="NHc7-DwBwXwwiIDKPG5o-6" target="NHc7-DwBwXwwiIDKPG5o-7">
          <mxGeometry width="50" height="50" relative="1" as="geometry">
            <mxPoint x="820" y="340" as="sourcePoint" />
            <mxPoint x="340" y="-100" as="targetPoint" />
          </mxGeometry>
        </mxCell>
        <mxCell id="NHc7-DwBwXwwiIDKPG5o-74" value="&lt;font style=&quot;font-size: 18px;&quot;&gt;1&lt;/font&gt;" style="edgeLabel;html=1;align=center;verticalAlign=middle;resizable=0;points=[];" vertex="1" connectable="0" parent="NHc7-DwBwXwwiIDKPG5o-73">
          <mxGeometry x="-0.1132" y="4" relative="1" as="geometry">
            <mxPoint x="-1" as="offset" />
          </mxGeometry>
        </mxCell>
        <mxCell id="NHc7-DwBwXwwiIDKPG5o-75" value="" style="endArrow=none;html=1;rounded=0;entryX=0;entryY=1;entryDx=0;entryDy=0;exitX=0.5;exitY=0;exitDx=0;exitDy=0;fillColor=#dae8fc;strokeColor=#6c8ebf;strokeWidth=5;" edge="1" parent="1" source="NHc7-DwBwXwwiIDKPG5o-8" target="NHc7-DwBwXwwiIDKPG5o-6">
          <mxGeometry width="50" height="50" relative="1" as="geometry">
            <mxPoint x="10" y="490" as="sourcePoint" />
            <mxPoint x="280" y="10" as="targetPoint" />
          </mxGeometry>
        </mxCell>
        <mxCell id="NHc7-DwBwXwwiIDKPG5o-76" value="&lt;font style=&quot;font-size: 18px;&quot;&gt;1&lt;/font&gt;" style="edgeLabel;html=1;align=center;verticalAlign=middle;resizable=0;points=[];" vertex="1" connectable="0" parent="NHc7-DwBwXwwiIDKPG5o-75">
          <mxGeometry x="0.6803" relative="1" as="geometry">
            <mxPoint as="offset" />
          </mxGeometry>
        </mxCell>
        <mxCell id="NHc7-DwBwXwwiIDKPG5o-77" value="" style="endArrow=none;html=1;rounded=0;entryX=0;entryY=0.5;entryDx=0;entryDy=0;exitX=0.5;exitY=0;exitDx=0;exitDy=0;" edge="1" parent="1" source="NHc7-DwBwXwwiIDKPG5o-9" target="NHc7-DwBwXwwiIDKPG5o-6">
          <mxGeometry width="50" height="50" relative="1" as="geometry">
            <mxPoint x="70" y="530" as="sourcePoint" />
            <mxPoint x="496" y="94" as="targetPoint" />
          </mxGeometry>
        </mxCell>
        <mxCell id="NHc7-DwBwXwwiIDKPG5o-78" value="&lt;font style=&quot;font-size: 18px;&quot;&gt;3&lt;/font&gt;" style="edgeLabel;html=1;align=center;verticalAlign=middle;resizable=0;points=[];" vertex="1" connectable="0" parent="NHc7-DwBwXwwiIDKPG5o-77">
          <mxGeometry x="0.1049" y="1" relative="1" as="geometry">
            <mxPoint as="offset" />
          </mxGeometry>
        </mxCell>
        <mxCell id="NHc7-DwBwXwwiIDKPG5o-79" value="" style="endArrow=none;html=1;rounded=0;entryX=1;entryY=0;entryDx=0;entryDy=0;exitX=0;exitY=0.5;exitDx=0;exitDy=0;fillColor=#fff2cc;strokeColor=#d6b656;strokeWidth=5;" edge="1" parent="1" source="NHc7-DwBwXwwiIDKPG5o-6" target="NHc7-DwBwXwwiIDKPG5o-10">
          <mxGeometry width="50" height="50" relative="1" as="geometry">
            <mxPoint x="60" y="370" as="sourcePoint" />
            <mxPoint x="490" y="80" as="targetPoint" />
          </mxGeometry>
        </mxCell>
        <mxCell id="NHc7-DwBwXwwiIDKPG5o-80" value="&lt;font style=&quot;font-size: 18px;&quot;&gt;1&lt;/font&gt;" style="edgeLabel;html=1;align=center;verticalAlign=middle;resizable=0;points=[];" vertex="1" connectable="0" parent="NHc7-DwBwXwwiIDKPG5o-79">
          <mxGeometry x="-0.7553" y="-5" relative="1" as="geometry">
            <mxPoint as="offset" />
          </mxGeometry>
        </mxCell>
        <mxCell id="NHc7-DwBwXwwiIDKPG5o-81" value="" style="endArrow=none;html=1;rounded=0;entryX=0;entryY=1;entryDx=0;entryDy=0;exitX=0.5;exitY=0;exitDx=0;exitDy=0;" edge="1" parent="1" source="NHc7-DwBwXwwiIDKPG5o-9" target="NHc7-DwBwXwwiIDKPG5o-7">
          <mxGeometry width="50" height="50" relative="1" as="geometry">
            <mxPoint x="406" y="596" as="sourcePoint" />
            <mxPoint x="280" y="10" as="targetPoint" />
          </mxGeometry>
        </mxCell>
        <mxCell id="NHc7-DwBwXwwiIDKPG5o-82" value="&lt;font style=&quot;font-size: 18px;&quot;&gt;3&lt;/font&gt;" style="edgeLabel;html=1;align=center;verticalAlign=middle;resizable=0;points=[];" vertex="1" connectable="0" parent="NHc7-DwBwXwwiIDKPG5o-81">
          <mxGeometry x="0.5893" y="1" relative="1" as="geometry">
            <mxPoint x="1" y="-1" as="offset" />
          </mxGeometry>
        </mxCell>
        <mxCell id="NHc7-DwBwXwwiIDKPG5o-83" value="" style="endArrow=none;html=1;rounded=0;exitX=0.5;exitY=0;exitDx=0;exitDy=0;entryX=0;entryY=0.5;entryDx=0;entryDy=0;" edge="1" parent="1" source="NHc7-DwBwXwwiIDKPG5o-10" target="NHc7-DwBwXwwiIDKPG5o-7">
          <mxGeometry width="50" height="50" relative="1" as="geometry">
            <mxPoint x="60" y="370" as="sourcePoint" />
            <mxPoint x="120" y="4" as="targetPoint" />
          </mxGeometry>
        </mxCell>
        <mxCell id="NHc7-DwBwXwwiIDKPG5o-84" value="&lt;font style=&quot;font-size: 18px;&quot;&gt;2&lt;/font&gt;" style="edgeLabel;html=1;align=center;verticalAlign=middle;resizable=0;points=[];" vertex="1" connectable="0" parent="NHc7-DwBwXwwiIDKPG5o-83">
          <mxGeometry x="-0.1745" y="-6" relative="1" as="geometry">
            <mxPoint as="offset" />
          </mxGeometry>
        </mxCell>
        <mxCell id="NHc7-DwBwXwwiIDKPG5o-85" value="" style="endArrow=none;html=1;rounded=0;entryX=0.5;entryY=0;entryDx=0;entryDy=0;exitX=0.5;exitY=1;exitDx=0;exitDy=0;" edge="1" parent="1" source="NHc7-DwBwXwwiIDKPG5o-9" target="NHc7-DwBwXwwiIDKPG5o-8">
          <mxGeometry width="50" height="50" relative="1" as="geometry">
            <mxPoint x="400" y="610" as="sourcePoint" />
            <mxPoint x="64" y="544" as="targetPoint" />
          </mxGeometry>
        </mxCell>
        <mxCell id="NHc7-DwBwXwwiIDKPG5o-86" value="&lt;font style=&quot;font-size: 18px;&quot;&gt;3&lt;/font&gt;" style="edgeLabel;html=1;align=center;verticalAlign=middle;resizable=0;points=[];" vertex="1" connectable="0" parent="NHc7-DwBwXwwiIDKPG5o-85">
          <mxGeometry x="-0.3115" y="-1" relative="1" as="geometry">
            <mxPoint as="offset" />
          </mxGeometry>
        </mxCell>
        <mxCell id="NHc7-DwBwXwwiIDKPG5o-87" value="" style="endArrow=none;html=1;rounded=0;entryX=0;entryY=1;entryDx=0;entryDy=0;exitX=0.5;exitY=0;exitDx=0;exitDy=0;" edge="1" parent="1" source="NHc7-DwBwXwwiIDKPG5o-8" target="NHc7-DwBwXwwiIDKPG5o-10">
          <mxGeometry width="50" height="50" relative="1" as="geometry">
            <mxPoint x="60" y="410" as="sourcePoint" />
            <mxPoint x="50" y="510" as="targetPoint" />
          </mxGeometry>
        </mxCell>
        <mxCell id="NHc7-DwBwXwwiIDKPG5o-88" value="&lt;font style=&quot;font-size: 18px;&quot;&gt;2&lt;/font&gt;" style="edgeLabel;html=1;align=center;verticalAlign=middle;resizable=0;points=[];" vertex="1" connectable="0" parent="NHc7-DwBwXwwiIDKPG5o-87">
          <mxGeometry x="-0.1011" y="1" relative="1" as="geometry">
            <mxPoint y="-1" as="offset" />
          </mxGeometry>
        </mxCell>
        <mxCell id="NHc7-DwBwXwwiIDKPG5o-89" value="" style="endArrow=none;html=1;rounded=0;exitX=0.5;exitY=0;exitDx=0;exitDy=0;entryX=0.5;entryY=1;entryDx=0;entryDy=0;" edge="1" parent="1" source="NHc7-DwBwXwwiIDKPG5o-9" target="NHc7-DwBwXwwiIDKPG5o-10">
          <mxGeometry width="50" height="50" relative="1" as="geometry">
            <mxPoint x="74" y="376" as="sourcePoint" />
            <mxPoint x="400" y="360" as="targetPoint" />
          </mxGeometry>
        </mxCell>
        <mxCell id="NHc7-DwBwXwwiIDKPG5o-90" value="&lt;font style=&quot;font-size: 18px;&quot;&gt;2&lt;/font&gt;" style="edgeLabel;html=1;align=center;verticalAlign=middle;resizable=0;points=[];" vertex="1" connectable="0" parent="NHc7-DwBwXwwiIDKPG5o-89">
          <mxGeometry x="-0.1893" y="2" relative="1" as="geometry">
            <mxPoint y="1" as="offset" />
          </mxGeometry>
        </mxCell>
        <mxCell id="DwCkhiA9l4F0P0gFWWJz-1" value="&lt;font style=&quot;font-size: 30px;&quot;&gt;A, I, C, B, E, D, J, F, G, backtrack, H&lt;/font&gt;" style="text;html=1;align=center;verticalAlign=middle;resizable=0;points=[];autosize=1;strokeColor=none;fillColor=none;" vertex="1" parent="1">
          <mxGeometry x="210" y="780" width="510" height="50" as="geometry" />
        </mxCell>
      </root>
    </mxGraphModel>
  </diagram>
  <diagram id="zK9I4Bc3DC57kjp19Z6i" name="hasil_layout">
    <mxGraphModel dx="1059" dy="1684" grid="1" gridSize="10" guides="1" tooltips="1" connect="1" arrows="1" fold="1" page="1" pageScale="1" pageWidth="850" pageHeight="1100" math="0" shadow="0">
      <root>
        <mxCell id="0" />
        <mxCell id="1" parent="0" />
        <mxCell id="MmXNrqgYkrqW-OUpu6Uo-1" value="" style="rounded=0;whiteSpace=wrap;html=1;" vertex="1" parent="1">
          <mxGeometry x="45" y="-160" width="760" height="480" as="geometry" />
        </mxCell>
        <mxCell id="JsRwMv9gg8VWyIJyJ0rK-1" value="Kopi&lt;br&gt;Susu UHT" style="rounded=0;whiteSpace=wrap;html=1;fillColor=#d5e8d4;strokeColor=#82b366;" vertex="1" parent="1">
          <mxGeometry x="80" y="-140" width="260" height="80" as="geometry" />
        </mxCell>
        <mxCell id="eKQAqS6-OKB5XGWLhD0A-1" value="Mi instan&lt;br&gt;Roti" style="rounded=0;whiteSpace=wrap;html=1;fillColor=#f8cecc;strokeColor=#b85450;" vertex="1" parent="1">
          <mxGeometry x="80" y="-25" width="80" height="275" as="geometry" />
        </mxCell>
        <mxCell id="6m2stwK30ukMpoeQbcuA-1" value="Sabun Wajah&lt;br&gt;Parfum" style="rounded=0;whiteSpace=wrap;html=1;fillColor=#fff2cc;strokeColor=#d6b656;" vertex="1" parent="1">
          <mxGeometry x="220" y="-25" width="80" height="275" as="geometry" />
        </mxCell>
        <mxCell id="0-lUw01GDr5z_v8k7VKV-1" value="Sampo&lt;br&gt;Sabun" style="rounded=0;whiteSpace=wrap;html=1;fillColor=#dae8fc;strokeColor=#6c8ebf;" vertex="1" parent="1">
          <mxGeometry x="370" y="-25" width="80" height="275" as="geometry" />
        </mxCell>
        <mxCell id="UBWfq6FtEQduf13zsckz-1" value="Minyak Kayu Putih&lt;br&gt;Obat tetes mata" style="rounded=0;whiteSpace=wrap;html=1;fillColor=#e1d5e7;strokeColor=#9673a6;" vertex="1" parent="1">
          <mxGeometry x="520" y="-25" width="80" height="275" as="geometry" />
        </mxCell>
        <mxCell id="VnvwON1b31GFx4imL7Ok-1" value="Kasir" style="rounded=0;whiteSpace=wrap;html=1;" vertex="1" parent="1">
          <mxGeometry x="690" y="100" width="80" height="175" as="geometry" />
        </mxCell>
      </root>
    </mxGraphModel>
  </diagram>
  <diagram name="teori_backtracking" id="H_v24VYcVnoT68Lb8eUI">
    <mxGraphModel dx="794" dy="438" grid="1" gridSize="10" guides="1" tooltips="1" connect="1" arrows="1" fold="1" page="1" pageScale="1" pageWidth="850" pageHeight="1100" math="0" shadow="0">
      <root>
        <mxCell id="0" />
        <mxCell id="1" parent="0" />
        <mxCell id="mUYBla4E1hvQZP1hlSpx-1" value="A" style="ellipse;whiteSpace=wrap;html=1;aspect=fixed;" parent="1" vertex="1">
          <mxGeometry x="420" y="140" width="40" height="40" as="geometry" />
        </mxCell>
        <mxCell id="mUYBla4E1hvQZP1hlSpx-2" value="B" style="ellipse;whiteSpace=wrap;html=1;aspect=fixed;" parent="1" vertex="1">
          <mxGeometry x="380" y="200" width="40" height="40" as="geometry" />
        </mxCell>
        <mxCell id="mUYBla4E1hvQZP1hlSpx-3" value="C" style="ellipse;whiteSpace=wrap;html=1;aspect=fixed;" parent="1" vertex="1">
          <mxGeometry x="460" y="200" width="40" height="40" as="geometry" />
        </mxCell>
        <mxCell id="mUYBla4E1hvQZP1hlSpx-4" value="D" style="ellipse;whiteSpace=wrap;html=1;aspect=fixed;" parent="1" vertex="1">
          <mxGeometry x="340" y="270" width="40" height="40" as="geometry" />
        </mxCell>
        <mxCell id="mUYBla4E1hvQZP1hlSpx-5" value="E" style="ellipse;whiteSpace=wrap;html=1;aspect=fixed;fillColor=#d5e8d4;strokeColor=#82b366;" parent="1" vertex="1">
          <mxGeometry x="420" y="270" width="40" height="40" as="geometry" />
        </mxCell>
        <mxCell id="mUYBla4E1hvQZP1hlSpx-7" value="" style="endArrow=classic;html=1;rounded=0;exitX=0.5;exitY=1;exitDx=0;exitDy=0;entryX=0.5;entryY=0;entryDx=0;entryDy=0;" parent="1" source="mUYBla4E1hvQZP1hlSpx-1" target="mUYBla4E1hvQZP1hlSpx-2" edge="1">
          <mxGeometry width="50" height="50" relative="1" as="geometry">
            <mxPoint x="380" y="340" as="sourcePoint" />
            <mxPoint x="400" y="210" as="targetPoint" />
          </mxGeometry>
        </mxCell>
        <mxCell id="mUYBla4E1hvQZP1hlSpx-8" value="" style="endArrow=classic;html=1;rounded=0;exitX=0.5;exitY=1;exitDx=0;exitDy=0;entryX=0.5;entryY=0;entryDx=0;entryDy=0;" parent="1" source="mUYBla4E1hvQZP1hlSpx-1" target="mUYBla4E1hvQZP1hlSpx-3" edge="1">
          <mxGeometry width="50" height="50" relative="1" as="geometry">
            <mxPoint x="450" y="190" as="sourcePoint" />
            <mxPoint x="410" y="210" as="targetPoint" />
          </mxGeometry>
        </mxCell>
        <mxCell id="mUYBla4E1hvQZP1hlSpx-9" value="" style="endArrow=classic;html=1;rounded=0;exitX=0.5;exitY=1;exitDx=0;exitDy=0;entryX=0.5;entryY=0;entryDx=0;entryDy=0;" parent="1" source="mUYBla4E1hvQZP1hlSpx-2" target="mUYBla4E1hvQZP1hlSpx-4" edge="1">
          <mxGeometry width="50" height="50" relative="1" as="geometry">
            <mxPoint x="450" y="190" as="sourcePoint" />
            <mxPoint x="410" y="210" as="targetPoint" />
          </mxGeometry>
        </mxCell>
        <mxCell id="mUYBla4E1hvQZP1hlSpx-10" value="" style="endArrow=classic;html=1;rounded=0;exitX=0.5;exitY=1;exitDx=0;exitDy=0;entryX=0.5;entryY=0;entryDx=0;entryDy=0;" parent="1" source="mUYBla4E1hvQZP1hlSpx-2" target="mUYBla4E1hvQZP1hlSpx-5" edge="1">
          <mxGeometry width="50" height="50" relative="1" as="geometry">
            <mxPoint x="410" y="250" as="sourcePoint" />
            <mxPoint x="370" y="280" as="targetPoint" />
          </mxGeometry>
        </mxCell>
        <mxCell id="mUYBla4E1hvQZP1hlSpx-12" value="" style="endArrow=classic;html=1;rounded=0;edgeStyle=orthogonalEdgeStyle;curved=1;targetPerimeterSpacing=0;" parent="1" edge="1">
          <mxGeometry width="50" height="50" relative="1" as="geometry">
            <mxPoint x="376" y="220" as="sourcePoint" />
            <mxPoint x="336" y="280" as="targetPoint" />
          </mxGeometry>
        </mxCell>
        <mxCell id="mUYBla4E1hvQZP1hlSpx-13" value="" style="endArrow=classic;html=1;rounded=0;edgeStyle=orthogonalEdgeStyle;curved=1;targetPerimeterSpacing=0;" parent="1" edge="1">
          <mxGeometry width="50" height="50" relative="1" as="geometry">
            <mxPoint x="420" y="150" as="sourcePoint" />
            <mxPoint x="380" y="210" as="targetPoint" />
          </mxGeometry>
        </mxCell>
        <mxCell id="mUYBla4E1hvQZP1hlSpx-14" value="" style="endArrow=classic;html=1;rounded=0;edgeStyle=orthogonalEdgeStyle;curved=1;targetPerimeterSpacing=0;" parent="1" edge="1">
          <mxGeometry width="50" height="50" relative="1" as="geometry">
            <mxPoint x="423" y="219" as="sourcePoint" />
            <mxPoint x="463" y="279" as="targetPoint" />
          </mxGeometry>
        </mxCell>
        <mxCell id="mUYBla4E1hvQZP1hlSpx-17" value="" style="endArrow=classic;html=1;rounded=0;edgeStyle=orthogonalEdgeStyle;curved=1;exitX=0;exitY=0.5;exitDx=0;exitDy=0;" parent="1" source="mUYBla4E1hvQZP1hlSpx-4" edge="1">
          <mxGeometry width="50" height="50" relative="1" as="geometry">
            <mxPoint x="310" y="280" as="sourcePoint" />
            <mxPoint x="360" y="210" as="targetPoint" />
            <Array as="points">
              <mxPoint x="310" y="290" />
              <mxPoint x="310" y="210" />
            </Array>
          </mxGeometry>
        </mxCell>
      </root>
    </mxGraphModel>
  </diagram>
  <diagram id="qwoXGqdBDFqF1YmcZTMF" name="Page-5">
    <mxGraphModel dx="2614" dy="2073" grid="1" gridSize="10" guides="1" tooltips="1" connect="1" arrows="1" fold="1" page="1" pageScale="1" pageWidth="850" pageHeight="1100" math="0" shadow="0">
      <root>
        <mxCell id="0" />
        <mxCell id="1" parent="0" />
        <mxCell id="orR2DBVH05O4zQ2-kDLN-1" value="A" style="ellipse;whiteSpace=wrap;html=1;aspect=fixed;fillColor=#f8cecc;strokeColor=#b85450;" vertex="1" parent="1">
          <mxGeometry x="405" y="300" width="40" height="40" as="geometry" />
        </mxCell>
        <mxCell id="orR2DBVH05O4zQ2-kDLN-2" value="B" style="ellipse;whiteSpace=wrap;html=1;aspect=fixed;fillColor=#d5e8d4;strokeColor=#82b366;" vertex="1" parent="1">
          <mxGeometry x="900" y="310" width="40" height="40" as="geometry" />
        </mxCell>
        <mxCell id="orR2DBVH05O4zQ2-kDLN-3" value="C" style="ellipse;whiteSpace=wrap;html=1;aspect=fixed;fillColor=#f8cecc;strokeColor=#b85450;" vertex="1" parent="1">
          <mxGeometry x="800" y="580" width="40" height="40" as="geometry" />
        </mxCell>
        <mxCell id="orR2DBVH05O4zQ2-kDLN-4" value="D" style="ellipse;whiteSpace=wrap;html=1;aspect=fixed;fillColor=#dae8fc;strokeColor=#6c8ebf;" vertex="1" parent="1">
          <mxGeometry x="420" y="710" width="40" height="40" as="geometry" />
        </mxCell>
        <mxCell id="orR2DBVH05O4zQ2-kDLN-5" value="E" style="ellipse;whiteSpace=wrap;html=1;aspect=fixed;fillColor=#fff2cc;strokeColor=#d6b656;" vertex="1" parent="1">
          <mxGeometry x="790" y="-80" width="40" height="40" as="geometry" />
        </mxCell>
        <mxCell id="orR2DBVH05O4zQ2-kDLN-6" value="F" style="ellipse;whiteSpace=wrap;html=1;aspect=fixed;fillColor=#dae8fc;strokeColor=#6c8ebf;" vertex="1" parent="1">
          <mxGeometry x="520" y="-30" width="40" height="40" as="geometry" />
        </mxCell>
        <mxCell id="orR2DBVH05O4zQ2-kDLN-7" value="G" style="ellipse;whiteSpace=wrap;html=1;aspect=fixed;fillColor=#e1d5e7;strokeColor=#9673a6;" vertex="1" parent="1">
          <mxGeometry x="200" y="-100" width="40" height="40" as="geometry" />
        </mxCell>
        <mxCell id="orR2DBVH05O4zQ2-kDLN-8" value="H" style="ellipse;whiteSpace=wrap;html=1;aspect=fixed;fillColor=#e1d5e7;strokeColor=#9673a6;" vertex="1" parent="1">
          <mxGeometry x="-80" y="560" width="40" height="40" as="geometry" />
        </mxCell>
        <mxCell id="orR2DBVH05O4zQ2-kDLN-9" value="I" style="ellipse;whiteSpace=wrap;html=1;aspect=fixed;fillColor=#d5e8d4;strokeColor=#82b366;" vertex="1" parent="1">
          <mxGeometry x="30" y="350" width="40" height="40" as="geometry" />
        </mxCell>
        <mxCell id="orR2DBVH05O4zQ2-kDLN-10" value="J" style="ellipse;whiteSpace=wrap;html=1;aspect=fixed;fillColor=#fff2cc;strokeColor=#d6b656;" vertex="1" parent="1">
          <mxGeometry x="-110" y="140" width="40" height="40" as="geometry" />
        </mxCell>
        <mxCell id="orR2DBVH05O4zQ2-kDLN-11" value="" style="endArrow=none;html=1;rounded=0;entryX=1;entryY=0.5;entryDx=0;entryDy=0;exitX=0;exitY=0.5;exitDx=0;exitDy=0;" edge="1" parent="1" source="orR2DBVH05O4zQ2-kDLN-2" target="orR2DBVH05O4zQ2-kDLN-1">
          <mxGeometry width="50" height="50" relative="1" as="geometry">
            <mxPoint x="470" y="320" as="sourcePoint" />
            <mxPoint x="520" y="270" as="targetPoint" />
          </mxGeometry>
        </mxCell>
        <mxCell id="orR2DBVH05O4zQ2-kDLN-12" value="&lt;font style=&quot;font-size: 18px;&quot;&gt;1&lt;/font&gt;" style="edgeLabel;html=1;align=center;verticalAlign=middle;resizable=0;points=[];" vertex="1" connectable="0" parent="orR2DBVH05O4zQ2-kDLN-11">
          <mxGeometry x="0.7059" y="-4" relative="1" as="geometry">
            <mxPoint as="offset" />
          </mxGeometry>
        </mxCell>
        <mxCell id="orR2DBVH05O4zQ2-kDLN-13" value="" style="endArrow=none;html=1;rounded=0;exitX=0.5;exitY=0;exitDx=0;exitDy=0;entryX=0.5;entryY=1;entryDx=0;entryDy=0;" edge="1" parent="1" source="orR2DBVH05O4zQ2-kDLN-4" target="orR2DBVH05O4zQ2-kDLN-1">
          <mxGeometry width="50" height="50" relative="1" as="geometry">
            <mxPoint x="600" y="150" as="sourcePoint" />
            <mxPoint x="380" y="190" as="targetPoint" />
          </mxGeometry>
        </mxCell>
        <mxCell id="orR2DBVH05O4zQ2-kDLN-14" value="&lt;font style=&quot;font-size: 18px;&quot;&gt;3&lt;/font&gt;" style="edgeLabel;html=1;align=center;verticalAlign=middle;resizable=0;points=[];" vertex="1" connectable="0" parent="orR2DBVH05O4zQ2-kDLN-13">
          <mxGeometry x="0.7988" y="-1" relative="1" as="geometry">
            <mxPoint y="-1" as="offset" />
          </mxGeometry>
        </mxCell>
        <mxCell id="orR2DBVH05O4zQ2-kDLN-15" value="" style="endArrow=none;html=1;rounded=0;entryX=0.5;entryY=0;entryDx=0;entryDy=0;exitX=0;exitY=1;exitDx=0;exitDy=0;" edge="1" parent="1" source="orR2DBVH05O4zQ2-kDLN-5" target="orR2DBVH05O4zQ2-kDLN-1">
          <mxGeometry width="50" height="50" relative="1" as="geometry">
            <mxPoint x="710" y="60" as="sourcePoint" />
            <mxPoint x="360" y="200" as="targetPoint" />
          </mxGeometry>
        </mxCell>
        <mxCell id="orR2DBVH05O4zQ2-kDLN-16" value="&lt;font style=&quot;font-size: 18px;&quot;&gt;2&lt;/font&gt;" style="edgeLabel;html=1;align=center;verticalAlign=middle;resizable=0;points=[];" vertex="1" connectable="0" parent="orR2DBVH05O4zQ2-kDLN-15">
          <mxGeometry x="0.3793" relative="1" as="geometry">
            <mxPoint y="-1" as="offset" />
          </mxGeometry>
        </mxCell>
        <mxCell id="orR2DBVH05O4zQ2-kDLN-17" value="" style="endArrow=none;html=1;rounded=0;exitX=0.5;exitY=1;exitDx=0;exitDy=0;entryX=0.5;entryY=0;entryDx=0;entryDy=0;" edge="1" parent="1" source="orR2DBVH05O4zQ2-kDLN-6" target="orR2DBVH05O4zQ2-kDLN-1">
          <mxGeometry width="50" height="50" relative="1" as="geometry">
            <mxPoint x="610" y="540" as="sourcePoint" />
            <mxPoint x="450" y="120" as="targetPoint" />
          </mxGeometry>
        </mxCell>
        <mxCell id="orR2DBVH05O4zQ2-kDLN-18" value="&lt;font style=&quot;font-size: 18px;&quot;&gt;3&lt;/font&gt;" style="edgeLabel;html=1;align=center;verticalAlign=middle;resizable=0;points=[];" vertex="1" connectable="0" parent="orR2DBVH05O4zQ2-kDLN-17">
          <mxGeometry x="-0.7607" y="1" relative="1" as="geometry">
            <mxPoint as="offset" />
          </mxGeometry>
        </mxCell>
        <mxCell id="orR2DBVH05O4zQ2-kDLN-19" value="" style="endArrow=none;html=1;rounded=0;entryX=0.5;entryY=0;entryDx=0;entryDy=0;exitX=0.5;exitY=1;exitDx=0;exitDy=0;" edge="1" parent="1" source="orR2DBVH05O4zQ2-kDLN-7" target="orR2DBVH05O4zQ2-kDLN-1">
          <mxGeometry width="50" height="50" relative="1" as="geometry">
            <mxPoint x="210" y="20" as="sourcePoint" />
            <mxPoint x="320" y="260" as="targetPoint" />
          </mxGeometry>
        </mxCell>
        <mxCell id="orR2DBVH05O4zQ2-kDLN-20" value="&lt;font style=&quot;font-size: 18px;&quot;&gt;4&lt;/font&gt;" style="edgeLabel;html=1;align=center;verticalAlign=middle;resizable=0;points=[];" vertex="1" connectable="0" parent="orR2DBVH05O4zQ2-kDLN-19">
          <mxGeometry x="-0.6894" y="2" relative="1" as="geometry">
            <mxPoint x="1" as="offset" />
          </mxGeometry>
        </mxCell>
        <mxCell id="orR2DBVH05O4zQ2-kDLN-21" value="" style="endArrow=none;html=1;rounded=0;exitX=1;exitY=0.5;exitDx=0;exitDy=0;entryX=0;entryY=1;entryDx=0;entryDy=0;" edge="1" parent="1" source="orR2DBVH05O4zQ2-kDLN-8" target="orR2DBVH05O4zQ2-kDLN-1">
          <mxGeometry width="50" height="50" relative="1" as="geometry">
            <mxPoint x="254" y="526" as="sourcePoint" />
            <mxPoint x="420" y="170" as="targetPoint" />
          </mxGeometry>
        </mxCell>
        <mxCell id="orR2DBVH05O4zQ2-kDLN-22" value="&lt;font style=&quot;font-size: 18px;&quot;&gt;4&lt;/font&gt;" style="edgeLabel;html=1;align=center;verticalAlign=middle;resizable=0;points=[];" vertex="1" connectable="0" parent="orR2DBVH05O4zQ2-kDLN-21">
          <mxGeometry x="-0.4362" y="2" relative="1" as="geometry">
            <mxPoint x="1" y="-1" as="offset" />
          </mxGeometry>
        </mxCell>
        <mxCell id="orR2DBVH05O4zQ2-kDLN-23" value="" style="endArrow=none;html=1;rounded=0;entryX=0;entryY=0.5;entryDx=0;entryDy=0;exitX=1;exitY=0.5;exitDx=0;exitDy=0;fillColor=#f8cecc;strokeColor=#b85450;" edge="1" parent="1" source="orR2DBVH05O4zQ2-kDLN-9" target="orR2DBVH05O4zQ2-kDLN-1">
          <mxGeometry width="50" height="50" relative="1" as="geometry">
            <mxPoint x="170" y="370" as="sourcePoint" />
            <mxPoint x="406" y="164" as="targetPoint" />
          </mxGeometry>
        </mxCell>
        <mxCell id="orR2DBVH05O4zQ2-kDLN-24" value="&lt;font style=&quot;font-size: 18px;&quot;&gt;1&lt;/font&gt;" style="edgeLabel;html=1;align=center;verticalAlign=middle;resizable=0;points=[];" vertex="1" connectable="0" parent="orR2DBVH05O4zQ2-kDLN-23">
          <mxGeometry x="0.6297" y="-1" relative="1" as="geometry">
            <mxPoint as="offset" />
          </mxGeometry>
        </mxCell>
        <mxCell id="orR2DBVH05O4zQ2-kDLN-25" value="" style="endArrow=none;html=1;rounded=0;exitX=1;exitY=0.5;exitDx=0;exitDy=0;entryX=0;entryY=0.5;entryDx=0;entryDy=0;" edge="1" parent="1" source="orR2DBVH05O4zQ2-kDLN-10" target="orR2DBVH05O4zQ2-kDLN-1">
          <mxGeometry width="50" height="50" relative="1" as="geometry">
            <mxPoint x="254" y="276" as="sourcePoint" />
            <mxPoint x="400" y="150" as="targetPoint" />
          </mxGeometry>
        </mxCell>
        <mxCell id="orR2DBVH05O4zQ2-kDLN-26" value="&lt;span style=&quot;font-size: 18px;&quot;&gt;2&lt;/span&gt;" style="edgeLabel;html=1;align=center;verticalAlign=middle;resizable=0;points=[];" vertex="1" connectable="0" parent="orR2DBVH05O4zQ2-kDLN-25">
          <mxGeometry x="0.7631" y="4" relative="1" as="geometry">
            <mxPoint as="offset" />
          </mxGeometry>
        </mxCell>
        <mxCell id="orR2DBVH05O4zQ2-kDLN-27" value="" style="endArrow=none;html=1;rounded=0;entryX=0.5;entryY=1;entryDx=0;entryDy=0;exitX=0.5;exitY=0;exitDx=0;exitDy=0;fillColor=#f8cecc;strokeColor=#b85450;" edge="1" parent="1" source="orR2DBVH05O4zQ2-kDLN-3" target="orR2DBVH05O4zQ2-kDLN-2">
          <mxGeometry width="50" height="50" relative="1" as="geometry">
            <mxPoint x="610" y="410" as="sourcePoint" />
            <mxPoint x="434" y="164" as="targetPoint" />
          </mxGeometry>
        </mxCell>
        <mxCell id="orR2DBVH05O4zQ2-kDLN-28" value="&lt;font style=&quot;font-size: 18px;&quot;&gt;1&lt;/font&gt;" style="edgeLabel;html=1;align=center;verticalAlign=middle;resizable=0;points=[];" vertex="1" connectable="0" parent="orR2DBVH05O4zQ2-kDLN-27">
          <mxGeometry x="0.1985" y="2" relative="1" as="geometry">
            <mxPoint as="offset" />
          </mxGeometry>
        </mxCell>
        <mxCell id="orR2DBVH05O4zQ2-kDLN-29" value="" style="endArrow=none;html=1;rounded=0;entryX=0;entryY=1;entryDx=0;entryDy=0;exitX=1;exitY=0;exitDx=0;exitDy=0;" edge="1" parent="1" source="orR2DBVH05O4zQ2-kDLN-4" target="orR2DBVH05O4zQ2-kDLN-2">
          <mxGeometry width="50" height="50" relative="1" as="geometry">
            <mxPoint x="620" y="270" as="sourcePoint" />
            <mxPoint x="620" y="170" as="targetPoint" />
          </mxGeometry>
        </mxCell>
        <mxCell id="orR2DBVH05O4zQ2-kDLN-30" value="&lt;font style=&quot;font-size: 18px;&quot;&gt;3&lt;/font&gt;" style="edgeLabel;html=1;align=center;verticalAlign=middle;resizable=0;points=[];" vertex="1" connectable="0" parent="orR2DBVH05O4zQ2-kDLN-29">
          <mxGeometry x="0.8005" y="2" relative="1" as="geometry">
            <mxPoint x="-1" as="offset" />
          </mxGeometry>
        </mxCell>
        <mxCell id="orR2DBVH05O4zQ2-kDLN-31" value="" style="endArrow=none;html=1;rounded=0;entryX=0.5;entryY=0;entryDx=0;entryDy=0;exitX=0.5;exitY=1;exitDx=0;exitDy=0;fillColor=#d5e8d4;strokeColor=#82b366;" edge="1" parent="1" source="orR2DBVH05O4zQ2-kDLN-5" target="orR2DBVH05O4zQ2-kDLN-2">
          <mxGeometry width="50" height="50" relative="1" as="geometry">
            <mxPoint x="534" y="276" as="sourcePoint" />
            <mxPoint x="606" y="164" as="targetPoint" />
          </mxGeometry>
        </mxCell>
        <mxCell id="orR2DBVH05O4zQ2-kDLN-32" value="&lt;font style=&quot;font-size: 18px;&quot;&gt;2&lt;/font&gt;" style="edgeLabel;html=1;align=center;verticalAlign=middle;resizable=0;points=[];" vertex="1" connectable="0" parent="orR2DBVH05O4zQ2-kDLN-31">
          <mxGeometry x="0.1723" y="-3" relative="1" as="geometry">
            <mxPoint as="offset" />
          </mxGeometry>
        </mxCell>
        <mxCell id="orR2DBVH05O4zQ2-kDLN-33" value="" style="endArrow=none;html=1;rounded=0;entryX=1;entryY=1;entryDx=0;entryDy=0;exitX=0;exitY=0;exitDx=0;exitDy=0;" edge="1" parent="1" source="orR2DBVH05O4zQ2-kDLN-2" target="orR2DBVH05O4zQ2-kDLN-6">
          <mxGeometry width="50" height="50" relative="1" as="geometry">
            <mxPoint x="880" y="270" as="sourcePoint" />
            <mxPoint x="606" y="164" as="targetPoint" />
          </mxGeometry>
        </mxCell>
        <mxCell id="orR2DBVH05O4zQ2-kDLN-34" value="&lt;font style=&quot;font-size: 18px;&quot;&gt;3&lt;/font&gt;" style="edgeLabel;html=1;align=center;verticalAlign=middle;resizable=0;points=[];" vertex="1" connectable="0" parent="orR2DBVH05O4zQ2-kDLN-33">
          <mxGeometry x="-0.2002" relative="1" as="geometry">
            <mxPoint y="-1" as="offset" />
          </mxGeometry>
        </mxCell>
        <mxCell id="orR2DBVH05O4zQ2-kDLN-35" value="" style="endArrow=none;html=1;rounded=0;entryX=0;entryY=0;entryDx=0;entryDy=0;exitX=1;exitY=1;exitDx=0;exitDy=0;" edge="1" parent="1" source="orR2DBVH05O4zQ2-kDLN-7" target="orR2DBVH05O4zQ2-kDLN-2">
          <mxGeometry width="50" height="50" relative="1" as="geometry">
            <mxPoint x="434" y="296" as="sourcePoint" />
            <mxPoint x="606" y="164" as="targetPoint" />
          </mxGeometry>
        </mxCell>
        <mxCell id="orR2DBVH05O4zQ2-kDLN-36" value="&lt;font style=&quot;font-size: 18px;&quot;&gt;4&lt;/font&gt;" style="edgeLabel;html=1;align=center;verticalAlign=middle;resizable=0;points=[];" vertex="1" connectable="0" parent="orR2DBVH05O4zQ2-kDLN-35">
          <mxGeometry x="0.1888" y="1" relative="1" as="geometry">
            <mxPoint x="-1" y="-1" as="offset" />
          </mxGeometry>
        </mxCell>
        <mxCell id="orR2DBVH05O4zQ2-kDLN-37" value="" style="endArrow=none;html=1;rounded=0;exitX=1;exitY=0.5;exitDx=0;exitDy=0;entryX=0;entryY=1;entryDx=0;entryDy=0;" edge="1" parent="1" source="orR2DBVH05O4zQ2-kDLN-8" target="orR2DBVH05O4zQ2-kDLN-2">
          <mxGeometry width="50" height="50" relative="1" as="geometry">
            <mxPoint x="434" y="296" as="sourcePoint" />
            <mxPoint x="560" y="260" as="targetPoint" />
          </mxGeometry>
        </mxCell>
        <mxCell id="orR2DBVH05O4zQ2-kDLN-38" value="&lt;font style=&quot;font-size: 18px;&quot;&gt;4&lt;/font&gt;" style="edgeLabel;html=1;align=center;verticalAlign=middle;resizable=0;points=[];" vertex="1" connectable="0" parent="orR2DBVH05O4zQ2-kDLN-37">
          <mxGeometry x="0.7071" relative="1" as="geometry">
            <mxPoint as="offset" />
          </mxGeometry>
        </mxCell>
        <mxCell id="orR2DBVH05O4zQ2-kDLN-39" value="" style="endArrow=none;html=1;rounded=0;exitX=1;exitY=0.5;exitDx=0;exitDy=0;entryX=0;entryY=0.5;entryDx=0;entryDy=0;" edge="1" parent="1" source="orR2DBVH05O4zQ2-kDLN-10" target="orR2DBVH05O4zQ2-kDLN-2">
          <mxGeometry width="50" height="50" relative="1" as="geometry">
            <mxPoint x="280" y="290" as="sourcePoint" />
            <mxPoint x="540" y="120" as="targetPoint" />
          </mxGeometry>
        </mxCell>
        <mxCell id="orR2DBVH05O4zQ2-kDLN-40" value="&lt;font style=&quot;font-size: 18px;&quot;&gt;2&lt;/font&gt;" style="edgeLabel;html=1;align=center;verticalAlign=middle;resizable=0;points=[];" vertex="1" connectable="0" parent="orR2DBVH05O4zQ2-kDLN-39">
          <mxGeometry x="0.6429" y="3" relative="1" as="geometry">
            <mxPoint x="1" as="offset" />
          </mxGeometry>
        </mxCell>
        <mxCell id="orR2DBVH05O4zQ2-kDLN-41" value="" style="endArrow=none;html=1;rounded=0;exitX=1;exitY=0.5;exitDx=0;exitDy=0;entryX=0;entryY=0.5;entryDx=0;entryDy=0;" edge="1" parent="1" source="orR2DBVH05O4zQ2-kDLN-4" target="orR2DBVH05O4zQ2-kDLN-3">
          <mxGeometry width="50" height="50" relative="1" as="geometry">
            <mxPoint x="420" y="170" as="sourcePoint" />
            <mxPoint x="540" y="300" as="targetPoint" />
          </mxGeometry>
        </mxCell>
        <mxCell id="orR2DBVH05O4zQ2-kDLN-42" value="&lt;font style=&quot;font-size: 18px;&quot;&gt;3&lt;/font&gt;" style="edgeLabel;html=1;align=center;verticalAlign=middle;resizable=0;points=[];" vertex="1" connectable="0" parent="orR2DBVH05O4zQ2-kDLN-41">
          <mxGeometry x="0.1795" relative="1" as="geometry">
            <mxPoint x="-38" y="5" as="offset" />
          </mxGeometry>
        </mxCell>
        <mxCell id="orR2DBVH05O4zQ2-kDLN-43" value="" style="endArrow=none;html=1;rounded=0;entryX=0;entryY=0;entryDx=0;entryDy=0;exitX=0.5;exitY=1;exitDx=0;exitDy=0;" edge="1" parent="1" source="orR2DBVH05O4zQ2-kDLN-5" target="orR2DBVH05O4zQ2-kDLN-3">
          <mxGeometry width="50" height="50" relative="1" as="geometry">
            <mxPoint x="750" y="550" as="sourcePoint" />
            <mxPoint x="840" y="360" as="targetPoint" />
          </mxGeometry>
        </mxCell>
        <mxCell id="orR2DBVH05O4zQ2-kDLN-44" value="&lt;font style=&quot;font-size: 18px;&quot;&gt;2&lt;/font&gt;" style="edgeLabel;html=1;align=center;verticalAlign=middle;resizable=0;points=[];" vertex="1" connectable="0" parent="orR2DBVH05O4zQ2-kDLN-43">
          <mxGeometry x="0.7079" relative="1" as="geometry">
            <mxPoint y="-1" as="offset" />
          </mxGeometry>
        </mxCell>
        <mxCell id="orR2DBVH05O4zQ2-kDLN-45" value="" style="endArrow=none;html=1;rounded=0;exitX=1;exitY=1;exitDx=0;exitDy=0;entryX=0;entryY=0;entryDx=0;entryDy=0;" edge="1" parent="1" source="orR2DBVH05O4zQ2-kDLN-6" target="orR2DBVH05O4zQ2-kDLN-3">
          <mxGeometry width="50" height="50" relative="1" as="geometry">
            <mxPoint x="780" y="90" as="sourcePoint" />
            <mxPoint x="700" y="520" as="targetPoint" />
          </mxGeometry>
        </mxCell>
        <mxCell id="orR2DBVH05O4zQ2-kDLN-46" value="&lt;font style=&quot;font-size: 18px;&quot;&gt;3&lt;/font&gt;" style="edgeLabel;html=1;align=center;verticalAlign=middle;resizable=0;points=[];" vertex="1" connectable="0" parent="orR2DBVH05O4zQ2-kDLN-45">
          <mxGeometry x="0.6998" y="1" relative="1" as="geometry">
            <mxPoint as="offset" />
          </mxGeometry>
        </mxCell>
        <mxCell id="orR2DBVH05O4zQ2-kDLN-47" value="" style="endArrow=none;html=1;rounded=0;exitX=1;exitY=1;exitDx=0;exitDy=0;entryX=0;entryY=0;entryDx=0;entryDy=0;" edge="1" parent="1" source="orR2DBVH05O4zQ2-kDLN-7" target="orR2DBVH05O4zQ2-kDLN-3">
          <mxGeometry width="50" height="50" relative="1" as="geometry">
            <mxPoint x="524" y="84" as="sourcePoint" />
            <mxPoint x="660" y="480" as="targetPoint" />
          </mxGeometry>
        </mxCell>
        <mxCell id="orR2DBVH05O4zQ2-kDLN-48" value="&lt;font style=&quot;font-size: 18px;&quot;&gt;4&lt;/font&gt;" style="edgeLabel;html=1;align=center;verticalAlign=middle;resizable=0;points=[];" vertex="1" connectable="0" parent="orR2DBVH05O4zQ2-kDLN-47">
          <mxGeometry x="0.5453" y="1" relative="1" as="geometry">
            <mxPoint as="offset" />
          </mxGeometry>
        </mxCell>
        <mxCell id="orR2DBVH05O4zQ2-kDLN-49" value="" style="endArrow=none;html=1;rounded=0;exitX=1;exitY=0.5;exitDx=0;exitDy=0;entryX=0;entryY=0.5;entryDx=0;entryDy=0;" edge="1" parent="1" source="orR2DBVH05O4zQ2-kDLN-8" target="orR2DBVH05O4zQ2-kDLN-3">
          <mxGeometry width="50" height="50" relative="1" as="geometry">
            <mxPoint x="284" y="104" as="sourcePoint" />
            <mxPoint x="700" y="640" as="targetPoint" />
          </mxGeometry>
        </mxCell>
        <mxCell id="orR2DBVH05O4zQ2-kDLN-50" value="&lt;font style=&quot;font-size: 18px;&quot;&gt;4&lt;/font&gt;" style="edgeLabel;html=1;align=center;verticalAlign=middle;resizable=0;points=[];" vertex="1" connectable="0" parent="orR2DBVH05O4zQ2-kDLN-49">
          <mxGeometry x="0.67" y="2" relative="1" as="geometry">
            <mxPoint as="offset" />
          </mxGeometry>
        </mxCell>
        <mxCell id="orR2DBVH05O4zQ2-kDLN-51" value="" style="endArrow=none;html=1;rounded=0;exitX=1;exitY=1;exitDx=0;exitDy=0;entryX=0;entryY=0.5;entryDx=0;entryDy=0;fillColor=#d5e8d4;strokeColor=#82b366;" edge="1" parent="1" source="orR2DBVH05O4zQ2-kDLN-9" target="orR2DBVH05O4zQ2-kDLN-3">
          <mxGeometry width="50" height="50" relative="1" as="geometry">
            <mxPoint x="420" y="380" as="sourcePoint" />
            <mxPoint x="650" y="650" as="targetPoint" />
          </mxGeometry>
        </mxCell>
        <mxCell id="orR2DBVH05O4zQ2-kDLN-52" value="&lt;font style=&quot;font-size: 18px;&quot;&gt;1&lt;/font&gt;" style="edgeLabel;html=1;align=center;verticalAlign=middle;resizable=0;points=[];" vertex="1" connectable="0" parent="orR2DBVH05O4zQ2-kDLN-51">
          <mxGeometry x="0.6417" relative="1" as="geometry">
            <mxPoint as="offset" />
          </mxGeometry>
        </mxCell>
        <mxCell id="orR2DBVH05O4zQ2-kDLN-53" value="" style="endArrow=none;html=1;rounded=0;entryX=0;entryY=0.5;entryDx=0;entryDy=0;exitX=1;exitY=1;exitDx=0;exitDy=0;" edge="1" parent="1" source="orR2DBVH05O4zQ2-kDLN-10" target="orR2DBVH05O4zQ2-kDLN-3">
          <mxGeometry width="50" height="50" relative="1" as="geometry">
            <mxPoint x="40" y="220" as="sourcePoint" />
            <mxPoint x="690" y="520" as="targetPoint" />
          </mxGeometry>
        </mxCell>
        <mxCell id="orR2DBVH05O4zQ2-kDLN-54" value="&lt;font style=&quot;font-size: 18px;&quot;&gt;3&lt;/font&gt;" style="edgeLabel;html=1;align=center;verticalAlign=middle;resizable=0;points=[];" vertex="1" connectable="0" parent="orR2DBVH05O4zQ2-kDLN-53">
          <mxGeometry x="0.4904" y="3" relative="1" as="geometry">
            <mxPoint x="1" as="offset" />
          </mxGeometry>
        </mxCell>
        <mxCell id="orR2DBVH05O4zQ2-kDLN-55" value="" style="endArrow=none;html=1;rounded=0;exitX=1;exitY=0;exitDx=0;exitDy=0;entryX=0;entryY=1;entryDx=0;entryDy=0;fillColor=#fff2cc;strokeColor=#d6b656;" edge="1" parent="1" source="orR2DBVH05O4zQ2-kDLN-4" target="orR2DBVH05O4zQ2-kDLN-5">
          <mxGeometry width="50" height="50" relative="1" as="geometry">
            <mxPoint x="440" y="610" as="sourcePoint" />
            <mxPoint x="730" y="570" as="targetPoint" />
          </mxGeometry>
        </mxCell>
        <mxCell id="orR2DBVH05O4zQ2-kDLN-56" value="&lt;font style=&quot;font-size: 18px;&quot;&gt;1&lt;/font&gt;" style="edgeLabel;html=1;align=center;verticalAlign=middle;resizable=0;points=[];" vertex="1" connectable="0" parent="orR2DBVH05O4zQ2-kDLN-55">
          <mxGeometry x="-0.6063" relative="1" as="geometry">
            <mxPoint x="1" as="offset" />
          </mxGeometry>
        </mxCell>
        <mxCell id="orR2DBVH05O4zQ2-kDLN-57" value="" style="endArrow=none;html=1;rounded=0;entryX=0.5;entryY=1;entryDx=0;entryDy=0;exitX=0;exitY=0;exitDx=0;exitDy=0;" edge="1" parent="1" source="orR2DBVH05O4zQ2-kDLN-4" target="orR2DBVH05O4zQ2-kDLN-7">
          <mxGeometry width="50" height="50" relative="1" as="geometry">
            <mxPoint x="300" y="590" as="sourcePoint" />
            <mxPoint x="766" y="84" as="targetPoint" />
          </mxGeometry>
        </mxCell>
        <mxCell id="orR2DBVH05O4zQ2-kDLN-58" value="&lt;font style=&quot;font-size: 18px;&quot;&gt;2&lt;/font&gt;" style="edgeLabel;html=1;align=center;verticalAlign=middle;resizable=0;points=[];" vertex="1" connectable="0" parent="orR2DBVH05O4zQ2-kDLN-57">
          <mxGeometry x="-0.5269" relative="1" as="geometry">
            <mxPoint as="offset" />
          </mxGeometry>
        </mxCell>
        <mxCell id="orR2DBVH05O4zQ2-kDLN-59" value="" style="endArrow=none;html=1;rounded=0;entryX=1;entryY=1;entryDx=0;entryDy=0;exitX=0;exitY=0.5;exitDx=0;exitDy=0;" edge="1" parent="1" source="orR2DBVH05O4zQ2-kDLN-4" target="orR2DBVH05O4zQ2-kDLN-8">
          <mxGeometry width="50" height="50" relative="1" as="geometry">
            <mxPoint x="320" y="630" as="sourcePoint" />
            <mxPoint x="270" y="110" as="targetPoint" />
          </mxGeometry>
        </mxCell>
        <mxCell id="orR2DBVH05O4zQ2-kDLN-60" value="&lt;font style=&quot;font-size: 18px;&quot;&gt;2&lt;/font&gt;" style="edgeLabel;html=1;align=center;verticalAlign=middle;resizable=0;points=[];" vertex="1" connectable="0" parent="orR2DBVH05O4zQ2-kDLN-59">
          <mxGeometry x="-0.1074" y="-2" relative="1" as="geometry">
            <mxPoint as="offset" />
          </mxGeometry>
        </mxCell>
        <mxCell id="orR2DBVH05O4zQ2-kDLN-61" value="" style="endArrow=none;html=1;rounded=0;entryX=0.5;entryY=1;entryDx=0;entryDy=0;exitX=0;exitY=0.5;exitDx=0;exitDy=0;" edge="1" parent="1" source="orR2DBVH05O4zQ2-kDLN-4" target="orR2DBVH05O4zQ2-kDLN-9">
          <mxGeometry width="50" height="50" relative="1" as="geometry">
            <mxPoint x="400" y="610" as="sourcePoint" />
            <mxPoint x="164" y="584" as="targetPoint" />
          </mxGeometry>
        </mxCell>
        <mxCell id="orR2DBVH05O4zQ2-kDLN-62" value="&lt;font style=&quot;font-size: 18px;&quot;&gt;3&lt;/font&gt;" style="edgeLabel;html=1;align=center;verticalAlign=middle;resizable=0;points=[];" vertex="1" connectable="0" parent="orR2DBVH05O4zQ2-kDLN-61">
          <mxGeometry x="0.1261" y="3" relative="1" as="geometry">
            <mxPoint as="offset" />
          </mxGeometry>
        </mxCell>
        <mxCell id="orR2DBVH05O4zQ2-kDLN-63" value="" style="endArrow=none;html=1;rounded=0;entryX=1;entryY=1;entryDx=0;entryDy=0;exitX=0;exitY=0;exitDx=0;exitDy=0;fillColor=#dae8fc;strokeColor=#6c8ebf;" edge="1" parent="1" source="orR2DBVH05O4zQ2-kDLN-4" target="orR2DBVH05O4zQ2-kDLN-10">
          <mxGeometry width="50" height="50" relative="1" as="geometry">
            <mxPoint x="380" y="650" as="sourcePoint" />
            <mxPoint x="60" y="410" as="targetPoint" />
          </mxGeometry>
        </mxCell>
        <mxCell id="orR2DBVH05O4zQ2-kDLN-64" value="&lt;font style=&quot;font-size: 18px;&quot;&gt;1&lt;/font&gt;" style="edgeLabel;html=1;align=center;verticalAlign=middle;resizable=0;points=[];" vertex="1" connectable="0" parent="orR2DBVH05O4zQ2-kDLN-63">
          <mxGeometry x="-0.7178" y="-6" relative="1" as="geometry">
            <mxPoint y="1" as="offset" />
          </mxGeometry>
        </mxCell>
        <mxCell id="orR2DBVH05O4zQ2-kDLN-65" value="" style="endArrow=none;html=1;rounded=0;entryX=1;entryY=0.5;entryDx=0;entryDy=0;exitX=0;exitY=0.5;exitDx=0;exitDy=0;" edge="1" parent="1" source="orR2DBVH05O4zQ2-kDLN-5" target="orR2DBVH05O4zQ2-kDLN-6">
          <mxGeometry width="50" height="50" relative="1" as="geometry">
            <mxPoint x="720" y="50" as="sourcePoint" />
            <mxPoint x="420" y="340" as="targetPoint" />
          </mxGeometry>
        </mxCell>
        <mxCell id="orR2DBVH05O4zQ2-kDLN-66" value="&lt;font style=&quot;font-size: 18px;&quot;&gt;1&lt;/font&gt;" style="edgeLabel;html=1;align=center;verticalAlign=middle;resizable=0;points=[];" vertex="1" connectable="0" parent="orR2DBVH05O4zQ2-kDLN-65">
          <mxGeometry x="-0.1528" relative="1" as="geometry">
            <mxPoint as="offset" />
          </mxGeometry>
        </mxCell>
        <mxCell id="orR2DBVH05O4zQ2-kDLN-67" value="" style="endArrow=none;html=1;rounded=0;entryX=0;entryY=0;entryDx=0;entryDy=0;exitX=1;exitY=0.5;exitDx=0;exitDy=0;" edge="1" parent="1" source="orR2DBVH05O4zQ2-kDLN-7" target="orR2DBVH05O4zQ2-kDLN-5">
          <mxGeometry width="50" height="50" relative="1" as="geometry">
            <mxPoint x="760" y="70" as="sourcePoint" />
            <mxPoint x="530" y="70" as="targetPoint" />
          </mxGeometry>
        </mxCell>
        <mxCell id="orR2DBVH05O4zQ2-kDLN-68" value="&lt;font style=&quot;font-size: 18px;&quot;&gt;2&lt;/font&gt;" style="edgeLabel;html=1;align=center;verticalAlign=middle;resizable=0;points=[];" vertex="1" connectable="0" parent="orR2DBVH05O4zQ2-kDLN-67">
          <mxGeometry x="0.1525" y="2" relative="1" as="geometry">
            <mxPoint as="offset" />
          </mxGeometry>
        </mxCell>
        <mxCell id="orR2DBVH05O4zQ2-kDLN-69" value="" style="endArrow=none;html=1;rounded=0;exitX=0;exitY=0.5;exitDx=0;exitDy=0;entryX=1;entryY=0;entryDx=0;entryDy=0;" edge="1" parent="1" source="orR2DBVH05O4zQ2-kDLN-5" target="orR2DBVH05O4zQ2-kDLN-8">
          <mxGeometry width="50" height="50" relative="1" as="geometry">
            <mxPoint x="434" y="596" as="sourcePoint" />
            <mxPoint x="766" y="84" as="targetPoint" />
          </mxGeometry>
        </mxCell>
        <mxCell id="orR2DBVH05O4zQ2-kDLN-70" value="&lt;font style=&quot;font-size: 18px;&quot;&gt;2&lt;/font&gt;" style="edgeLabel;html=1;align=center;verticalAlign=middle;resizable=0;points=[];" vertex="1" connectable="0" parent="orR2DBVH05O4zQ2-kDLN-69">
          <mxGeometry x="-0.363" y="2" relative="1" as="geometry">
            <mxPoint as="offset" />
          </mxGeometry>
        </mxCell>
        <mxCell id="orR2DBVH05O4zQ2-kDLN-71" value="" style="endArrow=none;html=1;rounded=0;exitX=0;exitY=0.5;exitDx=0;exitDy=0;entryX=1;entryY=0;entryDx=0;entryDy=0;" edge="1" parent="1" source="orR2DBVH05O4zQ2-kDLN-5" target="orR2DBVH05O4zQ2-kDLN-9">
          <mxGeometry width="50" height="50" relative="1" as="geometry">
            <mxPoint x="766" y="84" as="sourcePoint" />
            <mxPoint x="100" y="330" as="targetPoint" />
          </mxGeometry>
        </mxCell>
        <mxCell id="orR2DBVH05O4zQ2-kDLN-72" value="&lt;font style=&quot;font-size: 18px;&quot;&gt;2&lt;/font&gt;" style="edgeLabel;html=1;align=center;verticalAlign=middle;resizable=0;points=[];" vertex="1" connectable="0" parent="orR2DBVH05O4zQ2-kDLN-71">
          <mxGeometry x="0.0839" y="-2" relative="1" as="geometry">
            <mxPoint as="offset" />
          </mxGeometry>
        </mxCell>
        <mxCell id="orR2DBVH05O4zQ2-kDLN-73" value="" style="endArrow=none;html=1;rounded=0;exitX=0;exitY=0;exitDx=0;exitDy=0;entryX=1;entryY=1;entryDx=0;entryDy=0;fillColor=#dae8fc;strokeColor=#6c8ebf;" edge="1" parent="1" source="orR2DBVH05O4zQ2-kDLN-6" target="orR2DBVH05O4zQ2-kDLN-7">
          <mxGeometry width="50" height="50" relative="1" as="geometry">
            <mxPoint x="820" y="340" as="sourcePoint" />
            <mxPoint x="340" y="-100" as="targetPoint" />
          </mxGeometry>
        </mxCell>
        <mxCell id="orR2DBVH05O4zQ2-kDLN-74" value="&lt;font style=&quot;font-size: 18px;&quot;&gt;1&lt;/font&gt;" style="edgeLabel;html=1;align=center;verticalAlign=middle;resizable=0;points=[];" vertex="1" connectable="0" parent="orR2DBVH05O4zQ2-kDLN-73">
          <mxGeometry x="-0.1132" y="4" relative="1" as="geometry">
            <mxPoint x="-1" as="offset" />
          </mxGeometry>
        </mxCell>
        <mxCell id="orR2DBVH05O4zQ2-kDLN-75" value="" style="endArrow=none;html=1;rounded=0;entryX=0;entryY=1;entryDx=0;entryDy=0;exitX=0.5;exitY=0;exitDx=0;exitDy=0;fillColor=#dae8fc;strokeColor=#6c8ebf;" edge="1" parent="1" source="orR2DBVH05O4zQ2-kDLN-8" target="orR2DBVH05O4zQ2-kDLN-6">
          <mxGeometry width="50" height="50" relative="1" as="geometry">
            <mxPoint x="10" y="490" as="sourcePoint" />
            <mxPoint x="280" y="10" as="targetPoint" />
          </mxGeometry>
        </mxCell>
        <mxCell id="orR2DBVH05O4zQ2-kDLN-76" value="&lt;font style=&quot;font-size: 18px;&quot;&gt;1&lt;/font&gt;" style="edgeLabel;html=1;align=center;verticalAlign=middle;resizable=0;points=[];" vertex="1" connectable="0" parent="orR2DBVH05O4zQ2-kDLN-75">
          <mxGeometry x="0.6803" relative="1" as="geometry">
            <mxPoint as="offset" />
          </mxGeometry>
        </mxCell>
        <mxCell id="orR2DBVH05O4zQ2-kDLN-77" value="" style="endArrow=none;html=1;rounded=0;entryX=0;entryY=0.5;entryDx=0;entryDy=0;exitX=0.5;exitY=0;exitDx=0;exitDy=0;" edge="1" parent="1" source="orR2DBVH05O4zQ2-kDLN-9" target="orR2DBVH05O4zQ2-kDLN-6">
          <mxGeometry width="50" height="50" relative="1" as="geometry">
            <mxPoint x="70" y="530" as="sourcePoint" />
            <mxPoint x="496" y="94" as="targetPoint" />
          </mxGeometry>
        </mxCell>
        <mxCell id="orR2DBVH05O4zQ2-kDLN-78" value="&lt;font style=&quot;font-size: 18px;&quot;&gt;3&lt;/font&gt;" style="edgeLabel;html=1;align=center;verticalAlign=middle;resizable=0;points=[];" vertex="1" connectable="0" parent="orR2DBVH05O4zQ2-kDLN-77">
          <mxGeometry x="0.1049" y="1" relative="1" as="geometry">
            <mxPoint as="offset" />
          </mxGeometry>
        </mxCell>
        <mxCell id="orR2DBVH05O4zQ2-kDLN-79" value="" style="endArrow=none;html=1;rounded=0;entryX=1;entryY=0;entryDx=0;entryDy=0;exitX=0;exitY=0.5;exitDx=0;exitDy=0;fillColor=#dae8fc;strokeColor=#6c8ebf;" edge="1" parent="1" source="orR2DBVH05O4zQ2-kDLN-6" target="orR2DBVH05O4zQ2-kDLN-10">
          <mxGeometry width="50" height="50" relative="1" as="geometry">
            <mxPoint x="60" y="370" as="sourcePoint" />
            <mxPoint x="490" y="80" as="targetPoint" />
          </mxGeometry>
        </mxCell>
        <mxCell id="orR2DBVH05O4zQ2-kDLN-80" value="&lt;font style=&quot;font-size: 18px;&quot;&gt;1&lt;/font&gt;" style="edgeLabel;html=1;align=center;verticalAlign=middle;resizable=0;points=[];" vertex="1" connectable="0" parent="orR2DBVH05O4zQ2-kDLN-79">
          <mxGeometry x="-0.7553" y="-5" relative="1" as="geometry">
            <mxPoint as="offset" />
          </mxGeometry>
        </mxCell>
        <mxCell id="orR2DBVH05O4zQ2-kDLN-81" value="" style="endArrow=none;html=1;rounded=0;entryX=0;entryY=1;entryDx=0;entryDy=0;exitX=0.5;exitY=0;exitDx=0;exitDy=0;" edge="1" parent="1" source="orR2DBVH05O4zQ2-kDLN-9" target="orR2DBVH05O4zQ2-kDLN-7">
          <mxGeometry width="50" height="50" relative="1" as="geometry">
            <mxPoint x="406" y="596" as="sourcePoint" />
            <mxPoint x="280" y="10" as="targetPoint" />
          </mxGeometry>
        </mxCell>
        <mxCell id="orR2DBVH05O4zQ2-kDLN-82" value="&lt;font style=&quot;font-size: 18px;&quot;&gt;3&lt;/font&gt;" style="edgeLabel;html=1;align=center;verticalAlign=middle;resizable=0;points=[];" vertex="1" connectable="0" parent="orR2DBVH05O4zQ2-kDLN-81">
          <mxGeometry x="0.5893" y="1" relative="1" as="geometry">
            <mxPoint x="1" y="-1" as="offset" />
          </mxGeometry>
        </mxCell>
        <mxCell id="orR2DBVH05O4zQ2-kDLN-83" value="" style="endArrow=none;html=1;rounded=0;exitX=0.5;exitY=0;exitDx=0;exitDy=0;entryX=0;entryY=0.5;entryDx=0;entryDy=0;" edge="1" parent="1" source="orR2DBVH05O4zQ2-kDLN-10" target="orR2DBVH05O4zQ2-kDLN-7">
          <mxGeometry width="50" height="50" relative="1" as="geometry">
            <mxPoint x="60" y="370" as="sourcePoint" />
            <mxPoint x="120" y="4" as="targetPoint" />
          </mxGeometry>
        </mxCell>
        <mxCell id="orR2DBVH05O4zQ2-kDLN-84" value="&lt;font style=&quot;font-size: 18px;&quot;&gt;2&lt;/font&gt;" style="edgeLabel;html=1;align=center;verticalAlign=middle;resizable=0;points=[];" vertex="1" connectable="0" parent="orR2DBVH05O4zQ2-kDLN-83">
          <mxGeometry x="-0.1745" y="-6" relative="1" as="geometry">
            <mxPoint as="offset" />
          </mxGeometry>
        </mxCell>
        <mxCell id="orR2DBVH05O4zQ2-kDLN-85" value="" style="endArrow=none;html=1;rounded=0;entryX=0.5;entryY=0;entryDx=0;entryDy=0;exitX=0.5;exitY=1;exitDx=0;exitDy=0;" edge="1" parent="1" source="orR2DBVH05O4zQ2-kDLN-9" target="orR2DBVH05O4zQ2-kDLN-8">
          <mxGeometry width="50" height="50" relative="1" as="geometry">
            <mxPoint x="400" y="610" as="sourcePoint" />
            <mxPoint x="64" y="544" as="targetPoint" />
          </mxGeometry>
        </mxCell>
        <mxCell id="orR2DBVH05O4zQ2-kDLN-86" value="&lt;font style=&quot;font-size: 18px;&quot;&gt;3&lt;/font&gt;" style="edgeLabel;html=1;align=center;verticalAlign=middle;resizable=0;points=[];" vertex="1" connectable="0" parent="orR2DBVH05O4zQ2-kDLN-85">
          <mxGeometry x="-0.3115" y="-1" relative="1" as="geometry">
            <mxPoint as="offset" />
          </mxGeometry>
        </mxCell>
        <mxCell id="orR2DBVH05O4zQ2-kDLN-87" value="" style="endArrow=none;html=1;rounded=0;entryX=0;entryY=1;entryDx=0;entryDy=0;exitX=0.5;exitY=0;exitDx=0;exitDy=0;" edge="1" parent="1" source="orR2DBVH05O4zQ2-kDLN-8" target="orR2DBVH05O4zQ2-kDLN-10">
          <mxGeometry width="50" height="50" relative="1" as="geometry">
            <mxPoint x="60" y="410" as="sourcePoint" />
            <mxPoint x="50" y="510" as="targetPoint" />
          </mxGeometry>
        </mxCell>
        <mxCell id="orR2DBVH05O4zQ2-kDLN-88" value="&lt;font style=&quot;font-size: 18px;&quot;&gt;2&lt;/font&gt;" style="edgeLabel;html=1;align=center;verticalAlign=middle;resizable=0;points=[];" vertex="1" connectable="0" parent="orR2DBVH05O4zQ2-kDLN-87">
          <mxGeometry x="-0.1011" y="1" relative="1" as="geometry">
            <mxPoint y="-1" as="offset" />
          </mxGeometry>
        </mxCell>
        <mxCell id="orR2DBVH05O4zQ2-kDLN-89" value="" style="endArrow=none;html=1;rounded=0;exitX=0.5;exitY=0;exitDx=0;exitDy=0;entryX=0.5;entryY=1;entryDx=0;entryDy=0;" edge="1" parent="1" source="orR2DBVH05O4zQ2-kDLN-9" target="orR2DBVH05O4zQ2-kDLN-10">
          <mxGeometry width="50" height="50" relative="1" as="geometry">
            <mxPoint x="74" y="376" as="sourcePoint" />
            <mxPoint x="400" y="360" as="targetPoint" />
          </mxGeometry>
        </mxCell>
        <mxCell id="orR2DBVH05O4zQ2-kDLN-90" value="&lt;font style=&quot;font-size: 18px;&quot;&gt;2&lt;/font&gt;" style="edgeLabel;html=1;align=center;verticalAlign=middle;resizable=0;points=[];" vertex="1" connectable="0" parent="orR2DBVH05O4zQ2-kDLN-89">
          <mxGeometry x="-0.1893" y="2" relative="1" as="geometry">
            <mxPoint y="1" as="offset" />
          </mxGeometry>
        </mxCell>
        <mxCell id="orR2DBVH05O4zQ2-kDLN-91" value="Backtracking" style="text;html=1;align=center;verticalAlign=middle;resizable=0;points=[];autosize=1;strokeColor=none;fillColor=none;" vertex="1" parent="1">
          <mxGeometry x="-110" y="600" width="90" height="30" as="geometry" />
        </mxCell>
      </root>
    </mxGraphModel>
  </diagram>
</mxfile>
